<svg width="20" height="20" viewBox="0 0 20 20" fill="none" xmlns="http://www.w3.org/2000/svg">
<g clip-path="url(#clip0_1333_8002)">
<path d="M8.33331 7.50001C8.33331 7.01087 8.51576 6.69804 8.75527 6.49481C9.01291 6.27621 9.38612 6.14584 9.79165 6.14584C10.1972 6.14584 10.5704 6.27621 10.828 6.49481C11.0675 6.69804 11.25 7.01087 11.25 7.50001C11.25 7.86432 11.1641 8.06657 11.0644 8.21615C10.9481 8.39066 10.795 8.52827 10.5361 8.76099L10.4842 8.80768C10.2178 9.04738 9.86745 9.37142 9.60029 9.84342C9.32496 10.3298 9.16665 10.9176 9.16665 11.6667C9.16665 12.1269 9.53974 12.5 9.99998 12.5C10.4602 12.5 10.8333 12.1269 10.8333 11.6667C10.8333 11.1658 10.9354 10.8681 11.0507 10.6644C11.1742 10.4463 11.3446 10.2756 11.5991 10.0465C11.622 10.0259 11.6462 10.0044 11.6714 9.98191C11.8991 9.77892 12.211 9.50088 12.4512 9.14065C12.7421 8.70429 12.9166 8.17737 12.9166 7.50001C12.9166 6.53082 12.5262 5.7499 11.9063 5.22396C11.3046 4.71339 10.5319 4.47918 9.79165 4.47918C9.05134 4.47918 8.27872 4.71339 7.67698 5.22396C7.05712 5.7499 6.66665 6.53082 6.66665 7.50001C6.66665 7.96025 7.03974 8.33334 7.49998 8.33334C7.96022 8.33334 8.33331 7.96025 8.33331 7.50001Z" fill="white" fill-opacity="0.5"/>
<path d="M10.6249 15.5598C10.9345 15.2192 10.9094 14.6922 10.5689 14.3826C10.2283 14.073 9.70131 14.0981 9.39171 14.4386L9.38338 14.4478C9.07378 14.7883 9.09886 15.3153 9.4394 15.6249C9.77994 15.9345 10.307 15.9095 10.6166 15.5689L10.6249 15.5598Z" fill="white" fill-opacity="0.5"/>
<path fill-rule="evenodd" clip-rule="evenodd" d="M9.99998 0.833344C4.93724 0.833344 0.833313 4.93727 0.833313 10C0.833313 15.0627 4.93724 19.1667 9.99998 19.1667C15.0627 19.1667 19.1666 15.0627 19.1666 10C19.1666 4.93727 15.0627 0.833344 9.99998 0.833344ZM2.49998 10C2.49998 5.85775 5.85772 2.50001 9.99998 2.50001C14.1422 2.50001 17.5 5.85775 17.5 10C17.5 14.1423 14.1422 17.5 9.99998 17.5C5.85772 17.5 2.49998 14.1423 2.49998 10Z" fill="white" fill-opacity="0.5"/>
</g>
<defs>
<clipPath id="clip0_1333_8002">
<rect width="20" height="20" fill="white"/>
</clipPath>
</defs>
</svg>
