<svg width="20" height="20" viewBox="0 0 20 20" fill="none" xmlns="http://www.w3.org/2000/svg">
<g clip-path="url(#clip0_1333_7991)">
<path d="M17.5 5.20249C17.5012 4.76448 17.4154 4.33058 17.2478 3.92592C17.0801 3.52126 16.8339 3.15386 16.5233 2.84499L14.655 0.976659C14.0289 0.353191 13.1819 0.00218191 12.2983 -7.62939e-06L5 -7.62939e-06C4.33696 -7.62939e-06 3.70107 0.263384 3.23223 0.732225C2.76339 1.20107 2.5 1.83695 2.5 2.49999V20H17.5V5.20249ZM15.345 4.02333C15.3869 4.0688 15.4261 4.11665 15.4625 4.16666H13.3333V2.03749C13.3833 2.07386 13.4312 2.11309 13.4767 2.15499L15.345 4.02333ZM4.16667 18.3333V2.49999C4.16667 2.27898 4.25446 2.06702 4.41074 1.91074C4.56703 1.75446 4.77899 1.66666 5 1.66666H11.6667V5.83333H15.8333V18.3333H4.16667ZM6.66667 7.49999H13.3333V9.16666H6.66667V7.49999ZM6.66667 10.8333H13.3333V12.5H6.66667V10.8333ZM11.6817 14.0117L13.3192 14.3167C13.16 15.1892 12.4817 16.6667 10.9458 16.6667C10.343 16.6661 9.75871 16.4584 9.29083 16.0783C9.02917 15.8925 8.9375 15.8333 8.73917 15.8333C8.44084 15.9464 8.17757 16.1361 7.97583 16.3833L6.72583 15.2858C7.2299 14.6699 7.95 14.2697 8.73917 14.1667C9.29319 14.1733 9.82842 14.3684 10.2567 14.72C10.4434 14.896 10.6892 14.9958 10.9458 15C11.465 15 11.6792 14.0225 11.6817 14.0117Z" fill="white" fill-opacity="0.5"/>
</g>
<defs>
<clipPath id="clip0_1333_7991">
<rect width="20" height="20" fill="white"/>
</clipPath>
</defs>
</svg>
