<svg width="20" height="20" viewBox="0 0 20 20" fill="none" xmlns="http://www.w3.org/2000/svg">
<g clip-path="url(#clip0_1333_7985)">
<path d="M7.5 9.99995C8.48891 9.99995 9.45561 9.7067 10.2779 9.1573C11.1001 8.60789 11.741 7.827 12.1194 6.91337C12.4978 5.99974 12.5969 4.9944 12.4039 4.0245C12.211 3.05459 11.7348 2.16368 11.0355 1.46441C10.3363 0.765152 9.44536 0.288949 8.47545 0.0960224C7.50555 -0.0969037 6.50021 0.00211302 5.58658 0.380551C4.67295 0.758989 3.89206 1.39985 3.34265 2.2221C2.79324 3.04434 2.5 4.01104 2.5 4.99995C2.50132 6.32562 3.02853 7.59663 3.96593 8.53402C4.90332 9.47142 6.17432 9.99862 7.5 9.99995ZM7.5 1.66662C8.15927 1.66662 8.80374 1.86211 9.3519 2.22838C9.90006 2.59465 10.3273 3.11525 10.5796 3.72434C10.8319 4.33342 10.8979 5.00365 10.7693 5.65025C10.6407 6.29685 10.3232 6.8908 9.85702 7.35697C9.39085 7.82315 8.79691 8.14062 8.1503 8.26923C7.5037 8.39785 6.83348 8.33184 6.22439 8.07955C5.6153 7.82726 5.09471 7.40001 4.72843 6.85185C4.36216 6.30369 4.16667 5.65922 4.16667 4.99995C4.16667 4.11589 4.51786 3.26805 5.14298 2.64293C5.7681 2.0178 6.61595 1.66662 7.5 1.66662Z" fill="white" fill-opacity="0.5"/>
<path d="M17.4998 8.33281V5.83281H15.8332V8.33281H13.3332V9.99947H15.8332V12.4995H17.4998V9.99947H19.9998V8.33281H17.4998Z" fill="white" fill-opacity="0.5"/>
<path d="M10.8692 11.6672H4.13083C3.03567 11.6685 1.98575 12.1041 1.21135 12.8785C0.43696 13.6529 0.00132319 14.7029 0 15.798L0 20.0005H1.66667V15.798C1.66733 15.1447 1.92716 14.5183 2.38914 14.0563C2.85111 13.5943 3.4775 13.3345 4.13083 13.3338H10.8692C11.5225 13.3345 12.1489 13.5943 12.6109 14.0563C13.0728 14.5183 13.3327 15.1447 13.3333 15.798V20.0005H15V15.798C14.9987 14.7029 14.563 13.6529 13.7886 12.8785C13.0143 12.1041 11.9643 11.6685 10.8692 11.6672Z" fill="white" fill-opacity="0.5"/>
</g>
<defs>
<clipPath id="clip0_1333_7985">
<rect width="20" height="20" fill="white"/>
</clipPath>
</defs>
</svg>
