<svg width="20" height="21" viewBox="0 0 20 21" fill="none" xmlns="http://www.w3.org/2000/svg">
<g clip-path="url(#clip0_1333_7929)">
<path d="M10.8333 2.51316V8.3465H1.66667V3.3465C1.66667 3.12548 1.75446 2.91352 1.91074 2.75724C2.06702 2.60096 2.27899 2.51316 2.5 2.51316H10.8333ZM12.5 0.846497H2.5C1.83696 0.846497 1.20107 1.10989 0.732233 1.57873C0.263392 2.04757 0 2.68346 0 3.3465L0 10.0132H12.5V0.846497Z" fill="white" fill-opacity="0.5"/>
<path d="M17.4997 2.51316C17.7207 2.51316 17.9327 2.60096 18.089 2.75724C18.2453 2.91352 18.333 3.12548 18.333 3.3465V8.3465H15.8331V2.51316H17.4997ZM17.4997 0.846497H14.1664V10.0132H19.9997V3.3465C19.9997 2.68346 19.7363 2.04757 19.2675 1.57873C18.7986 1.10989 18.1628 0.846497 17.4997 0.846497V0.846497Z" fill="white" fill-opacity="0.5"/>
<path d="M4.16667 13.3467V19.1801H2.5C2.27899 19.1801 2.06702 19.0923 1.91074 18.936C1.75446 18.7797 1.66667 18.5678 1.66667 18.3467V13.3467H4.16667ZM5.83333 11.6801H0V18.3467C0 19.0098 0.263392 19.6457 0.732233 20.1145C1.20107 20.5833 1.83696 20.8467 2.5 20.8467H5.83333V11.6801Z" fill="white" fill-opacity="0.5"/>
<path d="M18.3333 13.3467V18.3467C18.3333 18.5678 18.2455 18.7797 18.0893 18.936C17.933 19.0923 17.721 19.1801 17.5 19.1801H9.16667V13.3467H18.3333ZM20 11.6801H7.5V20.8467H17.5C18.163 20.8467 18.7989 20.5833 19.2678 20.1145C19.7366 19.6457 20 19.0098 20 18.3467V11.6801Z" fill="white" fill-opacity="0.5"/>
</g>
<defs>
<clipPath id="clip0_1333_7929">
<rect width="20" height="20" fill="white" transform="translate(0 0.846497)"/>
</clipPath>
</defs>
</svg>
