<svg viewBox="0 0 713 553" fill="none" xmlns="http://www.w3.org/2000/svg">
<g clip-path="url(#clip0_1397_8054)">
<path d="M441.124 223.618C460.808 223.618 476.764 207.661 476.764 187.978C476.764 168.295 460.808 152.338 441.124 152.338C421.441 152.338 405.485 168.295 405.485 187.978C405.485 207.661 421.441 223.618 441.124 223.618Z" fill="#B68E57"/>
<path d="M531.871 58.2985C531.494 58.2985 531.189 57.9934 531.189 57.6166V0.854039C531.189 0.477239 531.494 0.172119 531.871 0.172119C532.247 0.172119 532.553 0.477239 532.553 0.854039V57.6166C532.553 57.9934 532.247 58.2985 531.871 58.2985Z" fill="#897E7E"/>
<path d="M593.419 87.0841C593.043 87.0841 592.738 86.779 592.738 86.4022V17.3284C592.738 16.9516 593.043 16.6465 593.419 16.6465C593.796 16.6465 594.101 16.9516 594.101 17.3284V86.4022C594.101 86.779 593.796 87.0841 593.419 87.0841Z" fill="#897E7E"/>
<path d="M369.067 51.5167L12.9076 141.507C5.57141 143.36 1.12692 150.81 2.98054 158.146L60.1727 384.499C62.0263 391.836 69.4761 396.28 76.8123 394.427L432.971 304.437C440.308 302.583 444.752 295.133 442.899 287.797L385.706 61.4438C383.853 54.1076 376.403 49.6631 369.067 51.5167Z" fill="#161A23"/>
<path d="M375.219 43.3992L19.0595 133.389C11.7233 135.243 7.27878 142.693 9.13239 150.029L66.3245 376.382C68.1781 383.718 75.628 388.163 82.9642 386.309L439.123 296.319C446.459 294.466 450.904 287.016 449.05 279.68L391.858 53.3263C390.005 45.9901 382.555 41.5456 375.219 43.3992Z" fill="#535353"/>
<path d="M79.5603 387.438C76.9981 387.438 74.4726 386.746 72.2155 385.399C68.9162 383.431 66.5801 380.295 65.6408 376.569L8.46469 150.212C7.52361 146.486 8.08974 142.619 10.0583 139.32C12.0268 136.02 15.1625 133.684 18.8883 132.745L375.054 42.7799C378.78 41.8388 382.647 42.4049 385.946 44.3735C389.245 46.342 391.582 49.4777 392.521 53.2034L449.697 279.561C450.638 283.286 450.072 287.154 448.103 290.453C446.135 293.752 442.999 296.088 439.273 297.028L83.1078 386.993C81.9314 387.291 80.7422 387.438 79.5603 387.438ZM378.598 43.7007C377.528 43.7007 376.451 43.8331 375.387 44.1033L19.2209 134.068C15.85 134.919 13.012 137.033 11.2291 140.02C9.44622 143.007 8.93524 146.508 9.78626 149.879L66.9624 376.236C67.8134 379.607 69.9271 382.445 72.914 384.228C75.9008 386.009 79.4004 386.522 82.7732 385.671L438.939 295.706C442.31 294.855 445.148 292.741 446.931 289.755C448.712 286.768 449.225 283.266 448.374 279.895L391.197 53.538C390.346 50.167 388.233 47.329 385.246 45.5461C383.202 44.3275 380.917 43.7026 378.598 43.7026V43.7007Z" fill="#161A23"/>
<path d="M436.087 277.73L381.402 61.2972C380.493 57.701 376.841 55.5223 373.245 56.4309L27.0063 143.914C23.41 144.823 21.2313 148.475 22.1399 152.071L76.8255 368.504C77.7341 372.1 81.3861 374.279 84.9823 373.37L431.221 285.887C434.817 284.978 436.996 281.326 436.087 277.73Z" fill="#897E7E"/>
<path d="M83.2934 374.235C79.9849 374.235 76.965 371.996 76.1177 368.647L21.4468 152.214C20.9634 150.297 21.2538 148.308 22.2666 146.609C23.2794 144.913 24.8932 143.711 26.8084 143.227L373.05 55.7677C377.008 54.7678 381.039 57.1738 382.037 61.1293L436.708 277.563C437.191 279.48 436.901 281.469 435.888 283.167C434.875 284.864 433.261 286.066 431.346 286.549L85.1039 374.009C84.4992 374.161 83.8908 374.235 83.2916 374.235H83.2934ZM77.4429 368.313C78.2572 371.539 81.5454 373.502 84.7712 372.685L431.013 285.226C432.576 284.831 433.892 283.851 434.717 282.467C435.542 281.083 435.779 279.46 435.386 277.897L380.715 61.4638C379.901 58.238 376.613 56.2768 373.387 57.0911L27.1448 144.551C25.5824 144.946 24.2664 145.926 23.4411 147.31C22.6158 148.694 22.3769 150.317 22.7721 151.879L77.4429 368.313Z" fill="#161A23"/>
<path d="M48.7439 165.999L48.1337 163.58C47.2312 160.005 49.3964 156.375 52.9714 155.471L321.462 87.1173C325.037 86.2149 328.667 88.3801 329.572 91.9551L330.182 94.3739C331.084 97.9489 328.919 101.579 325.344 102.483L56.8534 170.837C53.2784 171.739 49.6482 169.574 48.7439 165.999Z" fill="#535353"/>
<path d="M55.2193 171.724C51.9292 171.724 48.924 169.499 48.0822 166.166L47.472 163.747C46.4776 159.812 48.8707 155.803 52.806 154.809L321.297 86.4556C325.232 85.4612 329.243 87.8544 330.235 91.7878L330.845 94.2067C331.327 96.1127 331.037 98.0923 330.029 99.7796C329.022 101.469 327.418 102.664 325.511 103.143L57.0206 171.497C56.4177 171.649 55.813 171.721 55.2175 171.721L55.2193 171.724ZM323.098 87.5952C322.613 87.5952 322.122 87.654 321.631 87.779L53.1405 156.132C49.9349 156.943 47.9866 160.207 48.7953 163.413L49.4056 165.832C50.2143 169.035 53.4805 170.986 56.6861 170.175L325.177 101.822C326.73 101.428 328.037 100.456 328.859 99.0812C329.68 97.7063 329.915 96.0943 329.522 94.5412L328.912 92.1223C328.226 89.4094 325.78 87.5952 323.1 87.5952H323.098Z" fill="#161A23"/>
<path d="M163.278 331.949L124.629 178.984C123.725 175.408 120.094 173.242 116.519 174.146L63.2268 187.611C59.6512 188.514 57.485 192.145 58.3884 195.721L97.0378 348.686C97.9412 352.262 101.572 354.428 105.148 353.524L158.44 340.059C162.015 339.156 164.182 335.525 163.278 331.949Z" fill="#535353"/>
<path d="M103.466 354.395C102.156 354.395 100.864 354.042 99.7074 353.353C98.0201 352.345 96.8235 350.741 96.3438 348.835L57.7044 195.865C56.71 191.93 59.1031 187.921 63.0384 186.927L116.333 173.465C118.239 172.983 120.218 173.274 121.906 174.281C123.593 175.288 124.789 176.893 125.269 178.799L163.909 331.768C164.903 335.704 162.51 339.712 158.575 340.707L105.28 354.169C104.679 354.321 104.069 354.397 103.464 354.397L103.466 354.395ZM97.6672 348.5C98.0587 350.053 99.0329 351.36 100.408 352.18C101.783 353 103.395 353.237 104.948 352.843L158.242 339.382C161.446 338.573 163.396 335.307 162.585 332.101L123.946 179.131C123.554 177.578 122.58 176.272 121.205 175.452C119.83 174.632 118.218 174.395 116.665 174.788L63.3711 188.25C60.1674 189.059 58.2172 192.325 59.0278 195.531L97.6672 348.5Z" fill="#161A23"/>
<path d="M388.276 160.322L376.761 114.748C375.857 111.173 372.226 109.006 368.651 109.91L145.429 166.311C141.853 167.214 139.687 170.845 140.59 174.421L152.105 219.995C153.009 223.57 156.64 225.737 160.215 224.833L383.438 168.432C387.013 167.529 389.179 163.898 388.276 160.322Z" fill="#535353"/>
<path d="M158.528 225.706C157.218 225.706 155.926 225.353 154.77 224.664C153.082 223.657 151.886 222.052 151.404 220.146L139.893 174.57C139.411 172.664 139.701 170.684 140.709 168.997C141.716 167.309 143.32 166.113 145.227 165.633L368.454 109.247C372.389 108.253 376.398 110.646 377.392 114.581L388.904 160.158C389.898 164.093 387.505 168.102 383.572 169.096L160.344 225.482C159.743 225.634 159.133 225.71 158.528 225.71V225.706ZM152.729 219.811C153.538 223.015 156.804 224.965 160.01 224.155L383.237 167.769C386.441 166.96 388.391 163.694 387.58 160.488L376.069 114.912C375.26 111.707 371.992 109.758 368.788 110.569L145.561 166.955C144.008 167.346 142.701 168.32 141.881 169.695C141.062 171.07 140.824 172.682 141.218 174.235L152.729 219.811Z" fill="#161A23"/>
<path d="M162.383 219.6L377.249 162.043L369.191 131.241C369.191 131.241 357.791 136.351 348.226 149.061C338.661 161.771 320.971 163.867 309.835 164.26C298.698 164.653 273.015 154.958 265.81 163.867C258.603 172.778 237.638 194.79 229.253 197.279C220.868 199.768 202.423 194.547 194.006 197.803C182.826 202.126 162.385 219.596 162.385 219.596L162.383 219.6Z" fill="#897E7E"/>
<path d="M257.281 308.204L236.383 225.494C235.48 221.918 231.849 219.752 228.273 220.655L165.291 236.569C161.715 237.472 159.549 241.103 160.452 244.679L181.35 327.389C182.254 330.965 185.885 333.131 189.46 332.227L252.443 316.314C256.019 315.41 258.185 311.779 257.281 308.204Z" fill="#897E7E"/>
<path d="M187.774 333.099C186.463 333.099 185.171 332.747 184.015 332.057C182.327 331.05 181.131 329.445 180.651 327.539L159.758 244.827C158.764 240.892 161.157 236.883 165.092 235.889L228.078 219.979C229.984 219.497 231.964 219.788 233.651 220.795C235.339 221.802 236.535 223.407 237.015 225.313L257.908 308.025C258.902 311.96 256.509 315.969 252.574 316.963L189.588 332.873C188.987 333.026 188.376 333.101 187.772 333.101L187.774 333.099ZM229.891 221.118C229.398 221.118 228.902 221.179 228.413 221.304L165.427 237.214C163.873 237.606 162.567 238.58 161.747 239.955C160.927 241.329 160.69 242.941 161.083 244.495L181.976 327.207C182.368 328.76 183.342 330.067 184.717 330.886C186.092 331.706 187.704 331.943 189.257 331.55L252.243 315.64C255.447 314.831 257.397 311.565 256.586 308.359L235.693 225.647C235.302 224.094 234.328 222.787 232.953 221.967C232.012 221.407 230.96 221.118 229.892 221.118H229.891Z" fill="#161A23"/>
<path d="M243.229 309.14L194.098 321.551C191.619 322.178 189.101 320.674 188.474 318.195L183.592 298.869L171.08 249.336C170.454 246.856 171.957 244.338 174.437 243.711L223.568 231.301C226.047 230.674 228.565 232.178 229.192 234.657L233.629 252.22L246.586 303.516C247.212 305.995 245.709 308.514 243.229 309.14Z" fill="#535353"/>
<path d="M192.966 322.374C190.591 322.374 188.422 320.768 187.814 318.36L170.421 249.501C170.073 248.125 170.283 246.696 171.009 245.478C171.737 244.259 172.895 243.395 174.271 243.048L223.402 230.637C224.779 230.29 226.207 230.5 227.426 231.226C228.644 231.953 229.508 233.111 229.856 234.488L234.293 252.051L247.249 303.347C247.968 306.187 246.24 309.082 243.398 309.8L194.267 322.211C193.832 322.321 193.396 322.372 192.966 322.372V322.374ZM224.711 231.839C224.386 231.839 224.06 231.88 223.737 231.961L174.606 244.371C172.494 244.904 171.211 247.057 171.744 249.167L189.137 318.026C189.67 320.137 191.823 321.42 193.933 320.887L243.064 308.477C245.176 307.944 246.459 305.791 245.926 303.681L232.969 252.385L228.532 234.823C228.273 233.801 227.633 232.939 226.727 232.398C226.108 232.029 225.415 231.839 224.711 231.839Z" fill="#161A23"/>
<path d="M195.396 267.349C200.145 267.349 203.994 263.499 203.994 258.75C203.994 254.001 200.145 250.152 195.396 250.152C190.647 250.152 186.798 254.001 186.798 258.75C186.798 263.499 190.647 267.349 195.396 267.349Z" fill="#897E7E"/>
<path d="M243.229 309.14L194.098 321.551C191.619 322.178 189.101 320.674 188.474 318.195L183.592 298.869C186.217 293.958 191.202 288.126 200.359 286.709C216.868 284.154 214.707 278.454 217.065 266.27C219.423 254.084 229.665 251.332 231.534 251.332C231.885 251.332 232.637 251.67 233.629 252.22L246.586 303.516C247.212 305.996 245.709 308.514 243.229 309.14Z" fill="#B68E57"/>
<path d="M413.765 275.008L285.433 307.422C280.687 308.62 275.868 305.746 274.669 300.998L267.549 272.802C273.469 270.814 277.715 265.169 277.601 258.554C277.461 250.444 270.662 243.906 262.553 244.064C261.801 244.079 261.062 244.151 260.342 244.274L253.844 218.543C253.201 215.996 254.745 213.409 257.291 212.766L312.715 198.766C313.825 206.111 320.347 211.678 328.09 211.275C335.659 210.882 341.76 204.686 342.043 197.112C342.116 195.161 341.811 193.294 341.194 191.573L386.781 180.058C390.126 179.213 393.523 181.24 394.368 184.585L416.184 270.95C416.636 272.738 415.552 274.554 413.763 275.006L413.765 275.008Z" fill="#897E7E"/>
<path d="M283.247 308.379C281.547 308.379 279.871 307.922 278.373 307.027C276.184 305.72 274.632 303.639 274.009 301.167L266.889 272.971C266.801 272.626 266.995 272.271 267.334 272.157C273.173 270.194 277.026 264.733 276.921 258.567C276.857 254.832 275.322 251.33 272.601 248.707C269.876 246.081 266.312 244.675 262.569 244.748C261.86 244.763 261.15 244.829 260.459 244.948C260.108 245.009 259.768 244.789 259.682 244.443L253.184 218.712C252.449 215.804 254.217 212.841 257.125 212.106L312.55 198.106C312.737 198.058 312.934 198.093 313.095 198.2C313.255 198.306 313.364 198.475 313.393 198.666C314.478 205.846 320.784 210.972 328.057 210.595C335.249 210.222 341.093 204.289 341.363 197.088C341.431 195.27 341.159 193.492 340.554 191.805C340.49 191.623 340.504 191.423 340.594 191.254C340.685 191.085 340.843 190.96 341.03 190.914L386.617 179.398C390.323 178.463 394.098 180.716 395.034 184.42L416.85 270.784C417.112 271.826 416.954 272.907 416.405 273.83C415.855 274.752 414.977 275.405 413.936 275.668L285.604 308.082C284.823 308.278 284.034 308.376 283.249 308.376L283.247 308.379ZM268.363 273.238L275.333 300.834C275.868 302.954 277.197 304.736 279.073 305.856C280.95 306.975 283.15 307.297 285.269 306.762L413.602 274.348C414.289 274.173 414.87 273.743 415.232 273.133C415.596 272.523 415.701 271.81 415.526 271.12L393.71 184.756C392.959 181.78 389.928 179.972 386.952 180.723L342.076 192.059C342.574 193.696 342.793 195.402 342.728 197.141C342.433 205.041 336.02 211.551 328.129 211.961C327.853 211.976 327.576 211.983 327.302 211.983C319.926 211.983 313.617 206.831 312.173 199.613L257.46 213.433C255.282 213.983 253.958 216.203 254.508 218.381L260.855 243.513C261.413 243.441 261.978 243.399 262.542 243.388C266.654 243.309 270.559 244.849 273.548 247.729C276.531 250.606 278.215 254.448 278.285 258.548C278.397 265.101 274.436 270.927 268.365 273.242L268.363 273.238Z" fill="#161A23"/>
<path d="M162.004 170.063C165.983 170.063 169.208 166.838 169.208 162.859C169.208 158.881 165.983 155.656 162.004 155.656C158.026 155.656 154.801 158.881 154.801 162.859C154.801 166.838 158.026 170.063 162.004 170.063Z" fill="#161A23"/>
<path d="M58.23 150.703C60.5618 150.703 62.4521 148.813 62.4521 146.481C62.4521 144.149 60.5618 142.259 58.23 142.259C55.8983 142.259 54.0081 144.149 54.0081 146.481C54.0081 148.813 55.8983 150.703 58.23 150.703Z" fill="#B68E57"/>
<path d="M75.1327 146.51C77.4644 146.51 79.3546 144.62 79.3546 142.288C79.3546 139.956 77.4644 138.066 75.1327 138.066C72.8009 138.066 70.9106 139.956 70.9106 142.288C70.9106 144.62 72.8009 146.51 75.1327 146.51Z" fill="#161A23"/>
<path d="M90.9876 142.58C93.3194 142.58 95.2096 140.69 95.2096 138.358C95.2096 136.026 93.3194 134.136 90.9876 134.136C88.6559 134.136 86.7656 136.026 86.7656 138.358C86.7656 140.69 88.6559 142.58 90.9876 142.58Z" fill="#161A23"/>
<path d="M111.629 195.308L111.581 195.119C111.085 193.153 109.089 191.963 107.123 192.459L71.7569 201.395C69.7915 201.892 68.6008 203.888 69.0974 205.853L69.1451 206.042C69.6417 208.007 71.6376 209.198 73.603 208.702L108.969 199.766C110.935 199.269 112.126 197.273 111.629 195.308Z" fill="#897E7E"/>
<path d="M72.6714 209.484C71.8957 209.484 71.1311 209.274 70.4492 208.868C69.4511 208.272 68.7435 207.324 68.4586 206.195L68.4108 206.006C67.8226 203.679 69.2379 201.308 71.5649 200.72L106.933 191.787C108.059 191.502 109.23 191.673 110.23 192.268C111.228 192.864 111.936 193.812 112.221 194.941L112.268 195.13C112.553 196.257 112.382 197.428 111.787 198.428C111.191 199.428 110.243 200.133 109.114 200.418L73.7466 209.351C73.39 209.441 73.0298 209.485 72.6732 209.485L72.6714 209.484ZM69.782 205.861C69.9768 206.635 70.462 207.285 71.1476 207.695C71.8332 208.103 72.6365 208.221 73.4103 208.026L108.778 199.093C109.552 198.898 110.202 198.413 110.612 197.727C111.02 197.042 111.138 196.239 110.943 195.465L110.895 195.275C110.701 194.502 110.215 193.851 109.53 193.441C108.844 193.031 108.041 192.914 107.267 193.11L71.8994 202.043C70.3021 202.446 69.3316 204.074 69.7342 205.671L69.782 205.861Z" fill="#161A23"/>
<path d="M72.4619 220.57L72.4141 220.381C71.9178 218.416 73.1089 216.42 75.0737 215.924L89.7322 211.928C91.697 211.432 93.6931 212.623 94.1894 214.588L94.2372 214.777C94.7335 216.742 93.5424 218.738 91.5776 219.234L76.9191 223.23C74.9543 223.726 72.9581 222.535 72.4619 220.57Z" fill="#B68E57"/>
<path d="M76.6545 235.902L76.6067 235.712C76.1104 233.747 77.3015 231.751 79.2664 231.255L106.99 223.548C108.954 223.052 110.951 224.243 111.447 226.208L111.495 226.397C111.991 228.362 110.8 230.358 108.835 230.854L81.1118 238.561C79.1469 239.058 77.1508 237.867 76.6545 235.902Z" fill="#897E7E"/>
<path d="M80.2167 239.353C78.2629 239.353 76.4891 238.037 75.991 236.069L75.9432 235.879C75.3551 233.552 76.7704 231.181 79.0973 230.593L106.806 222.89C107.949 222.601 109.12 222.772 110.118 223.368C111.116 223.963 111.824 224.912 112.109 226.04L112.156 226.23C112.745 228.557 111.329 230.928 109.002 231.516L81.2956 239.219C80.9354 239.311 80.5733 239.353 80.2185 239.353H80.2167ZM77.3163 235.734C77.7207 237.331 79.3473 238.304 80.9446 237.899L108.651 230.196C110.263 229.788 111.236 228.161 110.831 226.564L110.783 226.375C110.589 225.601 110.103 224.95 109.418 224.541C108.732 224.131 107.929 224.015 107.155 224.21L79.4466 231.913C77.8346 232.321 76.8623 233.948 77.2667 235.545L77.3144 235.734H77.3163Z" fill="#161A23"/>
<path d="M382.044 552.266H100.345C100.042 538.858 104.922 518.61 138.979 525.35C160.199 483.424 221.277 450.299 264.236 512.412C287.817 498.795 317.549 509.822 324.796 531.046C339.758 505.113 383.064 520.983 382.044 552.266Z" fill="#35383F"/>
<path d="M699.789 510.513C699.789 510.513 682.535 496.712 660.451 510.513C658.036 486.014 609.037 432.529 552.1 457.028C545.009 452.543 514.19 434.152 476.185 442.881C470.829 444.11 415.991 457.579 409.587 501.887C406.565 522.795 415.77 540.602 424.503 552.266H710.948C714.429 541.994 715.218 526.538 699.787 510.513H699.789Z" fill="#35383F"/>
<path d="M239.04 374.327C239.04 372.257 253.792 337.061 266.732 337.061C279.672 337.061 266.732 377.836 266.732 377.836L233.778 422.693L230.501 405.612L239.04 374.327Z" fill="#897E7E"/>
<path d="M233.778 423.377C233.728 423.377 233.677 423.371 233.627 423.36C233.363 423.3 233.159 423.09 233.107 422.823L229.83 405.743C229.81 405.64 229.815 405.535 229.841 405.434L238.366 374.203C238.57 372.536 242.34 363.287 247.444 354.571C252.305 346.271 259.599 336.376 266.731 336.376C268.578 336.376 270.057 337.119 271.129 338.582C277.18 346.85 267.784 376.771 267.381 378.041C267.359 378.113 267.324 378.179 267.28 378.24L234.326 423.097C234.195 423.274 233.989 423.377 233.776 423.377H233.778ZM231.201 405.64L234.155 421.03L266.115 377.523C266.732 375.538 275.505 346.872 270.03 339.389C269.219 338.281 268.14 337.742 266.732 337.742C260.273 337.742 253.362 347.197 248.701 355.128C243.26 364.385 239.777 373.428 239.722 374.334C239.722 374.395 239.715 374.446 239.698 374.505L231.199 405.638L231.201 405.64Z" fill="#1A1A1A"/>
<path d="M255.173 422.693C255.173 422.693 261.902 410.271 271.046 409.58C280.19 408.891 284.504 419.759 296.408 421.485C308.313 423.211 318.319 414.583 319.354 408.2C320.389 401.816 311.071 391.81 297.615 389.566C284.157 387.323 264.488 391.808 259.312 398.019C254.136 404.23 248.098 422.345 248.098 422.345L255.173 422.691V422.693Z" fill="#897E7E"/>
<path d="M255.173 423.377C255.162 423.377 255.151 423.377 255.14 423.377L248.065 423.031C247.852 423.02 247.655 422.912 247.536 422.735C247.416 422.559 247.383 422.336 247.451 422.134C247.699 421.39 253.59 403.824 258.788 397.585C264.187 391.108 284.201 386.64 297.727 388.895C304.063 389.952 309.978 392.77 314.382 396.83C318.471 400.602 320.582 404.893 320.028 408.31C319.023 414.514 310.244 422.39 299.477 422.39C298.439 422.39 297.382 422.316 296.31 422.162C290.239 421.281 286.067 418.08 282.385 415.255C278.667 412.4 275.454 409.933 271.098 410.262C262.435 410.917 255.838 422.899 255.774 423.02C255.654 423.241 255.423 423.377 255.173 423.377ZM249.039 421.712L254.785 421.991C256.028 419.835 262.393 409.549 270.995 408.9C275.873 408.533 279.441 411.271 283.218 414.17C286.94 417.026 290.789 419.982 296.507 420.811C301.705 421.565 307.059 420.324 311.581 417.317C315.398 414.778 318.185 411.158 318.683 408.093C319.157 405.175 317.155 401.243 313.459 397.835C309.248 393.952 303.583 391.255 297.505 390.242C291.213 389.193 283.196 389.577 275.509 391.292C268.05 392.957 262.192 395.637 259.84 398.46C255.441 403.739 250.306 418.063 249.041 421.712H249.039Z" fill="#1A1A1A"/>
<path d="M251.462 420.818C251.357 420.818 251.252 420.794 251.153 420.745C250.817 420.574 250.682 420.164 250.853 419.828C253.675 414.264 258.018 409.983 263.76 407.105C268.326 404.816 273.777 403.408 279.964 402.921C290.454 402.096 299.582 404.239 299.672 404.261C300.039 404.349 300.266 404.717 300.177 405.085C300.089 405.452 299.721 405.676 299.354 405.59C299.264 405.568 290.316 403.471 280.036 404.287C266.37 405.371 256.961 410.808 252.07 420.447C251.949 420.684 251.71 420.82 251.46 420.822L251.462 420.818Z" fill="#1A1A1A"/>
<path d="M241.198 406.296C241.147 406.296 241.093 406.29 241.04 406.277C240.672 406.191 240.446 405.822 240.533 405.456C245.328 385.247 258.919 359.486 259.055 359.227C259.231 358.894 259.645 358.768 259.978 358.944C260.31 359.121 260.437 359.534 260.261 359.867C260.125 360.124 246.615 385.732 241.86 405.77C241.785 406.084 241.505 406.296 241.196 406.296H241.198Z" fill="#1A1A1A"/>
<path d="M195.835 420.772C195.835 420.772 185.987 409.582 169.251 418.726C152.516 427.871 136.297 438.395 129.224 427.698C122.15 417 144.234 394.227 165.283 395.951C186.332 397.677 198.237 408.891 202.722 420.969C200.996 424.246 195.835 420.772 195.835 420.772Z" fill="#897E7E"/>
<path d="M137.78 432.892C134.053 432.892 130.926 431.51 128.655 428.075C126.329 424.558 126.785 419.686 129.939 414.354C133.002 409.178 138.284 404.158 144.432 400.581C149.263 397.773 156.81 394.573 165.34 395.271C175.313 396.089 183.82 399.035 190.619 404.027C196.502 408.347 200.91 414.124 203.364 420.732C203.432 420.914 203.419 421.116 203.329 421.287C202.871 422.156 202.176 422.715 201.265 422.945C198.802 423.566 195.591 421.43 195.455 421.34C195.407 421.307 195.363 421.268 195.324 421.226C195.3 421.198 192.881 418.508 188.523 416.94C182.688 414.843 176.315 415.646 169.58 419.326C168.014 420.18 166.432 421.061 164.903 421.91C154.838 427.503 145.14 432.892 137.782 432.892H137.78ZM162.965 396.541C149.829 396.541 136.678 405.645 131.114 415.05C128.241 419.908 127.77 424.266 129.792 427.323C135.854 436.491 149.641 428.83 164.237 420.719C165.77 419.868 167.355 418.987 168.924 418.129C177.793 413.282 184.765 414.122 189.053 415.681C193.367 417.249 195.85 419.785 196.284 420.252C197.129 420.801 199.421 422.005 200.932 421.621C201.368 421.511 201.708 421.276 201.967 420.903C199.34 414.056 190.654 398.717 165.226 396.633C164.474 396.572 163.719 396.541 162.965 396.541Z" fill="#1A1A1A"/>
<path d="M154.126 413.571C153.891 413.571 153.663 413.45 153.536 413.233C153.347 412.907 153.455 412.488 153.781 412.299C153.841 412.264 159.868 408.764 167.665 406.39C178.069 403.219 186.91 403.473 193.231 407.121C193.558 407.31 193.67 407.728 193.481 408.053C193.291 408.38 192.874 408.49 192.549 408.303C184.994 403.941 175.078 405.561 168.092 407.687C160.444 410.014 154.531 413.444 154.472 413.477C154.363 413.54 154.246 413.571 154.128 413.571H154.126Z" fill="#1A1A1A"/>
<path d="M198.927 419.934C198.927 419.934 166.145 404.925 157.692 382.149C149.239 359.376 156.484 352.82 172.358 350.921C188.231 349.022 211.35 365.587 218.596 389.051C225.841 412.516 222.391 422.868 222.391 422.868L198.927 419.934Z" fill="#897E7E"/>
<path d="M222.391 423.55C222.364 423.55 222.334 423.55 222.307 423.544L198.842 420.611C198.772 420.601 198.706 420.583 198.642 420.554C198.559 420.515 190.28 416.697 181.083 410.137C172.564 404.061 161.478 394.314 157.05 382.386C152.817 370.981 152.308 363.274 155.449 358.13C158.126 353.746 163.314 351.314 172.275 350.243C180.311 349.283 190.1 352.816 199.133 359.938C208.668 367.458 215.811 377.725 219.246 388.849C226.473 412.255 223.182 422.653 223.038 423.083C222.944 423.364 222.682 423.55 222.391 423.55ZM199.118 419.269L221.882 422.114C222.432 419.723 224.124 409.266 217.943 389.252C214.589 378.389 207.608 368.36 198.289 361.01C189.668 354.211 180.004 350.693 172.439 351.597C163.934 352.614 159.054 354.849 156.617 358.841C153.751 363.534 154.312 371.081 158.333 381.91C162.64 393.512 173.514 403.059 181.877 409.025C190.446 415.137 198.186 418.831 199.118 419.269Z" fill="#1A1A1A"/>
<path d="M224.807 422.177C224.807 422.177 213.936 401.991 211.005 382.495C208.071 362.999 208.762 328.837 226.36 331.943C243.957 335.05 248.444 354.717 246.201 376.284C243.959 397.85 238.265 419.59 238.265 419.59L224.807 422.178V422.177Z" fill="#897E7E"/>
<path d="M224.807 422.859C224.558 422.859 224.327 422.723 224.205 422.5C224.097 422.298 213.245 401.986 210.328 382.596C209.01 373.834 208.65 364.105 209.341 355.908C209.953 348.657 211.723 338.998 216.682 334.162C219.346 331.567 222.641 330.592 226.477 331.271C234.958 332.767 240.974 338.042 244.358 346.947C247.223 354.487 248.095 364.657 246.88 376.354C244.657 397.725 238.982 419.545 238.925 419.762C238.858 420.015 238.651 420.21 238.393 420.26L224.935 422.848C224.893 422.857 224.849 422.86 224.807 422.86V422.859ZM224.209 332.429C221.689 332.429 219.485 333.335 217.636 335.138C213.949 338.733 211.552 345.953 210.703 356.02C210.021 364.117 210.376 373.728 211.679 382.39C214.324 399.969 223.584 418.346 225.176 421.408L237.711 418.997C238.504 415.881 243.479 395.85 245.523 376.209C246.718 364.723 245.874 354.77 243.084 347.429C239.882 339.003 234.215 334.018 226.242 332.611C225.544 332.487 224.867 332.427 224.211 332.427L224.209 332.429Z" fill="#1A1A1A"/>
<path d="M254.827 419.243C254.827 419.243 265.006 403.024 274.669 391.983C284.332 380.94 292.266 370.072 284.332 364.378C276.395 358.683 256.726 378.352 250.861 385.6C244.996 392.847 233.78 422.693 233.78 422.693L243.097 423.383L254.829 419.241L254.827 419.243Z" fill="#897E7E"/>
<path d="M243.095 424.066C243.078 424.066 243.062 424.066 243.045 424.064L233.728 423.375C233.513 423.358 233.318 423.243 233.203 423.062C233.087 422.881 233.063 422.656 233.138 422.454C233.598 421.232 244.459 392.419 250.328 385.169C255.004 379.392 275.825 357.435 284.727 363.822C286.772 365.289 287.941 367.175 288.201 369.428C288.928 375.736 282.372 384.212 275.182 392.431C265.668 403.305 255.507 419.443 255.404 419.605C255.322 419.736 255.199 419.835 255.053 419.886L243.321 424.027C243.248 424.053 243.17 424.066 243.093 424.066H243.095ZM234.741 422.079L243.001 422.691L254.375 418.677C255.586 416.767 265.148 401.824 274.152 391.533C281.137 383.55 287.51 375.365 286.844 369.585C286.627 367.704 285.675 366.182 283.931 364.931C279.981 362.098 272.671 366.491 267.234 370.674C261.007 375.466 254.656 381.991 251.388 386.026C246.21 392.422 236.621 417.153 234.741 422.077V422.079Z" fill="#1A1A1A"/>
<path d="M243.441 422.342C243.387 422.342 243.334 422.336 243.279 422.322C242.913 422.234 242.687 421.864 242.775 421.498C246.018 408.077 254.456 396.769 260.964 389.647C268.004 381.942 274.379 377.328 274.441 377.282C274.748 377.062 275.174 377.132 275.393 377.439C275.614 377.745 275.544 378.172 275.237 378.391C275.174 378.437 268.898 382.984 261.95 390.592C255.559 397.591 247.273 408.693 244.1 421.82C244.025 422.132 243.746 422.342 243.437 422.342H243.441Z" fill="#1A1A1A"/>
<path d="M231.536 426.138C231.275 426.138 231.026 425.987 230.912 425.733C224.882 412.295 225.145 355.071 225.159 352.641C225.161 352.265 225.472 351.961 225.847 351.963C226.224 351.965 226.529 352.272 226.525 352.651C226.521 353.242 226.249 412.007 232.159 425.176C232.313 425.52 232.159 425.924 231.815 426.079C231.725 426.119 231.629 426.139 231.536 426.139V426.138Z" fill="#1A1A1A"/>
<path d="M210.83 426.31C210.51 426.31 210.225 426.084 210.161 425.759C206.944 409.338 182.888 370.478 182.645 370.088C182.447 369.768 182.544 369.348 182.866 369.147C183.186 368.949 183.607 369.046 183.807 369.368C184.803 370.971 208.238 408.831 211.503 425.498C211.574 425.867 211.333 426.226 210.964 426.299C210.92 426.309 210.876 426.312 210.832 426.312L210.83 426.31Z" fill="#1A1A1A"/>
<path d="M265.006 419.071H192.887L209.562 537.303H248.333L265.006 419.071Z" fill="#897E7E"/>
<path d="M248.333 537.985H209.562C209.222 537.985 208.933 537.735 208.885 537.397L192.212 419.166C192.185 418.971 192.244 418.773 192.372 418.622C192.503 418.473 192.69 418.387 192.887 418.387H265.006C265.205 418.387 265.392 418.473 265.521 418.622C265.651 418.771 265.708 418.969 265.681 419.166L249.008 537.397C248.96 537.733 248.672 537.985 248.332 537.985H248.333ZM210.155 536.619H247.74L264.221 419.754H193.675L210.157 536.619H210.155Z" fill="#1A1A1A"/>
<path d="M263.707 417.804H194.402C190.892 417.804 188.047 420.649 188.047 424.158V424.16C188.047 427.669 190.892 430.514 194.402 430.514H263.707C267.216 430.514 270.061 427.669 270.061 424.16V424.158C270.061 420.649 267.216 417.804 263.707 417.804Z" fill="#B68E57"/>
<path d="M263.707 431.196H194.401C190.521 431.196 187.364 428.038 187.364 424.158C187.364 420.278 190.521 417.12 194.401 417.12H263.707C267.587 417.12 270.745 420.278 270.745 424.158C270.745 428.038 267.587 431.196 263.707 431.196ZM194.401 418.486C191.273 418.486 188.729 421.029 188.729 424.158C188.729 427.286 191.273 429.83 194.401 429.83H263.707C266.835 429.83 269.379 427.286 269.379 424.158C269.379 421.029 266.835 418.486 263.707 418.486H194.401Z" fill="#1A1A1A"/>
<path d="M220.799 528.355H208.81C208.433 528.355 208.128 528.05 208.128 527.673C208.128 527.296 208.433 526.991 208.81 526.991H220.799C221.176 526.991 221.481 527.296 221.481 527.673C221.481 528.05 221.176 528.355 220.799 528.355Z" fill="#1A1A1A"/>
<path d="M209.562 537.303L211.574 551.576H246.319L248.334 537.303H209.562Z" fill="#897E7E"/>
<path d="M246.319 552.259H211.574C211.234 552.259 210.946 552.009 210.898 551.671L208.885 537.397C208.858 537.2 208.917 537.003 209.045 536.852C209.176 536.704 209.363 536.617 209.56 536.617H248.332C248.53 536.617 248.718 536.704 248.846 536.852C248.977 537.001 249.034 537.2 249.006 537.397L246.994 551.671C246.946 552.007 246.657 552.259 246.317 552.259H246.319ZM212.166 550.893H245.725L247.545 537.985H210.345L212.164 550.893H212.166Z" fill="#1A1A1A"/>
<path d="M596.441 502.749C587.249 505.263 566.421 505.683 566.421 505.683C566.248 517.069 568.319 527.421 568.319 527.421C568.319 527.421 589.723 524.278 604.034 530.871C603.825 527.502 599.956 508.212 596.443 502.749H596.441Z" fill="#897E7E"/>
<path d="M604.033 531.555C603.935 531.555 603.838 531.535 603.748 531.493C589.789 525.061 568.63 528.066 568.418 528.098C568.062 528.151 567.722 527.912 567.65 527.555C567.63 527.451 565.568 517.001 565.739 505.672C565.744 505.304 566.04 505.006 566.408 504.999C566.615 504.995 587.257 504.552 596.261 502.089C596.55 502.01 596.855 502.128 597.015 502.378C600.63 508 604.49 527.252 604.713 530.827C604.727 531.066 604.615 531.298 604.417 531.432C604.301 531.511 604.167 531.551 604.031 531.551L604.033 531.555ZM580.309 525.989C580.476 525.989 580.643 525.989 580.812 525.989C587.078 526.023 595.919 526.721 603.227 529.772C602.529 524.615 599.202 508.896 596.122 503.538C587.587 505.712 570.705 506.254 567.095 506.348C567.023 515.698 568.446 524.309 568.871 526.658C570.47 526.46 574.859 525.988 580.309 525.988V525.989Z" fill="#1A1A1A"/>
<path d="M462.643 282.081C462.643 282.081 486.453 325.56 513.626 330.993C528.119 315.206 527.601 310.808 527.601 310.808C527.601 310.808 495.768 303.303 480.758 274.317C467.3 265.259 462.643 282.081 462.643 282.081Z" fill="#897E7E"/>
<path d="M513.626 331.675C513.582 331.675 513.536 331.671 513.492 331.662C507.186 330.401 500.55 327.011 493.77 321.589C488.375 317.275 482.872 311.669 477.413 304.927C468.133 293.463 462.104 282.516 462.043 282.408C461.959 282.251 461.937 282.069 461.985 281.897C462.076 281.562 464.317 273.693 470.237 271.504C473.478 270.306 477.147 271.061 481.139 273.749C481.234 273.813 481.312 273.899 481.363 274C489.039 288.822 501.249 297.862 510.14 302.834C519.778 308.225 527.676 310.122 527.755 310.14C528.035 310.206 528.242 310.44 528.277 310.725C528.334 311.206 528.419 315.884 514.126 331.452C513.996 331.594 513.812 331.673 513.623 331.673L513.626 331.675ZM463.381 282.001C464.332 283.691 470.057 293.673 478.488 304.086C486.868 314.434 499.692 327.322 513.384 330.245C524.585 317.996 526.518 312.781 526.851 311.316C524.811 310.763 517.756 308.657 509.474 304.027C503.716 300.806 498.49 297.011 493.943 292.743C488.296 287.446 483.684 281.404 480.233 274.785C476.683 272.436 473.483 271.762 470.715 272.784C466.014 274.519 463.812 280.656 463.38 282.001H463.381Z" fill="#1A1A1A"/>
<path d="M477.615 284.467L357.221 328.181C352.944 329.734 348.217 327.525 346.664 323.247L337.676 298.491C343.291 296.406 347.29 291.001 347.29 284.66C347.29 276.513 340.688 269.907 332.538 269.907C330.809 269.907 329.147 270.205 327.603 270.755L318.615 245.998C317.062 241.721 319.271 236.993 323.548 235.44L369.47 218.767C371.782 223.901 376.938 227.472 382.932 227.472C391.082 227.472 397.684 220.868 397.684 212.72C397.684 211.334 397.493 209.993 397.135 208.719L443.944 191.724C448.221 190.171 452.949 192.38 454.502 196.658L482.55 273.907C484.104 278.184 481.894 282.912 477.617 284.465L477.615 284.467Z" fill="#535353"/>
<path d="M354.418 329.359C350.77 329.359 347.338 327.104 346.022 323.481L337.034 298.724C336.905 298.371 337.087 297.982 337.438 297.851C342.923 295.816 346.608 290.514 346.608 284.659C346.608 276.901 340.297 270.591 332.54 270.591C330.923 270.591 329.34 270.863 327.835 271.398C327.482 271.523 327.092 271.341 326.963 270.988L317.975 246.231C317.161 243.991 317.27 241.568 318.279 239.409C319.288 237.249 321.076 235.613 323.317 234.799L369.239 218.126C369.575 218.005 369.948 218.161 370.093 218.488C372.365 223.532 377.403 226.79 382.932 226.79C390.69 226.79 397 220.479 397 212.722C397 211.426 396.824 210.141 396.477 208.906C396.379 208.562 396.565 208.202 396.901 208.079L443.711 191.084C448.335 189.406 453.463 191.801 455.143 196.426L483.192 273.673C484.006 275.914 483.898 278.337 482.889 280.496C481.88 282.656 480.091 284.292 477.851 285.106L357.457 328.82C356.455 329.184 355.429 329.357 354.42 329.357L354.418 329.359ZM338.543 298.882L347.305 323.016C347.994 324.913 349.38 326.429 351.209 327.284C353.038 328.138 355.089 328.23 356.988 327.541L477.382 283.827C479.279 283.138 480.795 281.752 481.65 279.923C482.504 278.094 482.596 276.043 481.907 274.144L453.858 196.896C452.436 192.98 448.093 190.95 444.176 192.371L397.949 209.154C398.224 210.32 398.364 211.518 398.364 212.726C398.364 221.236 391.44 228.16 382.93 228.16C377.078 228.16 371.725 224.831 369.119 219.626L323.782 236.087C321.885 236.777 320.369 238.162 319.514 239.991C318.659 241.82 318.567 243.873 319.257 245.77L328.018 269.902C329.476 269.455 330.994 269.229 332.538 269.229C341.048 269.229 347.972 276.153 347.972 284.663C347.972 290.859 344.21 296.489 338.541 298.884L338.543 298.882Z" fill="#161A23"/>
<path d="M537.664 214.793L532.402 214.873C532.402 214.873 521.258 226.158 532.801 238.769C544.706 237.922 545.419 221.532 545.419 221.532L537.664 214.793Z" fill="#161A23"/>
<path d="M545.386 290.431L544.947 274.558C544.947 274.558 531.251 277.07 528.908 257.1C527.73 247.062 540.881 219.458 544.333 218.198C547.785 216.937 574.6 206.219 581.123 230.555C583.351 242.118 575.052 255.047 572.793 266.257C570.536 277.469 571.9 289.547 571.9 289.547L545.386 290.431Z" fill="#897E7E"/>
<path d="M545.386 291.113C545.213 291.113 545.044 291.047 544.919 290.927C544.787 290.802 544.71 290.631 544.704 290.449L544.285 275.317C542.721 275.425 539.083 275.331 535.591 272.753C531.571 269.782 529.094 264.542 528.23 257.177C527.476 250.751 532.193 238.888 534.257 234.086C537.433 226.695 541.866 218.368 544.098 217.554C544.191 217.519 544.303 217.479 544.432 217.431C558.379 212.251 566.871 214.036 571.536 216.444C576.55 219.032 579.996 223.719 581.779 230.375C581.783 230.391 581.787 230.406 581.79 230.422C583.274 238.12 580.245 246.298 577.317 254.207C575.734 258.478 574.24 262.513 573.46 266.389C571.251 277.361 572.562 289.348 572.576 289.468C572.598 289.657 572.539 289.846 572.415 289.99C572.29 290.133 572.111 290.22 571.92 290.225L545.406 291.109C545.406 291.109 545.392 291.109 545.384 291.109L545.386 291.113ZM544.947 273.874C545.103 273.874 545.256 273.927 545.379 274.026C545.533 274.151 545.625 274.339 545.63 274.537L546.051 289.725L571.152 288.887C570.904 286.082 570.19 275.73 572.126 266.119C572.927 262.138 574.44 258.054 576.041 253.731C578.901 246.007 581.858 238.021 580.46 230.704C578.778 224.449 575.567 220.058 570.915 217.655C566.494 215.372 558.394 213.702 544.912 218.708C544.781 218.758 544.665 218.8 544.57 218.835C543.269 219.311 539.319 225.768 535.514 234.624C531.307 244.415 529.092 252.786 529.588 257.017C530.404 263.978 532.691 268.896 536.383 271.637C540.416 274.629 544.783 273.89 544.827 273.883C544.868 273.876 544.908 273.872 544.949 273.872L544.947 273.874Z" fill="#1A1A1A"/>
<path d="M544.946 275.239C544.61 275.239 544.318 274.991 544.27 274.649C544.219 274.276 544.481 273.931 544.855 273.881C544.926 273.872 552.128 272.879 555.727 271.545C556.08 271.414 556.473 271.595 556.603 271.947C556.734 272.3 556.554 272.694 556.201 272.824C552.462 274.21 545.342 275.192 545.04 275.232C545.009 275.236 544.978 275.238 544.946 275.238V275.239Z" fill="#1A1A1A"/>
<path d="M378.015 321.073C378.015 321.073 446.166 379.389 490.678 365.242C486.192 337.636 485.848 334.186 485.848 334.186C485.848 334.186 473.943 340.397 452.893 334.013C431.844 327.63 415.109 324.696 410.795 319.52C404.239 311.238 405.187 313.137 404.325 306.667C403.463 300.197 404.325 299.592 401.048 299.592C397.77 299.592 395.872 307.701 396.131 312.445L396.045 314.688L378.015 321.071V321.073Z" fill="#897E7E"/>
<path d="M475.522 368.131C468.938 368.131 461.784 367.076 454.116 364.967C442.871 361.876 430.49 356.523 417.318 349.057C394.918 336.362 377.743 321.738 377.572 321.593C377.387 321.435 377.3 321.189 377.344 320.95C377.388 320.711 377.558 320.512 377.787 320.432L395.381 314.202L395.449 312.454C395.263 308.887 396.295 302.61 398.726 300.042C399.436 299.292 400.219 298.914 401.05 298.914C402.3 298.914 403.303 298.978 403.895 299.781C404.375 300.432 404.465 301.395 404.628 303.145C404.713 304.049 404.818 305.176 405.005 306.58C405.104 307.328 405.18 307.96 405.246 308.517C405.522 310.843 406.882 313.532 409.326 316.585C409.904 317.305 410.567 318.134 411.333 319.101C414.256 322.606 423.915 325.234 436.143 328.563C441.24 329.951 447.017 331.522 453.094 333.364C463.808 336.614 472.059 336.5 477.093 335.833C482.545 335.11 485.504 333.599 485.534 333.585C485.736 333.48 485.975 333.484 486.173 333.59C486.372 333.699 486.506 333.897 486.528 334.123C486.532 334.158 486.94 337.972 491.353 365.137C491.406 365.471 491.208 365.795 490.886 365.897C486.19 367.39 481.058 368.136 475.522 368.136V368.131ZM379.372 321.318C383.198 324.481 398.642 336.904 418.009 347.879C438.338 359.398 467.238 371.619 489.908 364.765C486.585 344.295 485.58 337.373 485.285 335.186C484.001 335.711 481.328 336.636 477.354 337.171C472.171 337.869 463.685 338.001 452.695 334.667C446.637 332.829 440.871 331.261 435.783 329.877C422.834 326.354 413.48 323.808 410.271 319.959C409.495 318.98 408.834 318.152 408.258 317.436C404.421 312.644 404.347 312.552 403.888 308.677C403.821 308.124 403.748 307.499 403.649 306.76C403.457 305.33 403.351 304.189 403.266 303.272C403.134 301.865 403.048 300.935 402.794 300.59C402.625 300.36 402.167 300.277 401.048 300.277C400.605 300.277 400.156 300.515 399.715 300.98C397.807 302.994 396.609 308.677 396.813 312.41C396.813 312.431 396.813 312.453 396.813 312.475L396.727 314.717C396.716 314.996 396.535 315.241 396.273 315.335L379.372 321.319V321.318Z" fill="#1A1A1A"/>
<path d="M484.813 495.331C492.404 493.605 548.65 493.261 575.219 504.302C577.289 511.893 572.804 531.217 572.804 531.217C572.804 531.217 497.235 540.879 460.658 545.364C424.08 549.851 418.215 541.569 412.348 524.315C388.884 469.795 488.607 436.668 489.987 435.633L541.401 490.844L533.81 493.95L484.811 495.331H484.813Z" fill="#897E7E"/>
<path d="M443.703 547.248C435.311 547.248 429.192 546.044 424.661 543.592C417.335 539.626 414.353 532.327 411.71 524.561C407.036 513.687 406.9 502.847 411.304 492.337C416.991 478.766 430.111 465.768 450.302 453.701C466.252 444.167 481.74 438.147 487.57 435.881C488.57 435.493 489.436 435.157 489.61 435.063C489.886 434.879 490.257 434.922 490.487 435.168L541.901 490.379C542.054 490.543 542.116 490.772 542.068 490.991C542.02 491.21 541.868 491.392 541.66 491.476L534.069 494.583C533.72 494.724 533.321 494.559 533.179 494.21C533.036 493.86 533.203 493.461 533.553 493.32L540.23 490.589L489.825 436.464C489.493 436.602 488.96 436.809 488.066 437.157C482.266 439.412 466.855 445.4 451.004 454.875C431.07 466.79 418.138 479.571 412.565 492.868C408.306 503.03 408.444 513.52 412.977 524.048C412.984 524.065 412.99 524.082 412.995 524.098C418.504 540.3 423.428 549.244 460.575 544.69C495.224 540.44 565.757 531.432 572.243 530.603C572.89 527.679 576.28 511.691 574.644 504.804C560.372 498.97 538.637 496.639 522.861 495.711C504.122 494.608 488.559 495.18 484.966 495.998C484.598 496.083 484.232 495.851 484.148 495.483C484.063 495.116 484.295 494.75 484.662 494.665C492.094 492.976 548.463 492.443 575.482 503.672C575.677 503.753 575.824 503.92 575.879 504.122C577.971 511.792 573.655 530.575 573.469 531.371C573.405 531.649 573.174 531.858 572.89 531.893C572.135 531.991 496.902 541.607 460.74 546.041C454.208 546.842 448.572 547.246 443.701 547.246L443.703 547.248ZM489.603 435.07C489.594 435.078 489.585 435.083 489.579 435.089C489.586 435.083 489.596 435.078 489.603 435.07Z" fill="#1A1A1A"/>
<path d="M435.642 511.375L435.123 526.214L456.862 525.868C456.862 525.868 456.173 512.41 456.689 504.473C445.992 502.747 435.64 511.375 435.64 511.375H435.642Z" fill="#897E7E"/>
<path d="M435.123 526.895C434.94 526.895 434.765 526.822 434.636 526.691C434.506 526.557 434.434 526.377 434.441 526.19L434.96 511.351C434.967 511.156 435.055 510.974 435.204 510.851C435.636 510.491 445.92 502.047 456.799 503.8C457.147 503.856 457.395 504.168 457.373 504.519C456.864 512.325 457.538 525.699 457.546 525.833C457.555 526.019 457.489 526.199 457.362 526.335C457.235 526.471 457.059 526.548 456.875 526.552L435.136 526.897C435.136 526.897 435.129 526.897 435.125 526.897L435.123 526.895ZM436.313 511.713L435.831 525.519L456.147 525.197C456.018 522.401 455.59 511.934 455.97 505.061C446.789 503.927 437.858 510.507 436.313 511.713Z" fill="#1A1A1A"/>
<path d="M557.986 244.151C557.986 244.151 571.53 243.221 571.436 249.432C571.343 255.642 562.627 257.355 562.103 262.015C561.579 266.672 564.505 271.163 572.186 269.189C579.868 267.215 590.223 263.777 589.889 256.359C589.554 248.939 586.192 246.088 590.17 239.365C594.147 232.641 591.227 223.234 579.934 217.095C575.105 214.931 573.041 210.702 570.718 206.471C568.395 202.242 565.897 199.823 559.425 200.675C552.953 201.53 552.429 206.101 549.064 207.476C541.043 206.603 535.346 208.234 532.404 214.873C529.461 221.512 541.625 221.355 541.625 221.355C541.625 221.355 541.945 239.989 557.986 244.151Z" fill="#161A23"/>
<path d="M537.953 416.396L534.071 422.607C534.071 422.607 557.276 430.457 572.631 426.661C587.986 422.866 589.332 418.615 589.332 418.615L589.885 413.205L548.305 412.86L537.953 416.396Z" fill="#161A23"/>
<path d="M540.022 334.186C537.262 337.981 508.621 357.65 489.643 368.864C478.257 359.72 479.81 334.529 479.81 334.529C479.81 334.529 524.84 297.263 544.682 292.431C564.524 287.6 595.234 289.843 597.476 317.792C599.718 345.741 589.885 413.203 589.885 413.203C589.885 413.203 560.899 423.209 536.572 420.794C518.111 409.58 512.762 406.128 512.762 406.128C512.762 406.128 509.123 378.168 507.605 358.354L540.022 334.182V334.186Z" fill="#B68E57"/>
<path d="M544.48 421.85C541.802 421.85 539.127 421.736 536.506 421.475C536.405 421.465 536.306 421.432 536.219 421.379C517.962 410.288 512.448 406.739 512.395 406.704C512.226 406.596 512.113 406.417 512.088 406.219C512.051 405.941 508.485 378.45 506.961 358.871C500.942 362.777 495.001 366.491 489.993 369.452C489.748 369.598 489.439 369.576 489.217 369.397C484.353 365.491 481.179 358.415 479.78 348.363C478.747 340.941 479.124 334.552 479.128 334.489C479.139 334.3 479.229 334.125 479.374 334.006C479.486 333.912 490.807 324.562 504.405 314.741C522.708 301.524 536.205 293.795 544.52 291.771C551.639 290.038 559.392 289.387 566.349 289.938C574.743 290.604 581.695 292.89 587.01 296.734C593.673 301.551 597.425 308.62 598.156 317.743C600.38 345.449 590.659 412.63 590.559 413.306C590.523 413.558 590.348 413.77 590.107 413.852C590.034 413.878 582.704 416.392 572.493 418.576C565.014 420.175 554.725 421.853 544.478 421.853L544.48 421.85ZM536.795 420.131C559.138 422.3 585.735 413.856 589.269 412.691C590.087 406.967 598.915 344.266 596.796 317.849C596.098 309.142 592.535 302.41 586.211 297.838C574.909 289.668 557.431 290.032 544.844 293.096C526.108 297.658 483.997 331.976 480.477 334.866C480.358 337.66 479.758 359.514 489.71 368.032C508.625 356.816 536.835 337.41 539.471 333.783C539.693 333.478 540.12 333.41 540.425 333.633C540.73 333.855 540.798 334.281 540.576 334.586C538.473 337.478 523.274 348.238 508.217 358.053C508.255 358.13 508.279 358.215 508.287 358.305C509.7 376.749 512.996 402.583 513.4 405.726C514.685 406.544 520.842 410.439 536.795 420.131Z" fill="#1A1A1A"/>
<path d="M536.572 420.796C502.756 392.501 448.581 377.317 425.117 387.325C401.652 397.332 411.659 445.987 433.399 513.274C448.927 517.069 461.348 508.098 461.348 508.098L458.933 449.437C458.933 449.437 496.2 498.092 543.474 495.675C590.749 493.259 583.156 465.654 585.573 453.921C587.988 442.189 589.334 418.614 589.334 418.614C589.334 418.614 556.414 431.321 536.574 420.796H536.572Z" fill="#897E7E"/>
<path d="M441.167 514.884C438.667 514.884 436.002 514.612 433.236 513.936C433.006 513.879 432.82 513.708 432.748 513.482C420.202 474.644 413.686 448.554 411.627 428.887C409.161 405.342 413.486 391.54 424.849 386.695C436.336 381.797 455.402 382.651 477.156 389.04C499.196 395.514 520.988 406.879 536.957 420.225C547.022 425.531 560.614 424.654 570.253 422.982C580.779 421.155 589.006 418.008 589.089 417.975C589.306 417.89 589.55 417.923 589.736 418.059C589.924 418.195 590.028 418.418 590.015 418.649C590.003 418.886 588.639 442.41 586.242 454.056C585.86 455.908 585.731 458.256 585.593 460.739C585.22 467.451 584.759 475.807 579.311 482.81C572.927 491.019 561.217 495.447 543.511 496.353C532.628 496.908 521.372 494.803 510.06 490.096C501.032 486.337 491.946 480.921 483.058 473.997C471.173 464.738 462.791 455.19 459.702 451.468L462.032 508.065C462.041 508.295 461.935 508.511 461.749 508.646C461.619 508.739 458.505 510.967 453.423 512.748C450.317 513.836 446.063 514.88 441.167 514.88V514.884ZM433.93 512.699C441.621 514.481 448.49 513.029 452.927 511.48C456.963 510.07 459.766 508.333 460.652 507.747L458.251 449.464C458.239 449.166 458.42 448.896 458.702 448.793C458.981 448.692 459.295 448.784 459.476 449.019C459.569 449.141 468.932 461.27 483.923 472.942C497.718 483.683 519.241 496.228 543.439 494.991C560.724 494.108 572.106 489.85 578.232 481.974C583.417 475.307 583.867 467.188 584.229 460.665C584.369 458.129 584.503 455.734 584.904 453.782C586.995 443.627 588.297 424.29 588.589 419.611C586.075 420.502 579.035 422.842 570.512 424.322C564.244 425.411 558.405 425.832 553.155 425.573C546.555 425.25 540.87 423.844 536.254 421.395C536.212 421.373 536.174 421.346 536.137 421.316C520.302 408.068 498.665 396.78 476.773 390.349C455.32 384.046 436.59 383.171 425.387 387.95C414.647 392.531 410.593 405.875 412.988 428.746C415.032 448.251 421.492 474.157 433.932 512.697L433.93 512.699Z" fill="#1A1A1A"/>
<path d="M460.314 541.914C460.314 548.47 452.55 551.575 452.55 551.575H393.541C393.541 551.575 392.161 549.503 391.301 546.397C390.437 543.293 388.711 540.012 395.96 538.115C396.072 538.085 396.184 538.054 396.306 538.017C401.721 536.426 416.927 528.388 425.652 523.66C429.449 521.6 432.019 520.17 432.019 520.17C441.853 526.555 458.932 522.414 458.932 522.414C458.932 522.414 460.314 535.356 460.314 541.912V541.914Z" fill="#161A23"/>
<path d="M425.652 523.665C422.886 525.163 419.469 526.993 415.919 528.848L427.251 535.891L435.316 530.664C432.256 528.453 428.699 525.879 425.652 523.666V523.665Z" fill="#B68E57"/>
<path d="M427.251 536.572C427.126 536.572 427.001 536.537 426.891 536.469L415.559 529.425C415.352 529.297 415.228 529.065 415.238 528.821C415.247 528.576 415.386 528.354 415.603 528.242C418.625 526.665 421.897 524.922 425.327 523.064C425.558 522.939 425.839 522.957 426.053 523.112C428.596 524.959 431.848 527.313 435.715 530.107C435.897 530.24 436.004 530.453 435.998 530.677C435.993 530.903 435.877 531.111 435.688 531.232L427.622 536.459C427.51 536.533 427.38 536.57 427.251 536.57V536.572ZM417.294 528.898L427.244 535.081L434.109 530.631C430.764 528.214 427.907 526.144 425.599 524.47C422.694 526.041 419.908 527.527 417.294 528.898Z" fill="#1A1A1A"/>
<path d="M647.684 542.087C646.822 539.326 609.21 498.781 607.657 497.229C606.104 495.676 602.308 495.849 596.787 498.783C595.677 499.373 593.783 500.005 591.471 500.637C594.984 506.1 598.426 513.033 599.213 520.062C599.739 524.758 600.071 528.809 600.281 532.178C601.143 532.575 601.994 533.001 602.827 533.463C617.492 541.572 633.02 551.06 633.02 551.06L642.51 551.579C642.51 551.579 648.548 544.849 647.686 542.089L647.684 542.087Z" fill="#161A23"/>
<path d="M604.032 536.76C606.464 538.755 609.451 541.227 612.508 543.815L614.748 530.662L606.861 525.168C605.97 528.839 604.931 533.101 604.032 536.759V536.76Z" fill="#B68E57"/>
<path d="M612.508 544.497C612.348 544.497 612.192 544.442 612.067 544.335C609.464 542.133 606.615 539.762 603.599 537.288C603.395 537.121 603.306 536.853 603.369 536.597C604.134 533.487 605.084 529.587 606.196 525.006C606.249 524.788 606.407 524.609 606.617 524.529C606.826 524.449 607.063 524.477 607.249 524.608L615.136 530.1C615.353 530.25 615.463 530.513 615.419 530.774L613.179 543.927C613.138 544.168 612.969 544.37 612.739 544.455C612.664 544.482 612.583 544.497 612.506 544.497H612.508ZM604.799 536.505C607.35 538.599 609.778 540.619 612.035 542.521L614.002 530.975L607.289 526.299C606.326 530.263 605.49 533.691 604.799 536.505Z" fill="#1A1A1A"/>
<path d="M542.859 287.666L542.64 293.013L579.381 293.429C574.447 284.22 574.958 280.923 574.958 280.923C574.958 280.923 545.623 284.45 542.859 287.666Z" fill="#897E7E"/>
<path d="M579.381 294.111H579.373L542.633 293.695C542.449 293.693 542.272 293.616 542.146 293.482C542.019 293.348 541.951 293.168 541.958 292.984L542.177 287.637C542.182 287.483 542.241 287.336 542.34 287.22C542.807 286.676 544.23 285.021 559.833 282.413C567.441 281.141 574.804 280.252 574.877 280.243C575.089 280.217 575.302 280.292 575.449 280.447C575.598 280.601 575.666 280.814 575.633 281.026C575.631 281.048 575.286 284.338 579.982 293.103C580.096 293.317 580.088 293.574 579.963 293.78C579.84 293.984 579.618 294.109 579.379 294.109L579.381 294.111ZM543.351 292.339L578.243 292.732C575.052 286.556 574.394 283.156 574.284 281.693C563.25 283.051 546.042 285.83 543.531 287.96L543.353 292.339H543.351Z" fill="#1A1A1A"/>
<path d="M540.066 67.8803H523.675L525.393 48.7297H538.348L540.066 67.8803Z" fill="#161A23"/>
<path d="M603.391 98.8935H583.446L585.536 75.5889H601.301L603.391 98.8935Z" fill="#161A23"/>
<path d="M710.95 552.948H84.9881C84.6113 552.948 84.3062 552.643 84.3062 552.266C84.3062 551.89 84.6113 551.584 84.9881 551.584H710.95C711.326 551.584 711.631 551.89 711.631 552.266C711.631 552.643 711.326 552.948 710.95 552.948Z" fill="#1A1A1A"/>
<path d="M593.419 130.596C604.638 130.596 613.732 121.854 613.732 111.071C613.732 100.287 604.638 91.5452 593.419 91.5452C582.201 91.5452 573.107 100.287 573.107 111.071C573.107 121.854 582.201 130.596 593.419 130.596Z" fill="#B68E57"/>
<path d="M531.871 93.9346C541.09 93.9346 548.564 86.7505 548.564 77.8884C548.564 69.0264 541.09 61.8423 531.871 61.8423C522.651 61.8423 515.177 69.0264 515.177 77.8884C515.177 86.7505 522.651 93.9346 531.871 93.9346Z" fill="#535353"/>
<path d="M330.56 504.245C341.799 504.245 350.909 495.135 350.909 483.896C350.909 472.658 341.799 463.547 330.56 463.547C319.322 463.547 310.211 472.658 310.211 483.896C310.211 495.135 319.322 504.245 330.56 504.245Z" fill="#35383F"/>
<path d="M476.178 334.221C476.178 334.221 477.683 368.405 486.855 374.564C497.554 368.386 497.554 367.454 497.554 367.454C497.554 367.454 486.688 331.576 486.688 328.694C479.244 329.864 474.777 331.743 476.18 334.222L476.178 334.221Z" fill="#897E7E"/>
<path d="M486.855 375.246C486.723 375.246 486.589 375.207 486.475 375.13C477.345 369 475.638 337.222 475.503 334.404C475.165 333.717 475.15 333.015 475.467 332.36C476.367 330.497 480.106 329.035 486.579 328.019C486.776 327.988 486.978 328.045 487.129 328.175C487.28 328.306 487.368 328.495 487.368 328.693C487.368 330.734 493.849 352.873 498.205 367.256C498.225 367.32 498.235 367.386 498.235 367.454C498.235 367.757 498.111 368.121 496.624 369.239C494.829 370.59 491.654 372.58 487.195 375.156C487.089 375.216 486.971 375.247 486.853 375.247L486.855 375.246ZM486.098 329.478C478.531 330.745 477.001 332.32 476.696 332.952C476.599 333.153 476.522 333.439 476.772 333.882C476.825 333.976 476.854 334.081 476.86 334.189C476.875 334.524 478.411 367.228 486.894 373.749C494.413 369.391 496.328 367.798 496.799 367.322C495.391 362.67 487.078 335.084 486.096 329.476L486.098 329.478Z" fill="#1A1A1A"/>
<path d="M160.657 208.97C160.466 208.97 160.277 208.891 160.141 208.735C159.892 208.45 159.924 208.02 160.209 207.772C160.247 207.739 164.068 204.425 169.362 200.479C169.665 200.253 170.092 200.315 170.318 200.618C170.544 200.922 170.481 201.348 170.178 201.574C164.929 205.487 161.142 208.77 161.105 208.803C160.977 208.915 160.817 208.97 160.657 208.97ZM179.352 195.113C179.124 195.113 178.901 194.999 178.773 194.792C178.572 194.472 178.67 194.051 178.99 193.851C182.846 191.443 186.34 189.603 189.373 188.381C189.722 188.239 190.121 188.41 190.261 188.759C190.402 189.108 190.231 189.507 189.882 189.647C186.923 190.84 183.5 192.643 179.712 195.009C179.6 195.078 179.475 195.112 179.352 195.112V195.113ZM223.95 191.163C223.608 191.163 223.314 190.908 223.274 190.561C223.23 190.186 223.496 189.847 223.871 189.801C227.158 189.412 230.016 187.82 233.429 184.478C233.699 184.214 234.131 184.219 234.394 184.489C234.659 184.76 234.653 185.192 234.383 185.454C230.738 189.024 227.641 190.73 224.031 191.158C224.003 191.162 223.976 191.163 223.95 191.163ZM212.442 190.026C212.402 190.026 212.361 190.022 212.321 190.015C209.281 189.465 205.496 188.781 200.892 188.235C200.517 188.191 200.25 187.851 200.294 187.476C200.339 187.101 200.679 186.833 201.054 186.879C205.698 187.43 209.505 188.118 212.563 188.669C212.935 188.735 213.181 189.092 213.115 189.463C213.056 189.794 212.767 190.026 212.444 190.026H212.442ZM241.566 176.922C241.415 176.922 241.263 176.873 241.138 176.77C240.844 176.533 240.8 176.102 241.037 175.81C242.22 174.347 243.391 172.867 244.522 171.436C245.816 169.798 247.04 168.252 248.28 166.727C248.517 166.434 248.948 166.39 249.242 166.629C249.534 166.868 249.578 167.298 249.339 167.59C248.104 169.107 246.883 170.651 245.591 172.285C244.457 173.718 243.285 175.202 242.097 176.672C241.963 176.84 241.764 176.926 241.566 176.926V176.922ZM309.09 159.437C306.42 159.437 303.641 159.225 300.595 158.79C300.222 158.737 299.963 158.391 300.016 158.018C300.069 157.645 300.417 157.386 300.788 157.439C303.769 157.865 306.484 158.071 309.09 158.071C310.149 158.071 311.202 158.036 312.222 157.966C312.599 157.941 312.924 158.226 312.95 158.601C312.976 158.977 312.691 159.303 312.316 159.328C311.265 159.4 310.178 159.437 309.09 159.437ZM256.636 159.271C256.45 159.271 256.267 159.196 256.132 159.049C255.879 158.77 255.897 158.34 256.177 158.084C259.667 154.899 262.992 152.927 266.339 152.055C266.705 151.96 267.076 152.178 267.172 152.544C267.267 152.91 267.049 153.281 266.683 153.377C263.556 154.191 260.421 156.06 257.097 159.093C256.967 159.213 256.802 159.271 256.638 159.271H256.636ZM323.536 156.783C323.271 156.783 323.021 156.628 322.909 156.371C322.758 156.025 322.918 155.623 323.263 155.472C326.484 154.075 329.605 152.057 332.803 149.304C333.09 149.057 333.52 149.091 333.766 149.375C334.012 149.66 333.979 150.092 333.694 150.339C330.39 153.184 327.155 155.274 323.806 156.726C323.717 156.764 323.626 156.783 323.534 156.783H323.536ZM289.309 156.52C289.258 156.52 289.204 156.514 289.151 156.501C288.298 156.299 287.447 156.095 286.598 155.891C283.72 155.2 280.744 154.485 277.856 153.914C277.487 153.84 277.246 153.482 277.32 153.112C277.393 152.743 277.752 152.502 278.121 152.575C281.036 153.153 284.025 153.869 286.916 154.564C287.763 154.768 288.613 154.972 289.464 155.173C289.831 155.259 290.057 155.627 289.971 155.994C289.897 156.309 289.616 156.52 289.307 156.52H289.309ZM341.359 142.202C341.201 142.202 341.043 142.146 340.914 142.036C340.627 141.79 340.596 141.36 340.841 141.073C342.302 139.375 343.686 137.68 345.024 136.042C346.151 134.664 347.215 133.362 348.261 132.135C348.505 131.848 348.935 131.813 349.224 132.057C349.511 132.302 349.546 132.732 349.301 133.02C348.265 134.237 347.204 135.535 346.083 136.908C344.739 138.551 343.35 140.251 341.877 141.964C341.743 142.121 341.552 142.202 341.359 142.202ZM357.481 125.696C357.232 125.696 356.993 125.56 356.872 125.325C356.701 124.988 356.834 124.578 357.168 124.406C360.954 122.468 364.561 122.062 366.917 122.062C367.562 122.062 368.195 122.091 368.797 122.15C369.172 122.187 369.446 122.522 369.409 122.896C369.373 123.271 369.038 123.547 368.663 123.509C368.104 123.453 367.518 123.426 366.917 123.426C364.71 123.426 361.333 123.806 357.789 125.62C357.69 125.672 357.583 125.696 357.479 125.696H357.481Z" fill="#161A23"/>
<g clip-path="url(#clip1_1397_8054)">
<path d="M401.982 267.084C401.312 267.331 400.574 267.325 399.908 267.067C399.242 266.809 398.693 266.316 398.365 265.681C398.037 265.046 397.952 264.314 398.127 263.621C398.301 262.928 398.723 262.323 399.312 261.92C399.313 261.919 399.313 261.919 399.313 261.919L400.148 261.344L399.301 260.785C399.301 260.785 399.301 260.785 399.301 260.785C398.414 260.207 397.739 259.356 397.376 258.362L397.376 258.361C396.955 257.186 396.995 255.895 397.487 254.747C397.979 253.6 398.886 252.681 400.027 252.174C401.168 251.668 402.458 251.611 403.639 252.016C404.82 252.421 405.804 253.258 406.394 254.358L406.394 254.359L406.637 254.822L407.146 254.708C408.23 254.465 409.364 254.595 410.365 255.076C411.367 255.557 412.177 256.362 412.664 257.361C413.152 258.359 413.288 259.492 413.052 260.578C412.822 261.636 412.251 262.588 411.428 263.288L411.922 264.637C413.022 263.84 413.836 262.707 414.241 261.407C414.661 260.058 414.616 258.606 414.112 257.286C413.609 255.965 412.676 254.852 411.464 254.125C410.252 253.398 408.831 253.099 407.428 253.276L407.413 253.157L407.312 253.223C406.465 251.927 405.17 250.988 403.675 250.584C402.181 250.18 400.59 250.339 399.205 251.032C397.82 251.724 396.737 252.901 396.163 254.34C395.59 255.778 395.564 257.376 396.092 258.832C396.438 259.78 397.008 260.63 397.754 261.308L397.843 261.389L397.763 261.478C397.126 262.193 396.746 263.1 396.684 264.056C396.621 265.011 396.88 265.961 397.419 266.752C397.957 267.544 398.745 268.133 399.657 268.426C400.569 268.719 401.552 268.698 402.451 268.368L402.452 268.368L407.248 266.612M401.982 267.084L401.982 267.084L401.94 266.97L401.982 267.084ZM401.982 267.084L406.778 265.328M406.778 265.328L407.248 266.612M406.778 265.328L406.892 265.287L407.362 266.571M406.778 265.328L406.737 265.215L407.362 266.571M407.248 266.612L407.362 266.571M407.248 266.612L407.29 266.726L402.493 268.481L407.362 266.571" fill="#161A23" stroke="#535353" stroke-width="0.241319"/>
<path d="M408.214 259.889L410.547 266.262L409.262 266.732L406.93 260.359L406.83 260.086L406.707 260.35L405.66 262.607L404.42 262.031L405.946 258.743C405.946 258.743 405.946 258.743 405.946 258.743C406.112 258.385 406.414 258.107 406.784 257.972C407.155 257.836 407.564 257.853 407.922 258.019C407.922 258.019 407.922 258.019 407.922 258.019L411.211 259.546L410.635 260.786L408.378 259.738L408.114 259.616L408.214 259.889Z" fill="#161A23" stroke="#535353" stroke-width="0.241319"/>
</g>
<rect x="357.767" y="243.48" width="73.6317" height="60.2371" transform="rotate(-19.7818 357.767 243.48)" stroke="#161A23" stroke-width="1.04572" stroke-dasharray="2.41 2.41"/>
</g>
<defs>
<clipPath id="clip0_1397_8054">
<rect width="713" height="553" fill="white"/>
</clipPath>
<clipPath id="clip1_1397_8054">
<rect width="19.3055" height="19.3055" fill="white" transform="translate(391.98 252.627) rotate(-20.1029)"/>
</clipPath>
</defs>
</svg>
