<svg width="20" height="21" viewBox="0 0 20 21" fill="none" xmlns="http://www.w3.org/2000/svg">
<g clip-path="url(#clip0_1333_7906)">
<path d="M17.5 1.67989H2.5C1.83696 1.67989 1.20107 1.94328 0.732233 2.41212C0.263392 2.88096 0 3.51685 0 4.17989L0 20.0132H20V4.17989C20 3.51685 19.7366 2.88096 19.2678 2.41212C18.7989 1.94328 18.163 1.67989 17.5 1.67989ZM2.5 3.34656H17.5C17.721 3.34656 17.933 3.43435 18.0893 3.59063C18.2455 3.74691 18.3333 3.95888 18.3333 4.17989V6.67989H1.66667V4.17989C1.66667 3.95888 1.75446 3.74691 1.91074 3.59063C2.06702 3.43435 2.27899 3.34656 2.5 3.34656ZM1.66667 18.3466V8.34656H18.3333V18.3466H1.66667ZM4.16667 10.8466H15.8333V12.5132H4.16667V10.8466ZM4.16667 14.1799H12.5V15.8466H4.16667V14.1799ZM2.5 5.01322C2.5 4.8484 2.54887 4.68729 2.64044 4.55025C2.73201 4.41321 2.86216 4.3064 3.01443 4.24332C3.1667 4.18025 3.33426 4.16375 3.49591 4.1959C3.65756 4.22806 3.80605 4.30742 3.92259 4.42397C4.03913 4.54051 4.1185 4.689 4.15065 4.85065C4.18281 5.0123 4.16631 5.17985 4.10323 5.33213C4.04016 5.4844 3.93335 5.61455 3.79631 5.70611C3.65927 5.79768 3.49815 5.84656 3.33333 5.84656C3.11232 5.84656 2.90036 5.75876 2.74408 5.60248C2.5878 5.4462 2.5 5.23424 2.5 5.01322ZM5 5.01322C5 4.8484 5.04887 4.68729 5.14044 4.55025C5.23201 4.41321 5.36216 4.3064 5.51443 4.24332C5.6667 4.18025 5.83426 4.16375 5.99591 4.1959C6.15756 4.22806 6.30605 4.30742 6.42259 4.42397C6.53913 4.54051 6.6185 4.689 6.65065 4.85065C6.68281 5.0123 6.66631 5.17985 6.60323 5.33213C6.54016 5.4844 6.43335 5.61455 6.29631 5.70611C6.15927 5.79768 5.99815 5.84656 5.83333 5.84656C5.61232 5.84656 5.40036 5.75876 5.24408 5.60248C5.0878 5.4462 5 5.23424 5 5.01322ZM7.5 5.01322C7.5 4.8484 7.54887 4.68729 7.64044 4.55025C7.73201 4.41321 7.86216 4.3064 8.01443 4.24332C8.1667 4.18025 8.33426 4.16375 8.49591 4.1959C8.65756 4.22806 8.80604 4.30742 8.92259 4.42397C9.03913 4.54051 9.1185 4.689 9.15065 4.85065C9.18281 5.0123 9.16631 5.17985 9.10323 5.33213C9.04016 5.4844 8.93335 5.61455 8.79631 5.70611C8.65927 5.79768 8.49815 5.84656 8.33333 5.84656C8.11232 5.84656 7.90036 5.75876 7.74408 5.60248C7.5878 5.4462 7.5 5.23424 7.5 5.01322Z" fill="white" fill-opacity="0.5"/>
</g>
<defs>
<clipPath id="clip0_1333_7906">
<rect width="20" height="20" fill="white" transform="translate(0 0.846497)"/>
</clipPath>
</defs>
</svg>
