<svg width="20" height="20" viewBox="0 0 20 20" fill="none" xmlns="http://www.w3.org/2000/svg">
<g clip-path="url(#clip0_1333_7982)">
<path d="M17.5 20.0005H15.8333V15.798C15.8327 15.1447 15.5728 14.5183 15.1109 14.0563C14.6489 13.5943 14.0225 13.3345 13.3692 13.3338H6.63083C5.9775 13.3345 5.35111 13.5943 4.88914 14.0563C4.42716 14.5183 4.16733 15.1447 4.16667 15.798V20.0005H2.5V15.798C2.50132 14.7029 2.93696 13.6529 3.71135 12.8785C4.48575 12.1041 5.53567 11.6685 6.63083 11.6672H13.3692C14.4643 11.6685 15.5143 12.1041 16.2886 12.8785C17.063 13.6529 17.4987 14.7029 17.5 15.798V20.0005Z" fill="white" fill-opacity="0.5"/>
<path d="M9.99994 9.99995C9.01103 9.99995 8.04434 9.7067 7.22209 9.1573C6.39984 8.60789 5.75898 7.827 5.38054 6.91337C5.00211 5.99974 4.90309 4.9944 5.09601 4.0245C5.28894 3.05459 5.76514 2.16368 6.46441 1.46441C7.16367 0.765152 8.05458 0.288949 9.02449 0.0960224C9.9944 -0.0969037 10.9997 0.00211302 11.9134 0.380551C12.827 0.758989 13.6079 1.39985 14.1573 2.2221C14.7067 3.04434 14.9999 4.01104 14.9999 4.99995C14.9986 6.32562 14.4714 7.59663 13.534 8.53402C12.5966 9.47142 11.3256 9.99862 9.99994 9.99995ZM9.99994 1.66662C9.34067 1.66662 8.6962 1.86211 8.14804 2.22838C7.59988 2.59465 7.17263 3.11525 6.92034 3.72434C6.66805 4.33342 6.60204 5.00365 6.73066 5.65025C6.85927 6.29685 7.17674 6.8908 7.64292 7.35697C8.10909 7.82315 8.70304 8.14062 9.34964 8.26923C9.99624 8.39785 10.6665 8.33184 11.2756 8.07955C11.8846 7.82726 12.4052 7.40001 12.7715 6.85185C13.1378 6.30369 13.3333 5.65922 13.3333 4.99995C13.3333 4.11589 12.9821 3.26805 12.357 2.64293C11.7318 2.0178 10.884 1.66662 9.99994 1.66662Z" fill="white" fill-opacity="0.5"/>
</g>
<defs>
<clipPath id="clip0_1333_7982">
<rect width="20" height="20" fill="white"/>
</clipPath>
</defs>
</svg>
