<svg viewBox="0 0 558 540" fill="none" xmlns="http://www.w3.org/2000/svg">
<g clip-path="url(#clip0_1397_7739)">
<path d="M6.52272 195.424H100.503C100.503 195.424 78.2023 172.08 50.4402 182.88C36.3672 153.756 22.2071 171.314 27.5496 186.359C13.2829 167.651 -0.548417 188.35 6.52272 195.424Z" fill="#35383F"/>
<path d="M83.5891 204.523C83.5891 204.523 48.9743 195.266 44.6037 203.581C40.2331 211.896 83.5891 204.523 83.5891 204.523Z" fill="#35383F"/>
<path d="M453.806 429.61C453.806 429.61 457.251 425.136 453.712 420.271C447.396 411.589 436.172 409.517 432.779 414.327C429.384 419.139 445.887 431.686 453.808 429.61H453.806Z" fill="#222A38"/>
<path d="M451.889 430.499C445.512 430.499 436.482 424.482 433.154 419.677C431.123 416.746 431.535 414.942 432.239 413.945C433.504 412.151 435.771 411.152 438.624 411.133C441.177 411.111 444.045 411.888 446.72 413.312C449.652 414.871 452.253 417.142 454.245 419.88C458.033 425.084 454.365 429.962 454.328 430.012C454.239 430.127 454.113 430.211 453.973 430.248C453.323 430.419 452.623 430.499 451.889 430.499ZM438.711 412.453C438.685 412.453 438.66 412.453 438.633 412.453C436.219 412.471 434.33 413.271 433.317 414.707C432.44 415.952 433.518 417.884 434.239 418.925C437.978 424.32 448.025 430.198 453.411 429.025C453.976 428.177 456.03 424.578 453.179 420.658C449.048 414.983 442.954 412.453 438.711 412.453Z" fill="#000206"/>
<path d="M462.97 419.656C462.97 419.656 468.7 420.372 473.283 414.21C477.867 408.047 483.883 390.992 479.299 387.983C474.715 384.973 464.114 397.155 460.964 404.894C457.812 412.633 462.97 419.656 462.97 419.656Z" fill="#222A38"/>
<path d="M463.569 420.344C463.176 420.344 462.934 420.317 462.888 420.31C462.709 420.287 462.545 420.193 462.439 420.045C462.218 419.746 457.1 412.633 460.353 404.643C463.025 398.082 470.597 388.806 475.994 387.126C477.437 386.676 478.672 386.779 479.663 387.43C480.582 388.032 481.181 389.092 481.444 390.578C482.529 396.717 477.604 409.508 473.815 414.602C469.938 419.814 465.294 420.342 463.569 420.342V420.344ZM463.336 419.019C464.507 419.064 468.989 418.877 472.754 413.815C476.325 409.014 481.156 396.538 480.143 390.809C479.946 389.696 479.541 388.93 478.938 388.535C478.294 388.112 477.435 388.063 476.387 388.39C471.46 389.922 464.126 398.884 461.577 405.144C458.919 411.673 462.502 417.747 463.338 419.021L463.336 419.019Z" fill="#000206"/>
<path d="M464.116 442.013C464.116 442.013 470.849 440.867 476.865 435.134C482.881 429.402 502.506 419.8 503.08 413.349C503.654 406.901 495.2 406.326 488.755 407.331C482.309 408.333 458.816 431.121 464.116 442.013Z" fill="#222A38"/>
<path d="M464.116 442.673C463.867 442.673 463.634 442.531 463.522 442.301C461.966 439.105 462.559 434.839 465.287 429.622C470.949 418.785 483.995 407.404 488.653 406.678C491.562 406.225 498.691 405.514 502.074 408.683C503.35 409.88 503.91 411.469 503.737 413.408C503.337 417.91 495.129 423.302 487.189 428.517C483.178 431.151 479.39 433.64 477.32 435.613C471.228 441.418 464.51 442.616 464.226 442.664C464.189 442.671 464.151 442.673 464.116 442.673ZM493.61 407.59C492.146 407.59 490.549 407.72 488.856 407.983C484.549 408.653 471.855 419.901 466.456 430.234C464.109 434.727 463.439 438.521 464.503 441.254C466.145 440.863 471.548 439.288 476.408 434.656C478.565 432.601 482.401 430.081 486.464 427.413C493.42 422.843 502.078 417.157 502.421 413.293C502.557 411.757 502.149 410.564 501.17 409.649C499.731 408.301 497.039 407.592 493.608 407.592L493.61 407.59Z" fill="#000206"/>
<path d="M472.802 450.09C472.802 450.09 493.152 460.56 505.709 450.904C518.269 441.249 517.453 442.644 518.036 439.852C518.617 437.059 505.013 431.011 492.686 434.151C480.36 437.292 472.802 450.09 472.802 450.09Z" fill="#222A38"/>
<path d="M492.319 455.647C489.835 455.647 487.191 455.353 484.411 454.765C477.745 453.352 472.711 450.787 472.502 450.679C472.34 450.595 472.219 450.449 472.169 450.275C472.12 450.101 472.143 449.913 472.235 449.756C472.313 449.623 474.204 446.45 477.647 442.845C480.836 439.505 486.006 435.175 492.525 433.515C503.261 430.78 514.614 434.839 517.689 437.783C518.494 438.553 518.828 439.296 518.684 439.991C518.656 440.122 518.633 440.245 518.61 440.36C518.222 442.31 518.13 442.38 513.257 446.023C511.567 447.287 509.254 449.017 506.114 451.431C502.474 454.228 497.789 455.649 492.32 455.649L492.319 455.647ZM473.756 449.818C475.327 450.551 479.567 452.392 484.713 453.48C490.641 454.731 499.027 455.211 505.308 450.382C508.456 447.961 510.773 446.228 512.464 444.964C515.505 442.69 517.121 441.069 517.313 440.101C517.336 439.982 517.361 439.855 517.389 439.72C517.421 439.569 517.279 439.219 516.774 438.737C513.964 436.046 502.972 432.216 492.848 434.795C482.451 437.445 475.43 447.268 473.754 449.82L473.756 449.818Z" fill="#000206"/>
<path d="M453.898 476.973C453.882 476.973 453.866 476.973 453.848 476.971C453.484 476.945 453.212 476.628 453.239 476.264C454.03 465.547 456.597 455.533 460.87 446.5C464.29 439.269 468.803 432.649 474.284 426.823C483.622 416.895 492.686 412.649 492.775 412.606C493.106 412.453 493.498 412.597 493.651 412.93C493.804 413.26 493.66 413.653 493.328 413.806C493.239 413.847 484.37 418.012 475.202 427.772C466.754 436.766 456.313 452.499 454.554 476.363C454.529 476.71 454.239 476.975 453.896 476.975L453.898 476.973Z" fill="#000206"/>
<path d="M457.24 472.483C457.162 472.483 457.082 472.469 457.004 472.439C456.663 472.307 456.494 471.925 456.625 471.586C459.934 462.983 464.732 455.961 470.892 450.718C475.824 446.519 481.628 443.45 488.145 441.592C499.225 438.435 508.389 439.864 508.772 439.927C509.131 439.985 509.376 440.325 509.318 440.684C509.259 441.043 508.922 441.288 508.561 441.229C508.469 441.215 499.26 439.784 488.456 442.875C478.521 445.718 465.15 453.087 457.857 472.058C457.755 472.322 457.505 472.481 457.24 472.481V472.483Z" fill="#000206"/>
<path d="M457.043 459.762C456.705 459.762 456.418 459.504 456.386 459.161C454.746 440.817 459.513 424.331 463.8 413.73C468.444 402.245 473.555 394.984 473.605 394.911C473.817 394.615 474.229 394.543 474.525 394.755C474.822 394.966 474.893 395.377 474.682 395.676C474.632 395.747 469.595 402.908 465.008 414.261C460.783 424.72 456.084 440.979 457.699 459.045C457.731 459.408 457.462 459.73 457.1 459.762C457.08 459.762 457.061 459.763 457.041 459.763L457.043 459.762Z" fill="#000206"/>
<path d="M457.611 439.589C457.313 439.589 457.043 439.384 456.97 439.082C455.129 431.384 450.921 426.133 447.712 423.083C444.139 419.686 440.875 418.081 440.321 417.958C439.978 417.933 439.708 417.649 439.708 417.299C439.708 416.949 440.003 416.639 440.367 416.639C441.078 416.639 444.665 418.433 448.391 421.908C451.816 425.106 456.306 430.627 458.253 438.775C458.338 439.13 458.12 439.486 457.764 439.571C457.713 439.583 457.661 439.589 457.61 439.589H457.611ZM440.335 417.958C440.348 417.958 440.358 417.958 440.369 417.958C440.358 417.958 440.346 417.958 440.335 417.958Z" fill="#000206"/>
<path d="M521.841 505.617C521.841 480.194 496.54 459.584 465.329 459.584C434.118 459.584 408.817 480.194 408.817 505.617C408.817 508.698 409.192 511.707 409.901 514.619H520.759C521.468 511.707 521.843 508.698 521.843 505.617H521.841Z" fill="#35383F"/>
<path d="M398.708 484.456C394.229 461.379 364.958 443.561 329.515 443.561C313.996 443.561 299.66 446.978 288.071 452.756C278.815 438.435 262.331 428.902 243.534 428.902C214.574 428.902 191.097 451.526 191.097 479.435C191.097 486.876 192.767 493.941 195.764 500.303C186.671 504.51 179.657 509.624 175.462 515.31H451.055C445.432 497.747 424.167 484.647 398.709 484.455L398.708 484.456Z" fill="#35383F"/>
<path d="M538.608 515.971H50.4402C50.0759 515.971 49.781 515.676 49.781 515.312C49.781 514.947 50.0759 514.652 50.4402 514.652H538.608C538.972 514.652 539.267 514.947 539.267 515.312C539.267 515.676 538.972 515.971 538.608 515.971Z" fill="#000206"/>
<path d="M314.796 516.823C314.03 519.578 311.36 521.558 311.36 521.558C311.36 521.558 288.1 518.209 277.363 514.103C266.625 509.995 256.727 501.245 256.727 501.245C257.227 500.361 257.793 499.375 258.403 498.321C264.602 501.959 279.067 510.029 287.904 511.579C295.917 512.989 308.142 515.458 314.798 516.823H314.796Z" fill="#222A38"/>
<path d="M311.36 522.219C311.328 522.219 311.298 522.218 311.266 522.212C311.033 522.178 287.808 518.805 277.127 514.72C266.401 510.618 256.39 501.828 256.29 501.739C256.057 501.533 255.999 501.191 256.153 500.919C256.624 500.086 257.173 499.128 257.832 497.99C257.921 497.837 258.065 497.727 258.236 497.683C258.406 497.638 258.586 497.663 258.738 497.752C264.612 501.2 279.227 509.388 288.02 510.93C296.146 512.359 308.37 514.83 314.933 516.178C315.112 516.215 315.268 516.323 315.363 516.48C315.459 516.636 315.483 516.825 315.435 517.001C314.618 519.939 311.873 522.002 311.756 522.09C311.642 522.175 311.504 522.219 311.363 522.219H311.36ZM257.569 501.099C259.529 502.759 268.306 509.933 277.6 513.488C287.512 517.278 308.494 520.467 311.173 520.865C311.717 520.413 313.2 519.068 313.927 517.32C307.225 515.948 295.604 513.606 287.789 512.232C279.062 510.699 264.911 502.88 258.641 499.227C258.243 499.917 257.889 500.536 257.568 501.099H257.569Z" fill="#000206"/>
<path d="M403.409 375.524C412.809 375.524 420.429 367.9 420.429 358.495C420.429 349.091 412.809 341.467 403.409 341.467C394.009 341.467 386.388 349.091 386.388 358.495C386.388 367.9 394.009 375.524 403.409 375.524Z" fill="#35383F"/>
<path d="M112.476 437.384C129.55 437.384 143.392 423.537 143.392 406.454C143.392 389.372 129.55 375.524 112.476 375.524C95.4018 375.524 81.5603 389.372 81.5603 406.454C81.5603 423.537 95.4018 437.384 112.476 437.384Z" fill="#35383F"/>
<path d="M76.6853 142.691C76.6853 142.691 69.0705 133.676 67.5709 130.334C66.0714 126.99 65.5615 117.557 66.9278 116.19C68.2941 114.823 76.6853 113.362 76.6853 113.362L83.7635 114.519C83.7635 114.519 89.2907 121.999 89.2907 123.21C89.2907 124.42 90.5166 134.771 90.5166 134.771L76.6853 142.693V142.691Z" fill="#222A38"/>
<path d="M76.6852 143.351C76.4968 143.351 76.3121 143.271 76.1806 143.116C75.8679 142.744 68.4876 133.992 66.9668 130.602C66.0891 128.647 65.6414 125.161 65.5135 122.552C65.4104 120.456 65.398 116.784 66.4587 115.721C67.8995 114.28 75.1341 112.959 76.5697 112.708C76.6425 112.696 76.7171 112.696 76.79 112.708L83.8682 113.865C84.0388 113.894 84.1898 113.986 84.2928 114.125C84.3071 114.145 85.6982 116.029 87.0698 118.035C89.948 122.246 89.948 122.895 89.948 123.208C89.948 124.17 90.8292 131.824 91.1703 134.692C91.213 135.055 90.9554 135.382 90.5929 135.427C90.2305 135.469 89.9036 135.211 89.8592 134.849C89.8094 134.426 88.6368 124.511 88.6279 123.222C88.5249 122.474 85.8634 118.492 83.3903 115.127L76.6869 114.031C73.5103 114.591 68.2691 115.78 67.3914 116.656C67.0805 116.967 66.6523 118.826 66.83 122.488C66.9828 125.617 67.5087 128.59 68.1696 130.064C69.614 133.285 77.1116 142.176 77.1862 142.266C77.4207 142.545 77.3869 142.961 77.108 143.196C76.9836 143.301 76.8326 143.352 76.6816 143.352L76.6852 143.351Z" fill="#000206"/>
<path d="M82.1662 135.203C77.7902 136.763 70.7831 135.647 68.2939 133.548L74.0184 109.566L86.4106 111.818L82.1662 135.201V135.203Z" fill="#222A38"/>
<path d="M77.3141 136.6C73.528 136.6 69.6389 135.546 67.8676 134.053C67.6775 133.893 67.5922 133.637 67.6508 133.395L73.3752 109.413C73.457 109.072 73.791 108.855 74.1357 108.917L86.5279 111.169C86.8868 111.235 87.1249 111.578 87.0591 111.937L82.8147 135.32C82.772 135.553 82.6086 135.745 82.3865 135.825C80.8763 136.363 79.105 136.6 77.3123 136.6H77.3141ZM69.0348 133.285C71.5062 135.018 77.5238 135.972 81.587 134.7L85.6449 112.349L74.5159 110.326L69.0348 133.283V133.285Z" fill="#000206"/>
<path d="M101.77 119.488L73.425 111.862L77.2786 97.8538L105.624 105.479C109.379 111.537 108.095 116.206 101.77 119.488Z" fill="#222A38"/>
<path d="M101.77 120.149C101.713 120.149 101.654 120.142 101.599 120.126L73.2544 112.5C73.0838 112.454 72.9399 112.344 72.8529 112.191C72.7658 112.038 72.7427 111.857 72.7889 111.688L76.6425 97.6795C76.7385 97.3294 77.1009 97.1232 77.4509 97.2174L105.796 104.843C105.958 104.887 106.096 104.99 106.185 105.133C108.155 108.309 108.804 111.192 108.113 113.7C107.423 116.208 105.391 118.354 102.074 120.076C101.98 120.126 101.875 120.151 101.77 120.151V120.149ZM74.2369 111.398L101.69 118.784C104.533 117.262 106.265 115.433 106.839 113.35C107.413 111.267 106.86 108.81 105.197 106.05L77.7405 98.6625L74.2387 111.398H74.2369Z" fill="#000206"/>
<path d="M375.952 274.322L436.112 481.879C436.112 481.879 418.054 487.723 406.033 487.723C378.083 447.504 364.997 413.922 359.877 396.276C311.518 312.606 316.07 295.529 316.07 295.529L375.952 274.32V274.322Z" fill="#8C193C"/>
<path d="M406.031 488.383C405.815 488.383 405.612 488.276 405.489 488.1C375.091 444.358 363.048 409.551 359.264 396.538C334.286 353.313 323.695 328.195 319.211 314.735C314.299 299.989 315.382 295.542 315.43 295.361C315.487 295.151 315.642 294.98 315.848 294.909L375.73 273.7C375.901 273.64 376.091 273.652 376.253 273.736C376.414 273.819 376.535 273.965 376.585 274.139L436.745 481.696C436.844 482.039 436.654 482.398 436.315 482.508C436.133 482.567 418.019 488.385 406.031 488.385V488.383ZM316.661 296.02C316.535 297.268 316.431 302.359 320.638 314.833C325.154 328.228 335.729 353.174 360.447 395.944C360.474 395.99 360.495 396.04 360.51 396.09C364.242 408.952 376.176 443.526 406.376 487.059C416.912 486.961 432.084 482.435 435.298 481.44L375.514 275.175L316.661 296.018V296.02Z" fill="#000206"/>
<path d="M465.093 153.607L457.029 158.122C457.029 158.122 420.662 175.724 409.187 179.658C397.711 183.591 387.915 178.556 387.915 178.556L386.39 206.359C386.39 206.359 397.496 209.024 410.437 206.212C423.38 203.398 463.746 171.168 463.746 171.168C463.746 171.168 476.22 171.303 482.572 167.635C488.923 163.966 491.516 161.374 491.516 161.374L465.093 153.61V153.607Z" fill="#222A38"/>
<path d="M398.104 208.151C391.148 208.151 386.309 207.019 386.234 207.001C385.923 206.926 385.712 206.642 385.729 206.322L387.254 178.518C387.266 178.294 387.39 178.094 387.584 177.982C387.778 177.871 388.016 177.864 388.215 177.967C388.311 178.015 397.91 182.825 408.972 179.032C420.181 175.189 455.75 158.006 456.723 157.535L464.771 153.029C464.926 152.942 465.111 152.922 465.28 152.972L491.702 160.736C491.926 160.802 492.098 160.982 492.155 161.207C492.212 161.433 492.146 161.673 491.983 161.837C491.875 161.945 489.257 164.533 482.902 168.202C476.885 171.679 465.814 171.826 463.981 171.826H463.974C460.648 174.473 423.21 204.107 410.576 206.854C406.088 207.829 401.798 208.149 398.104 208.149V208.151ZM387.078 205.831C389.435 206.304 399.246 207.968 410.295 205.567C422.94 202.819 462.929 170.973 463.332 170.651C463.451 170.557 463.599 170.504 463.752 170.507C463.872 170.507 476.119 170.598 482.241 167.061C486.429 164.641 488.971 162.686 490.187 161.669L465.173 154.32L457.35 158.699C457.34 158.706 457.327 158.712 457.315 158.717C456.951 158.893 420.781 176.382 409.398 180.283C399.674 183.616 391.241 180.714 388.519 179.56L387.078 205.831Z" fill="#000206"/>
<path d="M336.412 290.243H281.263C281.263 290.243 290.466 346.757 300.707 391.154C282.857 433.344 267.807 473.555 268.857 478.887C283.386 488.642 296.185 483.354 296.185 483.354C296.185 483.354 340.675 424.167 348.497 390.016C351.143 378.468 349.528 359.384 346.726 340.984L336.412 290.243Z" fill="#8C193C"/>
<path d="M287.373 485.445C282.7 485.445 275.812 484.352 268.489 479.435C268.343 479.337 268.244 479.186 268.21 479.014C267.037 473.048 283.859 429.299 300.017 391.093C289.908 347.214 280.705 290.913 280.613 290.35C280.581 290.158 280.636 289.964 280.762 289.817C280.888 289.669 281.071 289.584 281.265 289.584H336.414C336.778 289.584 337.073 289.879 337.073 290.243C337.073 290.608 336.778 290.903 336.414 290.903H282.043C283.185 297.822 291.877 349.925 301.352 391.004C301.384 391.139 301.371 391.282 301.316 391.41C282.562 435.74 269.022 472.801 269.471 478.502C276.717 483.285 283.471 484.199 287.895 484.119C292.126 484.04 295.068 483.061 295.773 482.803C296.979 481.186 307.556 466.934 318.857 449.127C329.867 431.778 343.835 407.414 347.854 389.865C350.105 380.037 349.507 363.624 346.074 341.08C346.019 340.719 346.266 340.383 346.627 340.328C346.985 340.273 347.323 340.52 347.378 340.881C350.836 363.59 351.429 380.17 349.141 390.16C345.079 407.892 331.033 432.402 319.966 449.841C307.991 468.711 296.825 483.598 296.715 483.747C296.644 483.841 296.548 483.916 296.439 483.96C296.304 484.016 293.067 485.331 287.984 485.436C287.785 485.439 287.583 485.443 287.375 485.443L287.373 485.445Z" fill="#000206"/>
<path d="M335.53 165.237C335.53 165.237 396.096 176.559 397.477 179.24C400.209 195.092 396.917 212.82 396.917 212.82C396.917 212.82 358.386 203.997 356.633 202.067C354.879 200.134 335.53 165.239 335.53 165.239V165.237Z" fill="#222A38"/>
<path d="M396.917 213.48C396.867 213.48 396.819 213.475 396.77 213.464C396.674 213.443 387.019 211.23 377.272 208.809C357.374 203.866 356.512 202.916 356.142 202.511C354.357 200.545 335.743 166.986 334.952 165.559C334.828 165.335 334.844 165.059 334.993 164.853C335.142 164.645 335.398 164.544 335.65 164.59C335.801 164.618 350.974 167.459 366.118 170.589C397.056 176.984 397.736 178.305 398.063 178.94C398.093 179 398.114 179.064 398.127 179.13C400.849 194.916 397.599 212.764 397.565 212.943C397.532 213.119 397.429 213.276 397.279 213.375C397.171 213.446 397.045 213.484 396.917 213.484V213.48ZM336.789 166.145C342.592 176.593 355.78 200.143 357.121 201.621C357.48 201.955 360.225 203.215 377.754 207.566C385.943 209.598 394.033 211.477 396.384 212.019C396.938 208.643 399.188 193.309 396.858 179.537C396.125 178.972 391.424 177.153 365.317 171.769C353.017 169.233 340.813 166.906 336.789 166.145Z" fill="#000206"/>
<path d="M357.158 194.013C368.993 228.23 379.692 281.798 379.692 281.798C379.692 281.798 348.389 314.913 281.995 301.585C277.786 295.663 282.18 279.436 280.534 268.886C275.08 233.927 273.991 190.589 273.991 190.589C277.116 171.988 326.03 161.282 341.838 166.342L346.722 167.377L357.16 194.011L357.158 194.013Z" fill="#222A38"/>
<path d="M312.456 305.405C302.627 305.405 292.385 304.346 281.863 302.234C281.698 302.2 281.553 302.106 281.455 301.969C278.864 298.324 279.341 291.29 279.843 283.844C280.193 278.668 280.554 273.316 279.881 268.99C274.483 234.387 273.339 191.041 273.328 190.607C273.328 190.565 273.33 190.524 273.337 190.481C274.176 185.49 278.108 180.82 285.026 176.602C292.593 171.988 303.617 168.133 315.27 166.026C326.344 164.023 336.334 163.904 342.004 165.706L346.854 166.734C347.211 166.808 347.438 167.16 347.362 167.516C347.286 167.871 346.937 168.101 346.58 168.024L341.696 166.99C341.675 166.984 341.654 166.979 341.632 166.972C330.567 163.429 302.02 167.784 285.71 177.729C279.165 181.72 275.443 186.064 274.647 190.637C274.698 192.552 275.894 234.887 281.181 268.785C281.879 273.257 281.512 278.684 281.158 283.931C280.682 290.983 280.231 297.652 282.384 300.99C316.341 307.752 340.833 302.072 355.412 296.107C369.73 290.249 377.546 282.982 378.971 281.581C378.027 276.923 367.723 226.584 356.531 194.226C356.412 193.881 356.595 193.506 356.94 193.385C357.285 193.266 357.66 193.449 357.78 193.794C369.494 227.661 380.23 281.13 380.337 281.667C380.38 281.876 380.316 282.093 380.17 282.25C379.847 282.593 372.061 290.707 355.99 297.298C346.568 301.162 336.254 303.676 325.333 304.771C321.131 305.192 316.834 305.402 312.454 305.402L312.456 305.405Z" fill="#000206"/>
<path d="M299.57 158.925C299.57 158.925 300.572 171.204 303.112 176.138C307.021 183.73 317.917 183.32 324.148 182.025C329.114 180.995 323.203 155.535 323.203 155.535L299.57 158.925Z" fill="#222A38"/>
<path d="M317.123 183.426C315.684 183.426 314.167 183.327 312.648 183.065C307.764 182.228 304.358 179.999 302.526 176.441C299.953 171.446 298.953 159.485 298.912 158.978C298.884 158.63 299.131 158.321 299.476 158.271L323.109 154.881C323.448 154.832 323.768 155.052 323.846 155.386C323.859 155.439 325.09 160.768 325.95 166.581C327.124 174.512 327.065 179.555 325.779 181.569C325.392 182.175 324.887 182.546 324.283 182.672C322.7 183.001 320.081 183.426 317.125 183.426H317.123ZM300.284 159.49C300.527 162.029 301.568 171.7 303.699 175.836C308.021 184.228 321.38 181.926 324.013 181.38C324.26 181.329 324.473 181.158 324.665 180.858C326.842 177.452 324.095 162.5 322.693 156.277L300.282 159.49H300.284Z" fill="#000206"/>
<path d="M314.796 516.823C308.14 515.458 295.913 512.989 287.902 511.579C279.067 510.027 264.6 501.958 258.401 498.321C262.908 490.528 269.777 479.118 269.777 479.118L290.875 485.594C290.875 485.594 314.339 510.776 314.94 514.617C315.061 515.388 314.988 516.129 314.796 516.824V516.823Z" fill="#222A38"/>
<path d="M314.796 517.484C314.751 517.484 314.707 517.48 314.663 517.47C308.107 516.124 295.897 513.655 287.787 512.23C278.783 510.65 264.003 502.373 258.067 498.89C257.754 498.706 257.648 498.303 257.831 497.99C262.288 490.283 269.144 478.891 269.212 478.777C269.368 478.518 269.681 478.397 269.97 478.487L291.068 484.963C291.179 484.997 291.278 485.059 291.358 485.144C291.417 485.206 297.299 491.525 303.178 498.23C315.187 511.926 315.492 513.874 315.592 514.514C315.718 515.324 315.665 516.162 315.432 517C315.352 517.29 315.087 517.484 314.796 517.484ZM259.302 498.083C265.504 501.696 279.493 509.434 288.016 510.93C295.885 512.313 307.595 514.676 314.289 516.046C314.357 515.595 314.357 515.15 314.289 514.718C313.874 512.059 299.891 496.243 290.514 486.173L270.079 479.901C268.807 482.018 263.246 491.287 259.303 498.083H259.302Z" fill="#000206"/>
<path d="M467.847 504.782C461.394 505.968 441.93 509.398 432.575 509.398C424.629 509.398 414.273 508.892 408.815 508.588C409.913 499.704 411.615 487.494 411.615 487.494L433.559 485.16C433.559 485.16 465.024 499.101 467.081 502.398C467.554 503.152 467.779 503.97 467.845 504.78L467.847 504.782Z" fill="#222A38"/>
<path d="M432.574 510.058C424.576 510.058 414.232 509.549 408.78 509.247C408.597 509.236 408.428 509.151 408.311 509.011C408.193 508.87 408.14 508.687 408.161 508.506C409.247 499.72 410.945 487.524 410.963 487.403C411.006 487.103 411.246 486.87 411.548 486.838L433.491 484.504C433.607 484.492 433.722 484.51 433.829 484.558C433.907 484.593 441.797 488.091 449.837 491.948C466.257 499.826 467.301 501.499 467.644 502.05C468.135 502.832 468.424 503.733 468.506 504.729C468.534 505.066 468.302 505.37 467.968 505.433C460.394 506.824 441.781 510.059 432.576 510.059L432.574 510.058ZM409.558 507.967C415.149 508.271 424.94 508.737 432.574 508.737C441.621 508.737 460.555 505.44 467.108 504.245C466.999 503.698 466.804 503.197 466.523 502.749C465.096 500.464 446.029 491.412 433.454 485.836L412.2 488.097C411.876 490.434 410.515 500.301 409.56 507.967H409.558Z" fill="#000206"/>
<path d="M402.261 484.359C402.261 484.359 403.215 491.591 405.575 493.411C422.46 494.693 439.385 481.228 439.385 481.228L435.972 474.113L402.263 484.359H402.261Z" fill="#222A38"/>
<path d="M407.838 494.154C407.069 494.154 406.296 494.126 405.525 494.067C405.397 494.058 405.274 494.01 405.171 493.932C402.67 492.004 401.709 485.212 401.607 484.444C401.565 484.124 401.76 483.82 402.069 483.726L435.778 473.48C436.091 473.384 436.425 473.532 436.565 473.827L439.978 480.942C440.111 481.22 440.035 481.554 439.793 481.744C439.751 481.778 435.437 485.189 429.108 488.388C423.757 491.094 415.915 494.154 407.838 494.154ZM405.834 492.766C414.327 493.347 422.83 490.079 428.488 487.222C433.586 484.648 437.345 481.939 438.557 481.029L435.62 474.909L402.997 484.824C403.341 487.004 404.308 491.374 405.834 492.766Z" fill="#000206"/>
<path d="M267.924 469.204L263.443 480.944C288.565 490.87 295.578 488.868 295.578 488.868L298.529 481.715L267.924 469.204Z" fill="#222A38"/>
<path d="M293.568 489.695C289.903 489.695 281.11 488.633 263.2 481.557C262.864 481.424 262.697 481.045 262.825 480.708L267.305 468.967C267.369 468.802 267.497 468.667 267.659 468.598C267.821 468.528 268.007 468.525 268.171 468.592L298.776 481.104C298.937 481.17 299.067 481.299 299.134 481.461C299.202 481.623 299.202 481.806 299.134 481.968L296.183 489.121C296.107 489.307 295.949 489.448 295.755 489.504C295.672 489.528 295.025 489.696 293.565 489.696L293.568 489.695ZM264.292 480.567C285.568 488.907 293.547 488.49 295.105 488.282L297.665 482.074L268.299 470.069L264.292 480.567Z" fill="#000206"/>
<path d="M313.563 162.48C313.563 162.48 336.301 163.639 333.741 146.278C331.18 128.917 325.454 106.844 302.699 111.683C279.941 116.521 300.091 163.052 300.091 163.052L313.563 162.48Z" fill="#222A38"/>
<path d="M300.092 163.712C299.836 163.712 299.595 163.563 299.486 163.314C299.453 163.235 296.105 155.462 293.696 146.063C290.438 133.35 290.353 123.866 293.444 117.874C295.325 114.223 298.394 111.923 302.562 111.037C309.532 109.555 315.471 110.476 320.213 113.775C329.5 120.234 332.671 134.486 334.396 146.182C335.07 150.747 334.105 154.499 331.532 157.332C325.762 163.687 314.028 163.164 313.533 163.139C313.169 163.122 312.89 162.811 312.907 162.446C312.925 162.082 313.238 161.801 313.6 161.821C313.716 161.826 325.213 162.332 330.559 156.442C332.852 153.916 333.705 150.528 333.092 146.376C331.406 134.943 328.332 121.029 319.461 114.859C315.03 111.779 309.438 110.927 302.839 112.33C299.078 113.13 296.311 115.199 294.62 118.48C287.577 132.138 300.568 162.485 300.7 162.791C300.846 163.125 300.691 163.515 300.357 163.66C300.272 163.698 300.183 163.715 300.096 163.715L300.092 163.712Z" fill="#000206"/>
<path d="M309.811 134.237C309.811 134.237 318.628 130.252 318.841 127.406C323.393 125.414 328.514 127.477 333.208 124.276C331.5 115.881 326.451 112.609 324.461 111.754C322.182 110.776 313.367 106.418 299.785 111.043C286.202 115.668 287.197 130.823 289.473 137.936C291.749 145.052 293.954 153.731 295.73 155.724C295.73 155.724 301.49 153.233 302.985 150.245C304.479 147.257 300.353 140.142 300.851 138.007C301.348 135.873 308.034 136.799 309.455 140.924C312.086 142.561 311.731 140.284 311.731 140.284L309.811 134.237Z" fill="#000206"/>
<path d="M423.69 137.142L404.285 158.582L411.887 167.633L431.294 146.191L423.69 137.142Z" fill="#000206"/>
<path d="M476.476 162.763C521.158 162.763 557.38 126.524 557.38 81.8207C557.38 37.1176 521.158 0.878662 476.476 0.878662C431.794 0.878662 395.572 37.1176 395.572 81.8207C395.572 126.524 431.794 162.763 476.476 162.763Z" fill="#222A38"/>
<path d="M476.609 163.429C474.227 163.429 471.836 163.326 469.435 163.118C458.466 162.167 448.01 159.096 438.358 153.987C429.036 149.053 420.854 142.439 414.037 134.326C407.222 126.214 402.116 117.012 398.861 106.976C395.492 96.5846 394.265 85.7525 395.215 74.7764C396.166 63.8021 399.236 53.3415 404.342 43.6844C409.274 34.3578 415.885 26.1724 423.995 19.3522C432.104 12.5337 441.302 7.42515 451.333 4.16877C461.719 0.798633 472.546 -0.429623 483.517 0.52134C494.486 1.4723 504.942 4.54382 514.595 9.65236C523.917 14.5867 532.098 21.2008 538.915 29.3133C545.731 37.4258 550.837 46.6279 554.092 56.6637C557.46 67.0549 558.688 77.887 557.737 88.8631C556.787 99.8374 553.717 110.298 548.611 119.955C543.679 129.282 537.068 137.467 528.959 144.287C520.85 151.106 511.652 156.214 501.621 159.471C493.507 162.105 485.121 163.429 476.611 163.429H476.609ZM476.418 1.53451C435.274 1.53451 400.149 33.1314 396.532 74.8902C392.712 118.992 425.468 157.981 469.549 161.803C513.632 165.624 552.601 132.853 556.421 88.7511C560.241 44.6478 527.484 5.66009 483.403 1.83847C481.06 1.63583 478.727 1.53629 476.416 1.53629L476.418 1.53451Z" fill="#000206"/>
<path d="M545.043 87.7648C544.24 97.0291 541.649 105.856 537.346 113.995C533.816 120.672 529.261 126.66 523.778 131.838C522.801 132.762 521.793 133.658 520.759 134.529C513.912 140.288 506.15 144.599 497.688 147.347C488.934 150.189 479.797 151.223 470.535 150.42C461.275 149.616 452.452 147.027 444.317 142.72C439.564 140.205 435.163 137.172 431.153 133.649C428.527 131.347 426.068 128.834 423.792 126.123C418.036 119.273 413.728 111.507 410.981 103.041C408.14 94.2829 407.106 85.1412 407.909 75.8769C408.712 66.6108 411.301 57.7837 415.606 49.6445C419.767 41.7755 425.345 34.8682 432.194 29.1108C439.042 23.3517 446.804 19.0413 455.266 16.2951C464.02 13.4546 473.157 12.4183 482.417 13.2218C491.679 14.0252 500.502 16.6168 508.637 20.9219C516.502 25.0848 523.407 30.6662 529.161 37.5184C534.916 44.3689 539.226 52.1348 541.973 60.601C544.812 69.3588 545.848 78.5005 545.045 87.7666L545.043 87.7648Z" fill="#222A38"/>
<path d="M476.599 151.342C474.566 151.342 472.525 151.253 470.476 151.076C461.126 150.265 452.219 147.649 444.007 143.301C439.228 140.772 434.756 137.691 430.718 134.143C428.074 131.827 425.575 129.271 423.286 126.546C417.477 119.634 413.125 111.793 410.354 103.243C407.486 94.4019 406.442 85.1749 407.252 75.8181C408.062 66.4614 410.677 57.5526 415.023 49.3352C419.225 41.3897 424.859 34.4148 431.77 28.6042C438.679 22.7918 446.516 18.4387 455.062 15.6658C463.904 12.7969 473.127 11.7517 482.474 12.5622C491.823 13.3728 500.729 15.9875 508.945 20.337C516.886 24.5408 523.858 30.1773 529.666 37.0917C535.476 44.008 539.828 51.8485 542.598 60.3948C545.466 69.2396 546.51 78.4684 545.7 87.8198C544.89 97.1713 542.277 106.08 537.929 114.301C534.372 121.029 529.764 127.088 524.229 132.314C523.257 133.233 522.232 134.147 521.182 135.03C514.273 140.843 506.436 145.196 497.89 147.969C490.988 150.21 483.849 151.337 476.599 151.337V151.342ZM476.359 13.6181C469.247 13.6181 462.245 14.7237 455.471 16.9225C447.086 19.6438 439.399 23.9151 432.619 29.6174C425.837 35.3178 420.31 42.1594 416.188 49.9555C411.926 58.0147 409.361 66.7565 408.567 75.9355C407.772 85.1145 408.796 94.1655 411.608 102.838C414.328 111.224 418.596 118.917 424.297 125.7C426.543 128.373 428.995 130.882 431.589 133.153C435.551 136.634 439.937 139.655 444.626 142.137C452.681 146.401 461.417 148.968 470.592 149.762C479.766 150.557 488.815 149.533 497.483 146.719C505.867 143.998 513.555 139.728 520.335 134.024C521.365 133.157 522.373 132.261 523.325 131.358C528.754 126.232 533.274 120.286 536.764 113.686C541.026 105.623 543.591 96.8815 544.386 87.7078C545.18 78.5324 544.156 69.4796 541.344 60.8036C538.626 52.4191 534.356 44.7279 528.655 37.9414C522.957 31.1567 516.117 25.6269 508.326 21.5048C500.267 17.2406 491.53 14.6739 482.359 13.8794C480.351 13.7052 478.349 13.6181 476.357 13.6181H476.359Z" fill="#000206"/>
<path d="M458.889 62.3357C453.054 64.1771 449.595 70.9174 451.786 77.0871C461.088 78.8771 475.868 71.6053 475.868 71.6053C475.868 71.6053 476.05 68.0183 476.586 64.1345L459.71 50.5686C460.777 54.1823 464.327 60.6204 458.891 62.3357H458.889Z" fill="#000206"/>
<path d="M523.778 131.838C522.801 132.762 521.794 133.658 520.76 134.529C513.912 140.288 506.15 144.598 497.688 147.346C488.934 150.189 479.797 151.223 470.535 150.42C461.275 149.616 452.452 147.026 444.317 142.719C439.564 140.204 435.163 137.172 431.153 133.649C432.107 124.548 436.1 92.8268 446.406 81.0882C458.494 67.3179 488.602 69.5878 496.785 73.3632C504.592 76.9627 527.763 89.0194 523.776 131.839L523.778 131.838Z" fill="#222A38"/>
<path d="M476.599 151.342C474.566 151.342 472.525 151.253 470.476 151.076C461.126 150.265 452.219 147.649 444.008 143.301C439.228 140.771 434.756 137.691 430.718 134.143C430.556 134.001 430.475 133.791 430.498 133.578C431.486 124.155 435.515 92.491 445.912 80.6493C452.722 72.8905 464.411 70.5673 473.017 69.9843C483.338 69.284 492.926 70.8517 497.064 72.7607C499.894 74.0654 508.508 78.0381 515.243 87.5087C523.062 98.5025 526.154 113.437 524.435 131.898C524.421 132.058 524.348 132.206 524.231 132.316C523.259 133.235 522.234 134.148 521.182 135.034C514.273 140.846 506.436 145.199 497.89 147.972C490.988 150.214 483.849 151.34 476.599 151.34V151.342ZM431.846 133.377C435.741 136.763 440.038 139.709 444.626 142.135C452.681 146.399 461.417 148.966 470.592 149.76C479.767 150.555 488.815 149.531 497.483 146.717C505.867 143.996 513.555 139.726 520.335 134.022C521.301 133.21 522.245 132.371 523.144 131.527C524.951 111.636 521.76 85.6032 496.512 73.9606C492.622 72.1671 483.098 70.626 473.106 71.3032C461.291 72.1048 451.985 75.7327 446.904 81.5221C436.885 92.9336 432.884 123.652 431.846 133.375V133.377Z" fill="#000206"/>
<path d="M459.187 72.4281C459.187 72.4281 461.776 81.8507 463.476 84.4956C468.659 84.9453 473.429 84.9044 473.429 84.9044L466.754 89.8903C466.754 89.8903 482.723 111.259 485.18 126.121L487.77 126.345C487.77 126.345 488.764 104.402 485.331 91.6145C481.898 78.8271 474.285 69.7637 474.285 69.7637L459.186 72.4281H459.187Z" fill="#8C193C"/>
<path d="M487.772 127.006C487.753 127.006 487.735 127.006 487.715 127.005L485.125 126.781C484.825 126.754 484.579 126.528 484.532 126.231C482.128 111.7 466.386 90.5001 466.227 90.2886C466.122 90.1481 466.077 89.9722 466.102 89.798C466.127 89.6238 466.219 89.4691 466.36 89.3643L471.461 85.5533C469.574 85.5213 466.561 85.4289 463.419 85.1569C463.215 85.1391 463.032 85.0289 462.922 84.8565C461.186 82.1565 458.658 72.9953 458.551 72.606C458.502 72.4265 458.53 72.2345 458.629 72.0781C458.729 71.9217 458.889 71.8132 459.072 71.7812L474.172 69.1168C474.405 69.0759 474.641 69.1612 474.792 69.3425C474.868 69.4349 482.54 78.6655 485.971 91.4475C489.391 104.187 488.442 126.158 488.433 126.379C488.424 126.558 488.344 126.727 488.209 126.846C488.088 126.953 487.934 127.01 487.774 127.01L487.772 127.006ZM485.743 125.508L487.138 125.629C487.268 121.814 487.722 103.067 484.695 91.787C481.682 80.5568 475.323 72.1314 474.017 70.4819L460.021 72.9526C460.628 75.082 462.511 81.4864 463.867 83.8665C468.828 84.2771 473.376 84.2451 473.424 84.2451H473.429C473.712 84.2451 473.964 84.4264 474.055 84.6948C474.145 84.9649 474.053 85.2636 473.824 85.4342L467.674 90.0273C470.174 93.449 483.236 111.832 485.743 125.508Z" fill="#000206"/>
<path d="M506.333 56.1909C506.333 56.1909 504.185 61.3421 507.722 67.6665C511.26 73.9908 508.593 77.281 503.24 77.4978C493.923 74.9862 492.969 74.2219 492.969 74.2219L496.732 60.9226L506.335 56.1909H506.333Z" fill="#000206"/>
<path d="M496.298 72.4675C496.298 72.4675 488.328 105.085 487.772 126.347L490.388 125.855C490.388 125.855 500.01 101.254 506.093 93.9077C503.498 91.5632 501.364 89.1067 501.364 89.1067L506.216 88.9983C506.216 88.9983 508.497 82.761 508.254 78.5768C503.528 74.6094 496.298 72.4675 496.298 72.4675Z" fill="#8C193C"/>
<path d="M487.772 127.007C487.616 127.007 487.465 126.951 487.344 126.848C487.193 126.719 487.108 126.528 487.113 126.328C487.664 105.239 495.577 72.6364 495.657 72.3093C495.7 72.1333 495.813 71.984 495.97 71.8934C496.126 71.8027 496.313 71.7814 496.487 71.8329C496.787 71.9218 503.903 74.0584 508.678 78.0684C508.817 78.1857 508.902 78.3546 508.913 78.5359C509.161 82.8072 506.932 88.9627 506.836 89.2222C506.742 89.4782 506.502 89.6488 506.232 89.6559L502.824 89.7324C503.684 90.6584 505.038 92.0609 506.537 93.4153C506.8 93.6517 506.829 94.0534 506.603 94.3272C500.657 101.507 491.1 125.848 491.004 126.093C490.92 126.304 490.736 126.459 490.512 126.502L487.897 126.994C487.856 127.001 487.815 127.005 487.774 127.005L487.772 127.007ZM496.775 73.3136C495.646 78.0702 489.122 106.304 488.458 125.545L489.908 125.272C491.111 122.225 499.436 101.411 505.192 93.977C502.805 91.764 500.886 89.5635 500.866 89.5386C500.699 89.3449 500.657 89.0729 500.761 88.8383C500.864 88.6036 501.094 88.4508 501.35 88.4454L505.743 88.3459C506.223 86.931 507.706 82.2651 507.607 78.8967C503.871 75.8572 498.61 73.9286 496.775 73.3118V73.3136Z" fill="#000206"/>
<path d="M496.256 65.0818L495.222 79.6395C495.222 79.6395 492.486 83.7171 485.393 81.7406C478.301 79.7622 475.188 72.4531 475.188 72.4531C475.188 72.4531 475.305 56.6796 475.24 48.272C475.174 39.8627 475.733 15.0452 492.798 17.2049C509.863 19.3663 512.066 31.9332 511.766 43.263C511.396 57.2093 506.308 66.9766 496.256 65.0836V65.0818Z" fill="#222A38"/>
<path d="M489.087 82.9476C487.961 82.9476 486.674 82.7841 485.216 82.377C477.901 80.3382 474.712 73.022 474.58 72.7128C474.545 72.6292 474.527 72.5403 474.527 72.4497C474.527 72.2915 474.644 56.5855 474.579 48.2775C474.536 42.8365 474.874 38.199 475.609 34.1001C476.826 27.3207 479.097 22.4148 482.355 19.5193C485.166 17.0219 488.707 16.0229 492.882 16.5509C500.761 17.548 506.31 20.888 509.373 26.48C512.363 31.9369 512.548 38.6825 512.425 43.2827C512.169 52.9523 509.673 60.1796 505.398 63.6333C503.011 65.5619 500.143 66.3066 496.863 65.8534L495.881 79.6912C495.872 79.8067 495.835 79.917 495.771 80.0129C495.671 80.1605 493.731 82.9511 489.087 82.9511V82.9476ZM475.849 72.3128C476.284 73.2424 479.36 79.373 485.569 81.1043C491.421 82.7361 494.06 80.0254 494.577 79.3979L495.597 65.0357C495.611 64.8473 495.703 64.6749 495.852 64.5594C496.002 64.4438 496.194 64.3994 496.378 64.4332C499.566 65.034 502.321 64.4172 504.569 62.6023C508.538 59.3975 510.86 52.5221 511.105 43.2454C511.389 32.5466 509.554 19.9921 492.715 17.8609C488.936 17.3827 485.745 18.2715 483.231 20.5058C479.811 23.5471 475.762 30.8313 475.899 48.2668C475.961 56.1553 475.86 70.6988 475.849 72.3128Z" fill="#000206"/>
<path d="M498.349 14.0534C493.074 11.1738 479.457 13.5504 473.429 24.61C468.593 25.4027 463.119 30.0758 465.578 41.8713C460.857 42.2197 458.827 46.4341 459.518 49.8238C459.564 50.0549 459.63 50.3037 459.708 50.5686L474.952 68.1943C475.423 64.7815 477.798 57.0796 478.932 55.4425C480.706 52.4172 475.028 48.9724 476.577 42.4454C478.127 35.9184 479.637 41.1958 483.633 40.483C487.628 39.7703 487.838 32.5589 487.838 32.5589C487.838 32.5589 493.85 30.8472 497.046 28.021C500.243 25.1948 503.625 16.9329 498.35 14.0534H498.349Z" fill="#000206"/>
<path d="M496.801 18.1773C496.801 18.1773 495.895 26.6719 504.226 32.0489C512.557 37.4258 513.905 31.0144 513.905 31.0144C513.905 31.0144 514.982 19.242 506.589 17.2085C498.196 15.1751 496.801 18.1773 496.801 18.1773Z" fill="#000206"/>
<path d="M496.257 65.7431C496.206 65.7431 496.154 65.7378 496.103 65.7253L487.207 63.5923C486.852 63.507 486.635 63.1515 486.719 62.796C486.802 62.4405 487.161 62.2237 487.515 62.3072L496.41 64.4402C496.766 64.5255 496.982 64.881 496.899 65.2365C496.826 65.5387 496.556 65.7431 496.257 65.7431Z" fill="#000206"/>
<path d="M300.604 288.37L294.08 282.431C292.417 280.917 292.296 278.341 293.808 276.677L404.569 154.297C406.083 152.633 408.657 152.512 410.32 154.025L416.844 159.963C418.507 161.478 418.628 164.053 417.116 165.717L306.355 288.098C304.841 289.762 302.267 289.882 300.604 288.37Z" fill="#8C193C"/>
<path d="M303.34 290.089C302.203 290.089 301.064 289.682 300.16 288.859L293.636 282.92C292.701 282.069 292.154 280.906 292.094 279.642C292.033 278.38 292.47 277.17 293.32 276.235L404.079 153.856C405.836 151.924 408.833 151.783 410.763 153.539L417.286 159.478C419.216 161.234 419.358 164.233 417.603 166.163L306.844 288.542C305.911 289.568 304.628 290.089 303.34 290.089ZM407.581 153.628C406.653 153.628 405.727 154.003 405.056 154.743L294.297 277.122C293.682 277.797 293.369 278.67 293.412 279.58C293.455 280.49 293.849 281.329 294.524 281.942L301.048 287.881C302.439 289.147 304.601 289.045 305.866 287.653L416.626 165.274C417.892 163.881 417.789 161.719 416.398 160.454L409.874 154.515C409.222 153.921 408.4 153.628 407.581 153.628Z" fill="#000206"/>
<path d="M505.994 144.653C505.994 144.653 505.985 144.653 505.979 144.653C505.615 144.646 505.326 144.344 505.334 143.98L505.635 130.019C505.642 129.655 505.951 129.369 506.308 129.374C506.672 129.381 506.962 129.683 506.953 130.048L506.653 144.008C506.646 144.367 506.351 144.653 505.994 144.653Z" fill="#000206"/>
<path d="M447.46 144.291C447.405 144.291 447.349 144.284 447.294 144.27C446.941 144.179 446.729 143.818 446.82 143.466L450.073 130.803C450.164 130.449 450.524 130.238 450.876 130.329C451.23 130.419 451.441 130.78 451.351 131.132L448.097 143.795C448.021 144.094 447.753 144.291 447.46 144.291Z" fill="#000206"/>
<path d="M328.43 261.231C332.84 259.176 336.848 256.138 340.254 251.63C340.254 251.63 341.195 257.717 340.767 261.574C340.339 265.431 339.824 271.775 337.425 274.603C335.027 277.431 330.807 277.388 327.378 277.817C323.951 278.245 316.432 278.803 316.432 278.803C316.432 278.803 232.369 279.569 228.095 265.474C222.889 248.308 238.698 231.913 238.698 231.913L267.037 244.449C267.037 244.449 265.216 246.785 263.759 253.129C272.7 255.953 308.377 262.562 315.332 263.422C315.332 263.422 317.889 263.117 320.03 257.973C322.173 252.828 326.371 249.487 328.769 248.372C331.168 247.258 331.768 251.03 330.397 253.086C329.025 255.143 324.914 261.915 328.426 261.229L328.43 261.231Z" fill="#222A38"/>
<path d="M314.316 279.471C308.432 279.471 291.209 279.352 273.821 278.085C261.276 277.171 251.094 275.847 243.559 274.15C233.794 271.951 228.53 269.176 227.466 265.667C225.286 258.479 226.46 250.278 230.863 241.95C234.169 235.695 238.06 231.628 238.225 231.458C238.417 231.259 238.714 231.2 238.968 231.312L267.307 243.849C267.494 243.93 267.631 244.094 267.68 244.291C267.73 244.488 267.686 244.698 267.561 244.858C267.545 244.878 265.918 247.048 264.548 252.681C274.179 255.539 308.217 261.858 315.313 262.756C315.663 262.66 317.669 261.943 319.428 257.72C321.462 252.837 325.555 249.142 328.498 247.775C329.496 247.311 330.429 247.466 331.058 248.2C332.076 249.387 332.026 251.844 330.953 253.454C328.579 257.016 327.385 260.011 327.76 260.573C327.782 260.605 327.924 260.648 328.231 260.598C332.843 258.433 336.606 255.37 339.73 251.234C339.89 251.023 340.16 250.927 340.417 250.992C340.675 251.056 340.868 251.27 340.908 251.531C340.947 251.783 341.858 257.749 341.425 261.648C341.393 261.935 341.361 262.233 341.327 262.544C340.886 266.643 340.282 272.258 337.93 275.031C335.725 277.632 332.186 277.987 329.064 278.3C328.506 278.357 327.979 278.408 327.464 278.474C324.059 278.901 316.56 279.457 316.485 279.463C316.471 279.463 316.457 279.463 316.443 279.463C316.404 279.463 315.652 279.47 314.318 279.47L314.316 279.471ZM238.865 232.709C237.875 233.806 234.704 237.498 232.014 242.597C229.068 248.177 226.108 256.643 228.729 265.283C229.349 267.326 232.474 270.298 243.845 272.859C251.316 274.542 261.432 275.856 273.909 276.766C294.887 278.295 315.626 278.149 316.407 278.144C316.855 278.11 324.017 277.573 327.298 277.162C327.83 277.097 328.364 277.042 328.931 276.985C331.946 276.683 335.062 276.368 336.922 274.174C339.012 271.711 339.614 266.108 340.014 262.4C340.048 262.087 340.08 261.787 340.112 261.499C340.396 258.934 340.051 255.294 339.806 253.259C336.731 256.975 333.087 259.787 328.709 261.828C328.661 261.851 328.609 261.867 328.556 261.878C327.448 262.095 326.913 261.684 326.659 261.304C326.124 260.5 326.378 259.087 327.458 256.856C328.355 255.006 329.517 253.223 329.851 252.72C330.638 251.54 330.621 249.72 330.052 249.057C329.951 248.938 329.713 248.662 329.05 248.97C327.098 249.876 322.826 252.978 320.641 258.225C318.378 263.662 315.531 264.062 315.412 264.076C315.359 264.084 315.306 264.084 315.253 264.076C308.224 263.207 272.399 256.551 263.56 253.758C263.232 253.655 263.038 253.316 263.116 252.981C264.166 248.406 265.41 245.861 266.064 244.741L238.863 232.707L238.865 232.709Z" fill="#000206"/>
<path d="M280.533 236.543C280.533 236.543 276.484 245.608 264.338 252.551C249.686 233.843 228.48 231.914 228.48 231.914L278.148 182.855L280.533 236.543Z" fill="#222A38"/>
<path d="M264.34 253.213C264.143 253.213 263.949 253.124 263.82 252.96C256.342 243.411 247.105 238.376 240.673 235.832C233.709 233.079 228.473 232.578 228.421 232.572C228.165 232.549 227.947 232.38 227.86 232.137C227.773 231.893 227.835 231.625 228.018 231.443L277.687 182.384C277.946 182.129 278.363 182.13 278.619 182.39C278.875 182.649 278.873 183.067 278.614 183.323L229.905 231.435C231.939 231.755 236.072 232.588 241.16 234.6C247.643 237.163 256.908 242.201 264.504 251.691C275.92 244.986 279.893 236.358 279.932 236.269C280.081 235.937 280.472 235.788 280.805 235.937C281.137 236.086 281.286 236.476 281.137 236.808C280.968 237.187 276.86 246.151 264.667 253.12C264.564 253.179 264.452 253.207 264.34 253.207V253.213Z" fill="#000206"/>
<path d="M90.1595 137.298L76.6853 142.691C76.6853 142.691 74.9921 159.12 75.2195 178.205L98.0301 167.359C94.1854 150.869 90.1595 137.3 90.1595 137.3V137.298Z" fill="#222A38"/>
<path d="M75.2194 178.865C75.0986 178.865 74.976 178.831 74.8694 178.765C74.6793 178.646 74.562 178.438 74.5585 178.213C74.3328 159.309 76.01 142.787 76.0278 142.624C76.0527 142.38 76.2108 142.169 76.44 142.078L89.9142 136.687C90.0865 136.617 90.2802 136.625 90.4472 136.706C90.6142 136.788 90.7404 136.934 90.7919 137.113C90.8327 137.248 94.8693 150.891 98.6732 167.21C98.7442 167.512 98.5932 167.823 98.3143 167.956L75.5037 178.803C75.413 178.845 75.3171 178.867 75.2212 178.867L75.2194 178.865ZM77.3016 143.155C77.0547 145.724 75.7275 160.39 75.8679 177.166L97.2643 166.991C93.9934 153.024 90.584 141.123 89.7277 138.183L77.2999 143.157L77.3016 143.155Z" fill="#000206"/>
<path d="M138.915 155.61C126.306 162.222 108.056 208.512 104.2 192.31C102.774 183.083 100.702 173.172 98.5826 164.073L73.6453 175.932C73.8993 197.14 76.3227 221.344 85.0674 232.736C102.417 255.333 144.317 206.208 144.317 206.208C144.317 206.208 151.525 148.998 138.916 155.61H138.915Z" fill="#8C193C"/>
<path d="M96.9339 239.339C96.7775 239.339 96.623 239.337 96.4702 239.334C91.6163 239.209 87.6028 237.124 84.5434 233.139C80.4908 227.86 77.4545 219.445 75.5197 208.128C73.9847 199.148 73.1319 188.318 72.9844 175.941C72.9809 175.683 73.1283 175.447 73.3611 175.337L98.2984 163.477C98.4796 163.392 98.6875 163.392 98.8687 163.477C99.0481 163.564 99.1796 163.728 99.2258 163.922C101.694 174.507 103.586 184.014 104.849 192.18C105.146 193.412 105.688 194.9 106.601 195.051C107.388 195.181 108.983 194.477 112.123 190.376C114.562 187.191 117.339 182.777 120.281 178.106C126.508 168.218 132.945 157.992 138.609 155.022C140.173 154.202 141.573 154.206 142.767 155.036C144.7 156.378 145.943 159.851 146.569 165.655C147.048 170.106 147.151 175.909 146.876 182.905C146.407 194.79 144.986 206.173 144.971 206.287C144.955 206.414 144.902 206.535 144.819 206.633C144.748 206.717 137.646 215.009 128.223 223.127C122.678 227.904 117.419 231.692 112.597 234.387C106.714 237.672 101.448 239.336 96.9357 239.336L96.9339 239.339ZM74.308 176.348C74.674 203.842 78.572 223.196 85.5881 232.334C88.3935 235.989 92.0658 237.899 96.5022 238.013C104.389 238.212 115.056 232.729 127.347 222.142C136.006 214.683 142.688 207.077 143.685 205.927C145.263 193.281 147.976 160.263 142.013 156.124C141.244 155.589 140.329 155.612 139.22 156.193C133.873 158.998 127.244 169.524 121.397 178.812C114.589 189.626 110.152 196.388 106.784 196.388C106.649 196.388 106.515 196.377 106.384 196.356C105.053 196.135 104.129 194.861 103.557 192.463C103.554 192.445 103.55 192.429 103.547 192.411C102.319 184.477 100.496 175.266 98.1225 165.022L74.3063 176.346L74.308 176.348Z" fill="#000206"/>
<path d="M143.271 485.352C143.271 485.352 144.428 512.354 142.692 515.054C96.8094 517.368 77.1453 514.86 77.1453 514.86C77.1453 514.86 70.783 511.967 77.1453 506.181C83.5075 500.395 116.28 485.93 116.28 485.93L143.269 485.35L143.271 485.352Z" fill="#000206"/>
<path d="M112.563 252.386C112.563 252.386 112.08 459.346 113.389 485.546C126.114 499.819 144.62 485.74 144.62 485.74C144.62 485.74 159.044 370.942 164.282 329.677C169.52 288.412 162.319 256.318 162.319 256.318L112.563 252.388V252.386Z" fill="#222A38"/>
<path d="M127.306 492.594C121.702 492.594 116.801 490.365 112.897 485.985C112.798 485.873 112.737 485.729 112.73 485.578C111.435 459.66 111.899 254.453 111.904 252.384C111.904 252.201 111.982 252.025 112.117 251.901C112.252 251.776 112.434 251.714 112.617 251.728L162.372 255.658C162.66 255.681 162.902 255.889 162.964 256.172C162.981 256.252 164.787 264.389 165.924 277.465C166.972 289.523 167.652 308.386 164.939 329.759C159.762 370.551 145.421 484.673 145.277 485.82C145.256 485.996 145.163 486.156 145.021 486.262C144.828 486.41 140.222 489.88 133.954 491.629C131.65 492.272 129.427 492.592 127.306 492.592V492.594ZM114.038 485.279C119.105 490.848 125.673 492.562 133.563 490.368C138.847 488.9 143.019 486.074 144.001 485.374C144.804 478.98 158.577 369.39 163.628 329.593C166.325 308.347 165.65 289.596 164.611 277.609C163.637 266.394 162.171 258.845 161.777 256.936L113.222 253.101C113.194 266.455 112.796 459.227 114.038 485.279Z" fill="#000206"/>
<path d="M224.426 499.167C224.426 499.167 228.095 511.792 230.408 516.421C232.721 521.05 260.352 536.203 267.679 533.888C275.004 531.574 278.518 523.458 276.205 521.144C273.892 518.829 258.651 503.403 257.399 502.148C256.146 500.895 247.952 489.031 247.952 489.031L224.426 499.165V499.167Z" fill="#000206"/>
<path d="M151.844 301.511C151.844 301.511 192.961 429.377 208.146 465.915C220.126 494.739 224.513 501.94 224.513 501.94C224.513 501.94 238.916 501.94 249.392 492.116C235.644 414.826 221.894 367.666 219.275 352.601C212.074 287.756 185.886 249.112 185.886 249.112L146.604 251.732L151.842 301.511H151.844Z" fill="#222A38"/>
<path d="M224.515 502.599C224.284 502.599 224.07 502.48 223.951 502.283C223.772 501.988 219.401 494.711 207.538 466.168C192.515 430.022 151.627 302.991 151.216 301.711C151.104 301.365 151.296 300.992 151.643 300.881C151.989 300.769 152.362 300.961 152.472 301.308C152.883 302.586 193.755 429.565 208.757 465.661C219.225 490.85 223.93 499.57 224.889 501.27C227.183 501.179 239.481 500.304 248.679 491.876C239.254 438.958 229.718 399.712 224.017 376.246C221.365 365.332 219.449 357.445 218.627 352.713C218.625 352.701 218.623 352.687 218.621 352.672C214.912 319.275 206.062 292.996 199.291 276.834C192.684 261.062 186.72 251.593 185.549 249.794L146.65 252.389C146.286 252.412 145.972 252.139 145.949 251.774C145.924 251.41 146.199 251.095 146.563 251.072L185.845 248.452C186.08 248.436 186.304 248.546 186.435 248.74C186.501 248.838 193.105 258.66 200.492 276.283C204.827 286.624 208.585 297.598 211.66 308.9C215.503 323.018 218.286 337.688 219.933 352.507C220.75 357.2 222.66 365.06 225.302 375.933C231.021 399.467 240.592 438.858 250.043 491.998C250.083 492.219 250.008 492.443 249.844 492.595C244.33 497.768 237.742 500.212 233.186 501.351C228.254 502.585 224.666 502.599 224.515 502.599Z" fill="#000206"/>
<path d="M140.715 153.973C128.93 162.653 111.908 201.624 112.563 252.386C154.136 260.9 193.091 259.263 193.091 259.263C193.091 259.263 210.767 175.424 197.346 153.154C165.266 143.983 152.499 145.293 140.715 153.973Z" fill="#8C193C"/>
<path d="M185.126 260.04C171.556 260.04 142.543 259.199 112.43 253.031C112.126 252.969 111.906 252.702 111.902 252.393C111.527 223.379 116.831 200.922 121.347 187.191C124.046 178.982 127.274 171.497 130.68 165.544C133.915 159.89 137.25 155.704 140.324 153.441C146.864 148.626 153.165 146.463 161.399 146.211C170.179 145.942 181.32 147.887 197.527 152.519C197.687 152.565 197.826 152.67 197.911 152.812C201.032 157.992 202.745 166.842 203.003 179.114C203.207 188.869 202.502 200.819 200.906 214.635C198.193 238.138 193.78 259.19 193.736 259.4C193.673 259.695 193.419 259.91 193.117 259.923C193.013 259.926 190.111 260.04 185.126 260.04ZM113.215 251.844C151.488 259.608 187.83 258.769 192.547 258.62C193.233 255.278 197.122 235.894 199.595 214.472C203.134 183.808 202.207 162.814 196.911 153.713C163.557 144.207 151.938 146.523 141.105 154.501C134.903 159.069 127.812 171.751 122.601 187.601C118.146 201.153 112.917 223.269 113.217 251.842L113.215 251.844Z" fill="#000206"/>
<path d="M152.336 148.164C152.336 148.164 150.724 154.504 152.867 160.805L158.378 158.735L158.865 146.847C158.865 146.847 155.713 144.787 152.336 148.164Z" fill="#222A38"/>
<path d="M152.867 161.467C152.771 161.467 152.673 161.445 152.584 161.403C152.423 161.326 152.3 161.188 152.242 161.019C150.062 154.606 151.629 148.267 151.696 148C151.725 147.885 151.785 147.78 151.868 147.696C155.58 143.983 159.188 146.269 159.224 146.292C159.419 146.42 159.531 146.639 159.522 146.872L159.036 158.76C159.025 159.025 158.856 159.257 158.609 159.35L153.098 161.421C153.023 161.449 152.945 161.463 152.865 161.463L152.867 161.467ZM152.936 148.502C152.716 149.508 151.717 154.695 153.284 159.945L157.737 158.273L158.188 147.238C157.403 146.886 155.269 146.271 152.936 148.503V148.502Z" fill="#000206"/>
<path d="M157.163 140.053C157.163 140.053 157.408 156.019 157.9 159.211C164.774 165.843 182.205 149.632 182.205 149.632C182.205 149.632 181.37 130.398 182.598 118.117C183.825 105.836 184.662 83.9588 161.585 87.6436C138.508 91.3283 142.886 122.168 144.993 131.916C147.015 141.265 157.163 140.053 157.163 140.053Z" fill="#222A38"/>
<path d="M162.159 161.46C160.366 161.46 158.744 160.942 157.442 159.687C157.339 159.588 157.269 159.455 157.248 159.312C156.809 156.458 156.569 143.903 156.516 140.757C155.528 140.791 153.656 140.745 151.643 140.121C148.93 139.278 145.462 137.197 144.35 132.054C143.124 126.386 139.736 106.993 147.617 95.4611C150.802 90.8005 155.468 87.9493 161.482 86.9895C168.638 85.8466 174.158 87.0535 177.889 90.5729C184.472 96.7835 184.216 108.59 183.257 118.181C182.049 130.273 182.857 149.41 182.866 149.602C182.875 149.796 182.798 149.982 182.656 150.114C182.058 150.67 170.346 161.454 162.161 161.456L162.159 161.46ZM158.522 158.888C161.804 161.778 167.789 159.124 172.27 156.356C176.717 153.61 180.585 150.208 181.533 149.351C181.434 146.818 180.809 129.388 181.942 118.051C182.871 108.76 183.147 97.3505 176.982 91.5346C173.563 88.3102 168.418 87.2206 161.688 88.2942C156.045 89.1954 151.677 91.8581 148.704 96.2076C141.121 107.305 144.44 126.237 145.638 131.775C146.419 135.389 148.557 137.767 151.991 138.846C154.619 139.671 157.06 139.399 157.085 139.396C157.271 139.374 157.456 139.431 157.596 139.555C157.737 139.678 157.818 139.856 157.822 140.043C157.824 140.199 158.062 155.308 158.52 158.886L158.522 158.888Z" fill="#000206"/>
<path d="M220.106 287.083C220.106 287.083 229.274 274.27 234.844 258.399L213.806 248.477C210.587 263.41 201.693 282.989 201.693 282.989C201.693 282.989 197.507 287.205 190.568 287.205C183.628 287.205 182.814 289.905 184.312 291.405C185.811 292.906 193.652 292.177 197.422 292.177C195.707 301.521 189.111 306.921 189.624 309.065C190.138 311.209 195.793 316.351 205.303 312.323C213.842 308.706 218.978 291.244 219.939 287.712C220.083 287.514 220.138 287.301 220.105 287.084L220.106 287.083Z" fill="#222A38"/>
<path d="M198.554 314.47C195.974 314.47 194.061 313.782 192.895 313.196C190.569 312.021 189.255 310.352 188.983 309.22C188.711 308.091 189.647 306.694 191.063 304.58C192.95 301.765 195.501 297.959 196.614 292.847C195.939 292.861 195.178 292.888 194.386 292.915C189.013 293.103 185.112 293.139 183.847 291.873C183.061 291.087 182.816 290.076 183.193 289.169C183.598 288.19 185.096 286.546 190.569 286.546C196.624 286.546 200.544 283.158 201.146 282.602C201.885 280.957 210.125 262.438 213.163 248.338C213.206 248.141 213.336 247.976 213.517 247.885C213.698 247.796 213.908 247.795 214.091 247.88L235.128 257.802C235.434 257.946 235.581 258.298 235.469 258.618C230.294 273.366 221.924 285.636 220.776 287.282C220.764 287.527 220.688 287.765 220.552 287.987C219.522 291.743 214.306 309.228 205.565 312.931C202.868 314.074 200.519 314.472 198.556 314.472L198.554 314.47ZM197.422 291.517C197.618 291.517 197.804 291.605 197.928 291.756C198.055 291.907 198.106 292.104 198.071 292.298C197.01 298.078 194.091 302.435 192.16 305.316C191.117 306.873 190.131 308.345 190.266 308.912C190.422 309.563 191.435 310.981 193.49 312.017C195.338 312.951 199.296 314.15 205.048 311.715C213.309 308.215 218.373 290.961 219.303 287.538C219.325 287.459 219.36 287.387 219.407 287.323C219.463 287.246 219.456 287.203 219.453 287.184C219.426 287.013 219.469 286.839 219.568 286.699C219.659 286.572 228.53 274.08 234.021 258.742L214.272 249.428C210.935 264.153 202.381 283.071 202.294 283.265C202.262 283.336 202.216 283.401 202.16 283.456C201.981 283.636 197.699 287.866 190.566 287.866C186.579 287.866 184.772 288.801 184.41 289.674C184.181 290.225 184.543 290.703 184.778 290.94C185.735 291.898 191.12 291.709 194.338 291.596C195.478 291.555 196.557 291.517 197.42 291.517H197.422Z" fill="#000206"/>
<path d="M188.18 193.764C188.18 193.764 207.954 210.792 213.247 235.359C214.448 239.184 213.911 245.13 212.471 251.819C219.312 257.935 226.824 262.256 234.844 265.219C239.199 252.807 245.861 237.97 242.846 225.533C236.718 200.247 207.935 155.725 197.346 153.157L188.18 193.768V193.764Z" fill="#8C193C"/>
<path d="M234.844 265.877C234.766 265.877 234.689 265.863 234.615 265.836C226.067 262.678 218.68 258.252 212.03 252.309C211.852 252.151 211.774 251.909 211.824 251.678C213.405 244.344 213.671 238.919 212.616 235.556C212.611 235.537 212.605 235.517 212.6 235.498C209.894 222.94 203.289 212.405 198.223 205.778C192.721 198.581 187.796 194.308 187.748 194.265C187.473 194.027 187.441 193.611 187.679 193.334C187.917 193.056 188.333 193.026 188.61 193.264C188.66 193.307 193.67 197.651 199.252 204.948C204.403 211.683 211.122 222.392 213.885 235.19C214.979 238.715 214.748 244.229 213.195 251.579C219.481 257.137 226.442 261.327 234.444 264.363C234.983 262.845 235.546 261.311 236.137 259.697C240.176 248.685 244.752 236.203 242.205 225.684C239.433 214.244 231.388 197.191 221.212 181.176C211.374 165.695 201.945 154.947 197.189 153.793C196.836 153.708 196.617 153.351 196.704 152.995C196.79 152.641 197.147 152.423 197.502 152.51C203.656 154.003 214.361 167.931 222.327 180.466C232.577 196.595 240.686 213.802 243.489 225.373C246.133 236.282 241.482 248.962 237.378 260.15C236.704 261.984 236.07 263.716 235.468 265.433C235.409 265.6 235.286 265.737 235.126 265.811C235.038 265.852 234.942 265.873 234.846 265.873L234.844 265.877Z" fill="#000206"/>
<path d="M139.608 101.338C139.608 101.338 139.028 109.631 151.753 109.631C164.477 109.631 162.742 110.403 164.284 115.225C165.826 120.047 166.983 115.805 171.994 113.297C177.006 110.788 179.32 115.805 177.778 120.625C176.235 125.448 175.656 131.04 178.357 132.584C181.057 134.129 186.067 134.127 188.381 130.27C190.694 126.413 187.801 121.398 186.067 117.347C191.273 105.388 188.766 99.9884 184.717 97.0964C186.453 83.9802 178.741 80.8945 170.065 83.2088C157.534 78.7722 150.015 83.7883 148.665 90.3455C140.761 91.8883 137.676 92.8535 139.604 101.339L139.608 101.338Z" fill="#000206"/>
<path d="M291.751 132.776L288.638 134.575C288.638 134.575 281.691 143.192 284.903 152.449C288.116 161.707 284.132 163.765 277.834 170.066C271.536 176.368 277.843 185.239 285.93 187.296C294.019 189.352 307.394 189.061 307.394 180.317C307.394 171.574 302.983 155.112 302.983 150.245C298.14 142.549 291.749 132.776 291.749 132.776H291.751Z" fill="#000206"/>
<path d="M90.1594 137.298C90.1594 137.298 93.917 123.132 92.7604 118.889C91.6038 114.646 82.9923 109.116 82.9923 109.116C79.7659 107.658 77.9626 109.566 79.7801 113.489C79.7801 113.489 83.8931 117.344 83.8931 120.046C83.8931 122.748 79.7801 128.018 79.7801 128.917C79.7801 129.817 82.9923 134.189 82.9923 134.189L90.1576 137.298H90.1594Z" fill="#222A38"/>
<path d="M90.1593 137.959C90.1025 137.959 90.0456 137.952 89.9888 137.938C89.637 137.844 89.4273 137.483 89.5197 137.131C89.557 136.991 93.2187 123.089 92.1225 119.065C91.085 115.257 83.3085 110.113 82.676 109.701C81.5105 109.185 80.5422 109.155 80.0785 109.622C79.5189 110.188 79.6148 111.514 80.3272 113.099C81.0663 113.808 84.5522 117.294 84.5522 120.048C84.5522 121.946 82.9123 124.669 81.594 126.857C81.1196 127.646 80.5316 128.62 80.4445 128.93C80.5724 129.523 82.1252 131.896 83.5252 133.8C83.742 134.093 83.678 134.507 83.3849 134.723C83.0917 134.939 82.6778 134.875 82.4628 134.582C81.2156 132.885 79.1209 129.891 79.1209 128.919C79.1209 128.427 79.5331 127.723 80.4641 126.175C81.5674 124.344 83.2339 121.576 83.2339 120.046C83.2339 118.067 80.4161 114.989 79.3288 113.97C79.2666 113.912 79.2168 113.842 79.1813 113.766C78.1562 111.551 78.1419 109.702 79.1422 108.691C80.0288 107.795 81.5318 107.731 83.2659 108.515C83.2961 108.528 83.3245 108.544 83.3511 108.561C83.7118 108.792 92.19 114.278 93.4 118.716C94.5903 123.08 90.9553 136.884 90.7989 137.469C90.7207 137.764 90.4542 137.959 90.1611 137.959H90.1593Z" fill="#000206"/>
<path d="M50.3353 77.6666L78.2752 98.122C79.8831 103.556 77.9607 108.055 73.4249 111.862C73.4249 111.862 41.3649 116.245 43.4987 115.229C45.6325 114.214 50.3353 77.6648 50.3353 77.6648V77.6666Z" fill="#222A38"/>
<path d="M43.8736 116.048C43.2571 116.048 42.8947 115.94 42.765 115.506C42.7472 115.449 42.6193 114.953 43.1611 114.66C43.4721 114.304 44.6056 111.852 47.1391 95.4861C48.5302 86.5026 49.6691 77.6702 49.6815 77.5813C49.7117 77.3503 49.861 77.1512 50.0759 77.0587C50.2909 76.9663 50.5379 76.9948 50.7262 77.1334L78.6661 97.5889C78.7833 97.6742 78.8686 97.7951 78.9095 97.9337C80.512 103.348 78.81 108.204 73.8513 112.369C73.7554 112.449 73.6399 112.5 73.5173 112.516C73.4427 112.527 65.9682 113.547 58.5666 114.479C54.2174 115.026 50.7422 115.437 48.2389 115.696C46.7465 115.853 45.5845 115.956 44.785 116.006C44.4368 116.027 44.1348 116.046 43.8772 116.046L43.8736 116.048ZM50.8452 78.8576C50.4863 81.5718 49.5056 88.8685 48.3686 96.1687C46.448 108.499 45.3251 112.991 44.6163 114.701C48.7186 114.452 63.5395 112.547 73.1442 111.235C77.5503 107.474 79.0427 103.312 77.7031 98.5221L50.8452 78.8576Z" fill="#000206"/>
<path d="M55.8718 98.6717C58.268 88.3289 55.7819 78.9175 50.3191 77.6507C44.8562 76.3839 38.4851 83.7414 36.0889 94.0841C33.6927 104.427 36.1788 113.838 41.6417 115.105C47.1045 116.372 53.4756 109.014 55.8718 98.6717Z" fill="#222A38"/>
<path d="M42.9143 115.922C42.4399 115.922 41.9709 115.869 41.5072 115.762C38.6147 115.092 36.4099 112.399 35.2959 108.181C34.2211 104.109 34.2797 99.0553 35.4629 93.9503C36.6462 88.8453 38.8155 84.2807 41.5729 81.0972C44.428 77.8 47.594 76.3531 50.4864 77.0232C53.3788 77.6933 55.5837 80.3862 56.6977 84.6042C57.7725 88.6765 57.7139 93.7299 56.5306 98.8349C55.3474 103.94 53.1781 108.505 50.4207 111.688C48.0222 114.457 45.4052 115.922 42.9143 115.922ZM49.0811 78.1839C46.9793 78.1839 44.7087 79.4921 42.5696 81.9611C39.9508 84.9846 37.8827 89.3484 36.7475 94.2472C35.6122 99.146 35.55 103.975 36.5716 107.843C37.5541 111.565 39.4125 113.921 41.8056 114.475C44.1988 115.03 46.9029 113.734 49.4222 110.824C52.041 107.801 54.109 103.437 55.2443 98.538C56.3796 93.6393 56.4418 88.8098 55.4202 84.942C54.4377 81.2199 52.5793 78.8647 50.1862 78.3101C49.8237 78.2266 49.4542 78.1839 49.0811 78.1839Z" fill="#000206"/>
<path d="M53.5889 97.6794C55.5112 89.3822 53.708 81.8765 49.5613 80.915C45.4147 79.9534 40.4949 85.9 38.5726 94.1972C36.6504 102.494 38.4535 110 42.6002 110.962C46.7468 111.923 51.6666 105.977 53.5889 97.6794Z" fill="#222A38"/>
<path d="M43.5201 111.739C43.1648 111.739 42.813 111.7 42.4666 111.619C40.2049 111.094 38.5064 108.92 37.6855 105.499C36.902 102.235 36.9944 98.1735 37.9467 94.0622C38.899 89.9508 40.6028 86.2643 42.7419 83.678C44.9859 80.9673 47.4679 79.7622 49.7278 80.2865C51.9895 80.8109 53.688 82.9848 54.5088 86.4065C55.2923 89.67 55.1999 93.7315 54.2476 97.8429C53.2953 101.954 51.5915 105.641 49.4524 108.227C47.5531 110.524 45.4833 111.738 43.5201 111.738V111.739ZM48.6742 81.4881C47.1143 81.4881 45.3963 82.5386 43.7582 84.5205C41.747 86.9522 40.1391 90.4467 39.2312 94.3608C38.3234 98.2748 38.231 102.121 38.9665 105.189C39.6647 108.099 41.0132 109.926 42.7632 110.332C44.5133 110.737 46.5262 109.692 48.4344 107.385C50.4456 104.953 52.0534 101.458 52.9613 97.5443C53.8692 93.6302 53.9616 89.7837 53.226 86.7157C52.5278 83.806 51.1793 81.9787 49.4293 81.5734C49.1823 81.5166 48.9301 81.4881 48.6742 81.4881Z" fill="#000206"/>
<path d="M71.1313 114.557L72.8884 114.304C72.8884 114.304 78.1918 114.256 78.723 115.383C79.2542 116.512 79.2666 126.99 76.8681 129.392C74.4696 131.791 68.9371 130.862 68.9371 130.862C68.9371 130.862 67.0698 130.234 67.0698 128.871L71.1313 114.558V114.557Z" fill="#222A38"/>
<path d="M71.3658 131.699C69.9818 131.699 68.9265 131.528 68.827 131.51C68.7932 131.505 68.7595 131.496 68.7257 131.486C68.6315 131.454 66.4089 130.686 66.4089 128.867C66.4089 128.503 66.7039 128.208 67.0681 128.208C67.4323 128.208 67.7272 128.503 67.7272 128.867C67.7272 129.635 68.8607 130.122 69.1006 130.216C69.678 130.302 74.3915 130.929 76.3974 128.922C78.5773 126.741 78.524 116.709 78.1278 115.676C77.7707 115.277 75.3687 114.946 72.9346 114.964L71.2219 115.211C70.8613 115.262 70.5272 115.012 70.4739 114.651C70.4224 114.29 70.6729 113.956 71.0336 113.903L72.7907 113.65C72.8191 113.647 72.8493 113.643 72.8795 113.643C75.0169 113.623 78.6981 113.787 79.3164 115.101C79.7144 115.947 79.7481 119.319 79.5492 121.958C79.3377 124.76 78.7816 128.405 77.3301 129.857C75.8164 131.372 73.2758 131.701 71.3623 131.701L71.3658 131.699Z" fill="#000206"/>
<path d="M48.037 97.457C48.6472 94.2475 47.9549 91.4198 46.4906 91.1412C45.0264 90.8625 43.3448 93.2384 42.7345 96.448C42.1243 99.6575 42.8166 102.485 44.2808 102.764C45.7451 103.042 47.4268 100.667 48.037 97.457Z" fill="#222A38"/>
<path d="M44.5363 103.46C44.4137 103.46 44.2929 103.449 44.1721 103.426C42.2906 103.069 41.4005 100.02 42.1005 96.3392C42.8005 92.6562 44.7477 90.15 46.6292 90.509C48.5107 90.8663 49.4008 93.9147 48.7008 97.5959C48.3881 99.2383 47.7965 100.737 47.0325 101.816C46.2721 102.889 45.398 103.462 44.5363 103.462V103.46ZM46.2739 91.7942C45.4193 91.7942 43.9802 93.5219 43.3975 96.5845C42.7898 99.7822 43.5822 101.969 44.419 102.129C44.8454 102.21 45.4211 101.807 45.9559 101.051C46.6115 100.125 47.1267 98.8099 47.4038 97.3488C48.0115 94.1511 47.2191 91.9648 46.3822 91.8048C46.3467 91.7977 46.3112 91.7942 46.2739 91.7942Z" fill="#000206"/>
<path d="M54.3755 92.8678C54.347 92.8678 54.3168 92.866 54.2866 92.8624L46.4178 91.8102C46.0571 91.7622 45.8031 91.4298 45.851 91.0689C45.899 90.7081 46.233 90.4539 46.5919 90.5019L54.4608 91.5542C54.8214 91.6022 55.0755 91.9346 55.0275 92.2954C54.9831 92.6278 54.7006 92.8678 54.3737 92.8678H54.3755Z" fill="#000206"/>
<path d="M50.3532 106.494C50.2537 106.494 50.1524 106.471 50.0565 106.423L43.998 103.366C43.6729 103.202 43.5414 102.804 43.7067 102.479C43.8701 102.153 44.2681 102.022 44.5932 102.187L50.6517 105.244C50.9768 105.408 51.1083 105.806 50.943 106.131C50.8275 106.361 50.5948 106.494 50.3532 106.494Z" fill="#000206"/>
<path d="M466.514 510.189C466.514 510.189 445.089 514.112 433.603 514.556C422.117 514.999 408.298 512.973 408.298 512.973C408.442 511.679 408.621 510.187 408.817 508.588C414.275 508.89 424.629 509.398 432.576 509.398C441.932 509.398 461.396 505.968 467.848 504.782C468.079 507.516 466.516 510.189 466.516 510.189H466.514Z" fill="#222A38"/>
<path d="M430.199 515.278C419.614 515.278 408.327 513.643 408.202 513.625C407.85 513.574 407.602 513.252 407.643 512.898C407.772 511.729 407.937 510.333 408.163 508.506C408.206 508.161 408.504 507.909 408.854 507.926C414.294 508.229 424.61 508.735 432.576 508.735C441.929 508.735 461.847 505.21 467.729 504.13C467.912 504.096 468.101 504.142 468.25 504.254C468.397 504.368 468.492 504.537 468.508 504.723C468.753 507.633 467.156 510.404 467.088 510.52C466.99 510.685 466.827 510.801 466.637 510.836C466.422 510.875 445.033 514.773 433.632 515.212C432.507 515.255 431.359 515.275 430.203 515.275L430.199 515.278ZM409.025 512.406C411.859 512.79 423.666 514.276 433.577 513.895C444.134 513.488 463.396 510.079 466.082 509.596C466.397 508.975 467.145 507.329 467.205 505.57C459.21 507.025 441.484 510.058 432.575 510.058C424.867 510.058 414.986 509.587 409.396 509.281C409.247 510.504 409.126 511.521 409.025 512.408V512.406Z" fill="#000206"/>
<path d="M440.93 486.381C440.93 486.381 432.834 493.068 432.834 494.611C435.275 498.468 440.031 501.04 442.602 498.468C445.173 495.896 447.614 489.597 447.614 489.597L440.93 486.383V486.381Z" fill="#000206"/>
<path d="M299.04 492.942C299.04 492.942 288.823 496.318 288.823 497.971C290.173 502.711 295.21 505.527 295.956 504.782C296.702 504.035 305.461 498.321 305.461 498.321L299.04 492.942Z" fill="#000206"/>
<path d="M105.163 490.109L109.598 495.125L107.381 496.474L102.271 491.938L105.163 490.109Z" fill="#8C193C"/>
<path d="M107.381 497.135C107.222 497.135 107.066 497.078 106.942 496.968L101.834 492.432C101.679 492.295 101.598 492.091 101.614 491.884C101.63 491.678 101.743 491.492 101.919 491.38L104.812 489.551C105.085 489.378 105.444 489.428 105.659 489.671L110.094 494.686C110.223 494.832 110.282 495.029 110.252 495.223C110.223 495.416 110.11 495.587 109.943 495.688L107.725 497.039C107.619 497.103 107.5 497.135 107.382 497.135H107.381ZM103.365 492.028L107.453 495.658L108.58 494.972L105.041 490.969L103.365 492.028Z" fill="#000206"/>
<path d="M98.7371 492.681L103.172 497.695L100.954 499.046L95.8447 494.51L98.7371 492.681Z" fill="#8C193C"/>
<path d="M100.954 499.705C100.796 499.705 100.64 499.649 100.516 499.538L95.4076 495.002C95.253 494.864 95.1713 494.661 95.1873 494.455C95.2033 494.249 95.317 494.062 95.4929 493.95L98.3853 492.121C98.6589 491.948 99.0178 491.998 99.2328 492.242L103.667 497.256C103.797 497.402 103.854 497.599 103.825 497.793C103.797 497.987 103.683 498.157 103.516 498.259L101.299 499.609C101.192 499.673 101.073 499.705 100.956 499.705H100.954ZM96.9391 494.599L101.027 498.228L102.154 497.542L98.6145 493.539L96.9391 494.599Z" fill="#000206"/>
<path d="M256.727 499.689C254.462 501.426 251.354 502.907 248.018 504.318L249.393 506.44C253.254 505.642 256.828 504.608 259.198 502.583L256.727 499.689Z" fill="#8C193C"/>
<path d="M249.393 507.1C249.173 507.1 248.963 506.99 248.839 506.799L247.464 504.677C247.357 504.514 247.329 504.311 247.385 504.124C247.442 503.938 247.579 503.787 247.758 503.71C250.669 502.478 253.963 500.976 256.324 499.165C256.603 498.952 256.999 498.993 257.226 499.261L259.698 502.155C259.811 502.288 259.868 502.461 259.854 502.635C259.84 502.809 259.758 502.971 259.625 503.084C257.018 505.31 253.057 506.357 249.525 507.086C249.48 507.094 249.436 507.1 249.391 507.1H249.393ZM248.999 504.617L249.7 505.699C252.714 505.058 255.979 504.163 258.251 502.489L256.624 500.584C254.409 502.167 251.594 503.497 248.997 504.615L248.999 504.617Z" fill="#000206"/>
<path d="M260.972 504.83C258.706 506.567 255.599 508.047 252.262 509.459L253.638 511.581C257.498 510.783 261.073 509.748 263.443 507.724L260.972 504.83Z" fill="#8C193C"/>
<path d="M253.638 512.24C253.417 512.24 253.208 512.13 253.083 511.94L251.708 509.818C251.602 509.654 251.573 509.452 251.63 509.265C251.687 509.078 251.824 508.927 252.003 508.851C254.913 507.619 258.207 506.117 260.568 504.306C260.847 504.092 261.244 504.133 261.471 504.402L263.942 507.295C264.056 507.429 264.113 507.601 264.099 507.775C264.084 507.95 264.003 508.111 263.869 508.225C261.263 510.451 257.301 511.497 253.769 512.226C253.725 512.235 253.68 512.24 253.636 512.24H253.638ZM253.243 509.757L253.945 510.84C256.958 510.198 260.224 509.304 262.496 507.63L260.869 505.724C258.653 507.308 255.839 508.637 253.241 509.756L253.243 509.757Z" fill="#000206"/>
<path d="M321.918 182.152C321.918 182.152 307.396 198.609 311.894 202.724C316.393 206.839 320.12 198.352 321.277 194.752C322.433 191.151 321.92 182.152 321.92 182.152H321.918Z" fill="#222A38"/>
<path d="M314.323 204.489C313.339 204.489 312.374 204.063 311.447 203.213C309.304 201.254 310.388 196.987 314.668 190.531C317.725 185.916 321.385 181.757 321.423 181.714C321.6 181.514 321.879 181.439 322.133 181.528C322.386 181.615 322.562 181.846 322.576 182.114C322.597 182.488 323.084 191.281 321.902 194.955C321.455 196.35 319.028 203.359 315.242 204.365C314.934 204.447 314.627 204.488 314.323 204.488V204.489ZM321.327 183.867C320.023 185.435 317.759 188.256 315.762 191.272C312.012 196.933 310.795 200.828 312.339 202.239C313.213 203.039 314.051 203.318 314.904 203.091C317.494 202.403 319.733 197.399 320.648 194.551C321.458 192.029 321.412 186.617 321.329 183.865L321.327 183.867Z" fill="#000206"/>
<path d="M341.517 190.575C341.517 190.575 323.137 180.031 322.496 182.603C321.853 185.175 335.862 202.276 339.717 198.675C343.572 195.074 341.773 191.988 341.517 190.575Z" fill="#222A38"/>
<path d="M338.384 199.836C337.493 199.836 336.428 199.473 335.199 198.748C332.653 197.248 329.302 194.095 326.237 190.314C324.779 188.513 321.43 184.142 321.854 182.443C321.941 182.095 322.179 181.821 322.526 181.673C323.068 181.442 324.34 180.9 333.365 185.447C337.708 187.633 341.803 189.98 341.844 190.003C342.012 190.099 342.13 190.266 342.165 190.458C342.199 190.639 342.268 190.877 342.35 191.151C342.833 192.786 343.732 195.831 340.168 199.159C339.685 199.61 339.088 199.836 338.384 199.836ZM323.128 182.864C323.181 184.599 330.48 194.626 336.126 197.76C337.159 198.332 338.539 198.872 339.266 198.193C342.233 195.422 341.542 193.076 341.083 191.524C341.028 191.338 340.977 191.165 340.936 191.005C339.98 190.463 336.435 188.469 332.722 186.601C325.34 182.886 323.519 182.8 323.128 182.864Z" fill="#000206"/>
<path d="M322.089 185.367C323.462 185.367 324.575 184.254 324.575 182.88C324.575 181.507 323.462 180.394 322.089 180.394C320.716 180.394 319.604 181.507 319.604 182.88C319.604 184.254 320.716 185.367 322.089 185.367Z" fill="#222A38"/>
<path d="M322.089 186.026C320.355 186.026 318.944 184.615 318.944 182.88C318.944 181.145 320.355 179.734 322.089 179.734C323.823 179.734 325.234 181.145 325.234 182.88C325.234 184.615 323.823 186.026 322.089 186.026ZM322.089 181.055C321.083 181.055 320.264 181.874 320.264 182.88C320.264 183.886 321.083 184.706 322.089 184.706C323.095 184.706 323.914 183.886 323.914 182.88C323.914 181.874 323.095 181.055 322.089 181.055Z" fill="#000206"/>
<path d="M465.427 319.352C465.427 328.499 458.014 335.913 448.874 335.913C458.016 335.913 465.427 343.328 465.427 352.474C465.427 343.326 472.839 335.913 481.98 335.913C472.837 335.913 465.427 328.497 465.427 319.352Z" fill="#35383F"/>
<path d="M256.727 358.963C256.727 368.11 249.315 375.524 240.174 375.524C249.317 375.524 256.727 382.94 256.727 392.085C256.727 382.938 264.139 375.524 273.28 375.524C264.138 375.524 256.727 368.108 256.727 358.963Z" fill="#35383F"/>
<path d="M86.0198 272.868C86.0198 282.015 78.6075 289.429 69.4666 289.429C78.6093 289.429 86.0198 296.845 86.0198 305.99C86.0198 296.843 93.432 289.429 102.573 289.429C93.4302 289.429 86.0198 282.013 86.0198 272.868Z" fill="#35383F"/>
<path d="M157.163 140.715C156.832 140.715 156.546 140.466 156.507 140.13C156.466 139.767 156.726 139.44 157.086 139.397L164.07 138.592C164.435 138.55 164.76 138.811 164.802 139.172C164.843 139.534 164.584 139.861 164.223 139.904L157.239 140.709C157.214 140.713 157.188 140.713 157.163 140.713V140.715Z" fill="#000206"/>
<path d="M297.368 320.011C297.024 320.011 296.732 319.743 296.711 319.392C296.688 319.028 296.963 318.715 297.328 318.692C297.397 318.688 304.255 318.216 307.442 315.027C307.7 314.769 308.117 314.769 308.375 315.027C308.633 315.285 308.633 315.702 308.375 315.96C304.834 319.503 297.713 319.991 297.411 320.009C297.397 320.009 297.383 320.009 297.368 320.009V320.011Z" fill="#000206"/>
<path d="M438.951 250.816H545.306C545.306 250.816 537.13 226.706 509.367 237.508C495.294 208.384 475.245 226.706 472.352 241.751C458.086 223.043 438.949 245.802 438.949 250.816H438.951Z" fill="#35383F"/>
<path d="M506.304 271.945C506.304 271.945 471.69 262.688 467.319 271.003C462.948 279.319 506.304 271.945 506.304 271.945Z" fill="#35383F"/>
<path d="M525.67 280.881C525.67 280.881 504.249 275.033 503.135 280.005C502.021 284.976 525.67 280.881 525.67 280.881Z" fill="#35383F"/>
<path d="M160.064 160.806C160.064 160.806 166.917 167.057 168.461 166.165C176.001 162.478 188.884 150.866 188.884 150.866L182.075 145.841C182.075 145.841 165.289 160.247 160.062 160.807L160.064 160.806Z" fill="#222A38"/>
<path d="M168.089 166.92C167.295 166.92 165.947 166.374 163.284 164.346C161.375 162.894 159.691 161.358 159.62 161.294C159.428 161.12 159.357 160.848 159.437 160.601C159.519 160.354 159.736 160.178 159.995 160.15C164.115 159.709 177.023 149.309 181.649 145.339C181.882 145.139 182.223 145.126 182.47 145.309L189.276 150.334C189.436 150.452 189.534 150.635 189.543 150.834C189.552 151.031 189.473 151.223 189.326 151.356C188.798 151.833 176.307 163.058 168.768 166.749C168.591 166.849 168.376 166.92 168.089 166.92ZM161.445 161.143C162.088 161.698 162.994 162.46 163.955 163.196C167.341 165.795 168.114 165.596 168.145 165.587C168.157 165.58 168.157 165.578 168.171 165.573C174.62 162.419 185.206 153.237 187.837 150.914L182.106 146.683C179.661 148.756 167.253 159.136 161.445 161.145V161.143Z" fill="#000206"/>
</g>
<defs>
<clipPath id="clip0_1397_7739">
<rect width="558" height="540" fill="white"/>
</clipPath>
</defs>
</svg>
