<svg width="26" height="26" viewBox="0 0 26 26" fill="none" xmlns="http://www.w3.org/2000/svg">
<g clip-path="url(#clip0_1333_7665)">
<path fill-rule="evenodd" clip-rule="evenodd" d="M12.886 0.423256C5.99442 0.423256 0.423248 6.15242 0.423248 13.2402C0.423248 18.9058 3.99289 23.7016 8.94493 25.399C9.56406 25.5266 9.79085 25.1233 9.79085 24.7839C9.79085 24.4868 9.77044 23.4683 9.77044 22.4071C6.30361 23.1712 5.58167 20.8792 5.58167 20.8792C5.02452 19.3938 4.19901 19.0121 4.19901 19.0121C3.06432 18.2269 4.28167 18.2269 4.28167 18.2269C5.54034 18.3118 6.2008 19.5425 6.2008 19.5425C7.31483 21.4946 9.10998 20.943 9.83218 20.6035C9.93524 19.7759 10.2656 19.2029 10.6164 18.8847C7.85131 18.5876 4.94213 17.4842 4.94213 12.561C4.94213 11.1605 5.43702 10.0147 6.22121 9.12352C6.09748 8.80529 5.66406 7.4894 6.34519 5.7282C6.34519 5.7282 7.39748 5.38862 9.77019 7.04383C10.786 6.76327 11.8336 6.62055 12.886 6.61935C13.9383 6.61935 15.011 6.76805 16.0016 7.04383C18.3745 5.38862 19.4268 5.7282 19.4268 5.7282C20.1079 7.4894 19.6743 8.80529 19.5505 9.12352C20.3554 10.0147 20.8299 11.1605 20.8299 12.561C20.8299 17.4842 17.9207 18.5662 15.135 18.8847C15.5891 19.2878 15.9809 20.0516 15.9809 21.2613C15.9809 22.98 15.9605 24.3595 15.9605 24.7837C15.9605 25.1233 16.1875 25.5266 16.8064 25.3993C21.7585 23.7014 25.3281 18.9058 25.3281 13.2402C25.3485 6.15242 19.7569 0.423256 12.886 0.423256Z" fill="#828691"/>
</g>
<defs>
<clipPath id="clip0_1333_7665">
<rect width="25" height="25" fill="white" transform="translate(0.423248 0.423256)"/>
</clipPath>
</defs>
</svg>
