<svg width="224" height="47" viewBox="0 0 224 47" fill="none" xmlns="http://www.w3.org/2000/svg">
<path d="M33.7389 12.0556C28.9037 12.4035 23.0978 12.4554 16.4903 12.0876C16.4829 12.5834 16.4682 13.2551 16.4609 13.747C22.5756 14.1148 28.9772 14.0828 34.5 13.643C34.2573 13.1072 34.0073 12.5714 33.7389 12.0556ZM12.92 13.4671C13.5965 13.531 14.2804 13.591 14.9791 13.643C14.9864 13.1472 15.0011 12.4834 15.0121 11.9916C14.3135 11.9316 13.6296 11.8757 12.9531 11.8117C12.9457 12.3075 12.931 12.9752 12.92 13.4711V13.4671ZM9.58864 13.1032C10.2174 13.1832 10.8645 13.2591 11.5227 13.3271C11.5337 12.8313 11.5448 12.1676 11.5558 11.6677C10.8976 11.5998 10.2542 11.5238 9.62173 11.4438C9.61438 11.9436 9.59599 12.6034 9.58864 13.1032ZM6.5 12.6634C7.08096 12.7553 7.67662 12.8393 8.287 12.9273C8.29435 12.4315 8.30538 11.7717 8.32009 11.2679C7.70604 11.1879 7.11405 11.092 6.53309 11C6.52574 11.4998 6.51103 12.1596 6.5 12.6634Z" fill="#CD2659"/>
<path d="M31.4526 9.24616C24.807 9.59377 16.9112 9.41805 8.84943 8.49362C8.83837 8.97112 8.8273 9.60141 8.81624 10.0789C16.3654 11.0148 25.091 11.2249 32.5 10.7665C32.1718 10.247 31.8177 9.73893 31.4526 9.24616ZM5.74421 9.64343C6.31952 9.73511 6.90959 9.82297 7.52178 9.90701C7.52916 9.43333 7.5476 8.7954 7.55128 8.32554C6.94647 8.2415 6.35271 8.15364 5.78109 8.06196C5.77002 8.53946 5.75896 9.16976 5.7479 9.64725L5.74421 9.64343ZM2.96352 9.14302C3.47614 9.24616 4.01458 9.34929 4.56777 9.44097C4.57514 8.9673 4.58989 8.32936 4.60096 7.8595C4.04408 7.764 3.51302 7.66468 2.99672 7.55772C2.98934 8.03522 2.97828 8.6617 2.96352 9.14302ZM0.5 8.5853C0.949925 8.6999 1.42567 8.8145 1.91247 8.91764C1.91985 8.44396 1.9346 7.80984 1.94566 7.33616L0.536879 7C0.525815 7.47368 0.511064 8.10398 0.5 8.5853Z" fill="#CD2659"/>
<path d="M30.0631 7.45526C29.7076 7.12153 29.33 6.82527 28.9486 6.54262C23.7093 6.67543 18.0849 6.54262 12.8308 6.12717C12.8197 6.55284 12.8086 7.11472 12.7974 7.5438C19.2475 8.00692 25.2681 8.09546 30.5 7.90817C30.3519 7.75833 30.2149 7.60169 30.0594 7.45526H30.0631ZM9.44652 7.2271C10.0834 7.2918 10.7313 7.35991 11.3904 7.4212C11.4015 6.99553 11.4126 6.43025 11.4238 6.00798C10.761 5.95009 10.113 5.88539 9.47614 5.81388C9.46873 6.24295 9.45392 6.80484 9.44652 7.2271ZM6.33626 6.8491C6.91388 6.92743 7.51371 7.00575 8.13206 7.08067C8.13947 6.655 8.15428 6.08971 8.16168 5.66745L6.36958 5.43929C6.35847 5.86155 6.34366 6.43025 6.33626 6.8491ZM3.5037 6.40981C4.03319 6.50176 4.57378 6.5903 5.13289 6.67884C5.14029 6.24976 5.1551 5.68788 5.16621 5.26562C4.6071 5.17708 4.05911 5.09194 3.53332 5C3.52592 5.42567 3.51481 5.98755 3.5 6.41322L3.5037 6.40981Z" fill="#CD2659"/>
<path d="M22.674 3.64211C22.1403 3.63886 21.5958 3.62914 21.0477 3.61941C21.0368 4.02153 21.0224 4.55987 21.0152 4.962C22.8435 5.00091 24.6826 5.01064 26.5 4.98794C25.3028 4.42042 24.0227 3.99235 22.674 3.63886V3.64211ZM17.3334 4.83552C18.0366 4.86795 18.7578 4.89714 19.479 4.92308C19.4863 4.51447 19.5007 3.97938 19.5151 3.57401C18.7903 3.54806 18.0727 3.51887 17.3659 3.48645C17.3551 3.88857 17.3479 4.42691 17.3334 4.83228V4.83552ZM13.814 4.62473C14.4847 4.67337 15.1662 4.71553 15.8622 4.7512C15.8694 4.34907 15.8838 3.81074 15.8946 3.40537C15.1987 3.3697 14.5171 3.3243 13.85 3.2789C13.8428 3.68102 13.8284 4.21936 13.8176 4.62148L13.814 4.62473ZM10.5 4.34259C11.1311 4.40096 11.7729 4.46258 12.4256 4.51771C12.4364 4.11234 12.4473 3.57725 12.4581 3.17512L10.5325 3C10.5252 3.40537 10.5108 3.93722 10.5 4.34259Z" fill="#CD2659"/>
<path d="M35.4766 18.8524C35.4336 18.6111 35.362 18.38 35.3012 18.1454C29.1658 18.6961 21.2512 18.7776 12.5134 18.125C12.5063 18.5533 12.492 19.1141 12.4812 19.539C20.1881 20.161 28.6753 20.1474 35.4372 19.5356C35.5016 19.3249 35.5195 19.1005 35.4766 18.8558V18.8524ZM9.2381 19.2263C9.85379 19.2909 10.4802 19.3555 11.1246 19.4132C11.1353 18.9918 11.1425 18.4309 11.1532 18.0061C10.5124 17.9449 9.88243 17.8837 9.27032 17.8157C9.25958 18.2372 9.25242 18.8014 9.2381 19.2263ZM6.23124 18.849C6.80039 18.9272 7.38029 19.002 7.97092 19.0767C7.98166 18.6519 7.9924 18.0877 8.00314 17.6628C7.40535 17.5948 6.82903 17.5132 6.26703 17.4385C6.25987 17.8565 6.24555 18.4208 6.23482 18.849H6.23124ZM3.5 18.4106C4.00472 18.4989 4.53093 18.5873 5.0786 18.6723C5.08576 18.2542 5.10008 17.6866 5.10724 17.2617C4.56672 17.1767 4.04052 17.0884 3.53222 17C3.52506 17.4181 3.51432 17.9891 3.5 18.4072V18.4106Z" fill="#17B9A7"/>
<path d="M34.9194 15.3107C31.0575 15.5891 26.4275 15.712 21.0438 15.6214C21.0366 16.026 21.0221 16.56 21.0077 16.9614C26.0019 17.0682 31.0719 16.9549 35.5 16.6053C35.3233 16.1684 35.1322 15.7347 34.9194 15.3107ZM17.3333 16.8287C18.04 16.8643 18.7576 16.8934 19.4752 16.916C19.4896 16.5147 19.5004 15.9774 19.5113 15.5729C18.7865 15.5535 18.0725 15.5211 17.3657 15.4887C17.3549 15.8868 17.3441 16.4273 17.3333 16.8287ZM13.8175 16.6183C14.4918 16.6668 15.1697 16.7154 15.8656 16.751C15.8729 16.3464 15.8873 15.8124 15.8945 15.4078C15.2021 15.369 14.5206 15.3269 13.8499 15.2783C13.8355 15.6797 13.8283 16.2137 13.8175 16.6183ZM10.5 16.3399C11.1274 16.4047 11.7765 16.4597 12.4292 16.5147C12.4364 16.1134 12.4508 15.5761 12.4616 15.1715C11.8126 15.1198 11.1671 15.0615 10.5361 15C10.5252 15.4013 10.5144 15.9386 10.5036 16.3399H10.5Z" fill="#CD2659"/>
<path d="M36.4814 31.3546C36.2735 31.0273 36.073 30.6721 35.9542 30.297C35.8948 30.1094 35.8911 29.9498 35.9171 29.8061C30.5295 30.3648 23.6455 30.5325 15.592 30.0895C15.5808 30.5843 15.5697 31.2468 15.5586 31.7457C22.7693 32.1767 30.3735 32.0609 36.5 31.3905C36.4926 31.3785 36.4889 31.3665 36.4814 31.3546ZM11.9829 31.4623C12.6661 31.5262 13.3605 31.582 14.0622 31.6419C14.0734 31.1431 14.0882 30.4846 14.0956 29.9817C13.3939 29.9338 12.6958 29.87 12.0126 29.8101C12.0052 30.309 11.9941 30.9675 11.9829 31.4623ZM8.61522 31.0992C9.25386 31.179 9.90364 31.2548 10.5683 31.3226C10.5794 30.8238 10.5868 30.1653 10.598 29.6665C9.93706 29.5986 9.28728 29.5228 8.64864 29.443C8.64121 29.9378 8.62636 30.6043 8.61894 31.0992H8.61522ZM5.5 30.6562C6.07923 30.752 6.68445 30.8398 7.30453 30.9275C7.31567 30.4327 7.32681 29.7702 7.33794 29.2714C6.71787 29.1836 6.11636 29.0998 5.5297 29C5.52228 29.4949 5.50743 30.1613 5.5 30.6562Z" fill="#17B9A7"/>
<path d="M38.2496 26.759C38.224 26.7131 38.1912 26.6672 38.1656 26.6213C30.6011 27.6231 19.8364 27.7761 8.75783 26.4913C8.75053 26.9693 8.73594 27.604 8.72499 28.0744C18.4607 29.298 30.1742 29.2865 38.4065 28.1699C38.5634 27.757 38.5305 27.2675 38.2496 26.759ZM5.68897 27.6423C6.25822 27.7379 6.84207 27.822 7.44417 27.9061C7.45511 27.4319 7.46606 26.7934 7.47701 26.3192C6.87856 26.2389 6.29106 26.151 5.72181 26.0554C5.71086 26.5334 5.69627 27.1681 5.68532 27.6423H5.68897ZM2.93757 27.1413C3.45209 27.2446 3.97756 27.3478 4.52492 27.4434C4.53221 26.9654 4.54681 26.3345 4.55411 25.8565C4.00675 25.7571 3.48128 25.6577 2.97042 25.5583C2.95947 26.0286 2.94852 26.6634 2.93757 27.1413ZM0.5 26.5831C0.945186 26.6978 1.41227 26.8163 1.89759 26.9234C1.90124 26.4416 1.91584 25.8106 1.92678 25.3365L0.532842 25C0.521894 25.478 0.507298 26.1127 0.5 26.5831Z" fill="#17B9A7"/>
<path d="M37.0096 24.742C36.8705 24.5306 36.7424 24.309 36.6107 24.0909C29.6167 24.7454 20.7269 24.7727 12.7228 24.1284C12.7118 24.5511 12.6972 25.1204 12.6862 25.5431C22.3446 26.2453 31.033 26.0885 37.5 25.4101C37.328 25.192 37.1596 24.9704 37.0059 24.742H37.0096ZM9.3704 25.2295C9.99989 25.2976 10.6404 25.3624 11.2955 25.4238C11.3028 24.9977 11.3174 24.4352 11.3248 24.0125C10.666 23.9511 10.0292 23.8829 9.40334 23.8147C9.39236 24.2409 9.37772 24.8102 9.36674 25.2295H9.3704ZM6.29612 24.8477C6.87072 24.9329 7.46728 25.0045 8.07115 25.0829C8.08213 24.6602 8.09311 24.0943 8.10409 23.6682L6.32906 23.4398C6.32174 23.8625 6.3071 24.4284 6.29612 24.8477ZM3.5 24.4113C4.02336 24.5034 4.5577 24.5954 5.11399 24.6806C5.12131 24.2545 5.13229 23.6886 5.14327 23.2591C4.59063 23.1773 4.0563 23.0886 3.53294 23C3.52196 23.4227 3.51098 23.9886 3.5 24.4113Z" fill="#17B9A7"/>
<path d="M35.0099 21.7754C34.9357 21.6494 34.9728 21.4362 35.0433 21.2843C30.9928 21.5816 26.0883 21.714 20.3633 21.6203C20.3559 22.0242 20.3411 22.5605 20.3299 22.9612C25.5648 23.071 30.8851 22.9483 35.5 22.5864C35.3366 22.3182 35.1733 22.0468 35.0099 21.7787V21.7754ZM16.543 22.8255C17.2707 22.8643 18.0021 22.8933 18.7483 22.9127C18.7595 22.5121 18.778 21.9725 18.7854 21.5751C18.0392 21.5493 17.3041 21.5234 16.5764 21.4911C16.5615 21.8917 16.5541 22.4281 16.543 22.8255ZM12.9157 22.6219C13.6062 22.6672 14.3117 22.7124 15.0282 22.7512C15.0393 22.3473 15.0505 21.8142 15.0579 21.4103C14.3451 21.3716 13.6434 21.3296 12.9528 21.2811C12.9417 21.6817 12.9268 22.2213 12.9157 22.6252V22.6219ZM9.5 22.3408C10.1497 22.4022 10.8143 22.4604 11.4863 22.5153C11.4974 22.1147 11.516 21.5751 11.5197 21.1745L9.54084 21C9.5297 21.4039 9.51485 21.9402 9.50371 22.3408H9.5Z" fill="#17B9A7"/>
<path d="M35.354 37.073C35.124 36.5167 35.1203 36.2926 35.4708 35.8084C35.4781 35.8004 35.4817 35.7924 35.489 35.7844C29.1846 36.4647 20.9819 36.5807 11.8994 35.8004C11.8884 36.2966 11.8738 36.9609 11.8665 37.4531C19.8101 38.1975 28.5677 38.1735 35.5 37.4331C35.4525 37.3131 35.4051 37.189 35.354 37.0689V37.073ZM8.56279 37.097C9.19068 37.177 9.82952 37.253 10.4793 37.3211C10.4903 36.8248 10.5049 36.1645 10.5122 35.6603C9.85507 35.5883 9.21623 35.5122 8.59199 35.4362C8.58469 35.9324 8.57009 36.5967 8.56279 37.093V37.097ZM5.5 36.6568C6.07313 36.7528 6.67182 36.8368 7.27415 36.9169C7.28511 36.4207 7.28876 35.7563 7.29606 35.2561C6.69007 35.1761 6.09869 35.088 5.52555 35C5.51825 35.5002 5.50365 36.1565 5.5 36.6568Z" fill="#F1BC72"/>
<path d="M36.4963 33.1424C32.1809 33.5341 26.7544 33.7284 20.2573 33.6183C20.25 34.0197 20.2316 34.5571 20.2205 34.9617C25.7574 35.0782 31.3899 34.9293 36.1689 34.5085C36.1321 34.4438 36.099 34.3823 36.0438 34.3175C35.8893 34.1395 35.7201 33.9679 35.5508 33.7866C35.7532 33.6766 35.9592 33.5794 36.1395 33.4564C36.2903 33.3561 36.408 33.2493 36.5 33.1392L36.4963 33.1424ZM16.4717 34.829C17.1891 34.8613 17.9212 34.8905 18.657 34.9164C18.6643 34.515 18.6754 33.9776 18.6901 33.5697C17.9506 33.5503 17.2222 33.5212 16.5011 33.4856C16.4937 33.8902 16.479 34.4276 16.4717 34.829ZM12.881 34.6186C13.5653 34.6671 14.2606 34.7124 14.9706 34.7513C14.978 34.3466 14.9927 33.8093 15.0037 33.4111C14.2974 33.369 13.6021 33.3237 12.9178 33.2752C12.9067 33.683 12.892 34.2172 12.881 34.6186ZM9.5 34.3402C10.1401 34.4049 10.7987 34.4599 11.4646 34.515C11.4756 34.1136 11.4866 33.573 11.494 33.1716C10.8281 33.1198 10.1696 33.0615 9.53311 33C9.52207 33.4014 9.50736 33.9388 9.5 34.3434V34.3402Z" fill="#F1BC72"/>
<path d="M5.5 47H5.60951C5.57301 46.9928 5.5365 46.9892 5.50365 46.9856C5.50365 46.9892 5.50365 46.9964 5.50365 47H5.5ZM8.73049 44.4055C8.72319 44.8505 8.71224 45.4462 8.70129 45.8911C14.2278 46.5443 20.3931 46.8206 26.2007 46.7488C26.2627 46.2464 26.3576 45.7476 26.5 45.256C21.01 45.3278 14.9213 45.0801 8.73049 44.4055ZM5.66426 45.4892C6.2337 45.5754 6.8141 45.6579 7.42004 45.7333C7.43099 45.2883 7.43829 44.6926 7.45289 44.2476C6.8506 44.1687 6.26291 44.0861 5.69711 44C5.68981 44.4486 5.67521 45.0407 5.66791 45.4892H5.66426Z" fill="#F1BC72"/>
<path d="M12.9378 41.8067C12.9231 42.306 12.9121 42.9689 12.9011 43.4642C18.1614 43.9115 23.1319 44.0592 27.6145 43.9794C27.8676 43.5121 28.1831 43.0927 28.5829 42.7373C28.8654 42.4857 29.1699 42.3539 29.5 42.278C24.1443 42.4657 18.3411 42.3139 12.9378 41.8067ZM9.58134 43.1007C10.2086 43.1766 10.8506 43.2525 11.5072 43.3244C11.5218 42.8291 11.5329 42.1622 11.5402 41.667C10.8799 41.6031 10.238 41.5232 9.61069 41.4433C9.59968 41.9385 9.59234 42.5975 9.58134 43.1007ZM6.5 42.6534C7.07592 42.7493 7.67018 42.8371 8.27911 42.925C8.29378 42.4258 8.30478 41.7628 8.31212 41.2636L6.53301 41C6.52568 41.4952 6.511 42.1542 6.5 42.6534Z" fill="#F1BC72"/>
<path d="M36.4233 39.2175C36.416 39.1947 36.4086 39.1688 36.4013 39.1461C32.0997 39.5355 26.7062 39.727 20.2502 39.6167C20.2429 40.0192 20.2282 40.5612 20.2171 40.9604C25.8092 41.0805 31.5041 40.928 36.313 40.493C36.5152 40.149 36.5557 39.7303 36.4233 39.2142V39.2175ZM16.4671 40.8338C17.184 40.8695 17.9156 40.8955 18.6546 40.9182C18.6619 40.5125 18.6767 39.977 18.6877 39.5712C17.9487 39.5485 17.2171 39.5193 16.4965 39.4836C16.4891 39.8893 16.4744 40.4249 16.4671 40.8306V40.8338ZM12.8787 40.6229C13.5663 40.6716 14.2574 40.7138 14.9633 40.7559C14.9744 40.3535 14.9891 39.8147 15.0001 39.409C14.2905 39.3668 13.5957 39.3246 12.9118 39.2759C12.9045 39.6784 12.8898 40.2172 12.8787 40.6229ZM9.5 40.3405C10.1397 40.4054 10.7941 40.4606 11.4633 40.519C11.4706 40.1133 11.4817 39.5745 11.4964 39.1753L9.52941 39C9.51838 39.3992 9.51103 39.9445 9.5 40.3437V40.3405Z" fill="#F1BC72"/>
<path d="M55.036 40.114V45H54.056V42.921H51.963V45H50.983V40.114H51.963V42.123H54.056V40.114H55.036ZM59.7666 40.114V43.138C59.7666 43.4693 59.8529 43.7237 60.0256 43.901C60.1982 44.0737 60.4409 44.16 60.7536 44.16C61.0709 44.16 61.3159 44.0737 61.4886 43.901C61.6612 43.7237 61.7476 43.4693 61.7476 43.138V40.114H62.7346V43.131C62.7346 43.5463 62.6436 43.8987 62.4616 44.188C62.2842 44.4727 62.0439 44.6873 61.7406 44.832C61.4419 44.9767 61.1082 45.049 60.7396 45.049C60.3756 45.049 60.0442 44.9767 59.7456 44.832C59.4516 44.6873 59.2182 44.4727 59.0456 44.188C58.8729 43.8987 58.7866 43.5463 58.7866 43.131V40.114H59.7666ZM71.8084 40.114V45H70.8284V41.822L69.5194 45H68.7774L67.4614 41.822V45H66.4814V40.114H67.5944L69.1484 43.747L70.7024 40.114H71.8084ZM78.5733 44.069H76.6273L76.3053 45H75.2763L77.0333 40.107H78.1743L79.9313 45H78.8953L78.5733 44.069ZM78.3073 43.285L77.6003 41.241L76.8933 43.285H78.3073ZM87.5671 45H86.5871L84.3681 41.647V45H83.3881V40.107H84.3681L86.5871 43.467V40.107H87.5671V45ZM95.5655 42.55C95.5655 42.0693 95.6728 41.64 95.8875 41.262C96.1068 40.8793 96.4032 40.583 96.7765 40.373C97.1545 40.1583 97.5768 40.051 98.0435 40.051C98.5895 40.051 99.0678 40.191 99.4785 40.471C99.8892 40.751 100.176 41.1383 100.34 41.633H99.2125C99.1005 41.3997 98.9418 41.2247 98.7365 41.108C98.5358 40.9913 98.3025 40.933 98.0365 40.933C97.7518 40.933 97.4975 41.0007 97.2735 41.136C97.0542 41.2667 96.8815 41.4533 96.7555 41.696C96.6342 41.9387 96.5735 42.2233 96.5735 42.55C96.5735 42.872 96.6342 43.1567 96.7555 43.404C96.8815 43.6467 97.0542 43.8357 97.2735 43.971C97.4975 44.1017 97.7518 44.167 98.0365 44.167C98.3025 44.167 98.5358 44.1087 98.7365 43.992C98.9418 43.8707 99.1005 43.6933 99.2125 43.46H100.34C100.176 43.9593 99.8892 44.349 99.4785 44.629C99.0725 44.9043 98.5942 45.042 98.0435 45.042C97.5768 45.042 97.1545 44.937 96.7765 44.727C96.4032 44.5123 96.1068 44.216 95.8875 43.838C95.6728 43.46 95.5655 43.0307 95.5655 42.55ZM106.973 44.069H105.027L104.705 45H103.676L105.433 40.107H106.574L108.331 45H107.295L106.973 44.069ZM106.707 43.285L106 41.241L105.293 43.285H106.707ZM115.35 41.626C115.35 41.8873 115.287 42.1323 115.161 42.361C115.04 42.5897 114.846 42.774 114.58 42.914C114.319 43.054 113.988 43.124 113.586 43.124H112.767V45H111.787V40.114H113.586C113.964 40.114 114.286 40.1793 114.552 40.31C114.818 40.4407 115.017 40.6203 115.147 40.849C115.283 41.0777 115.35 41.3367 115.35 41.626ZM113.544 42.333C113.815 42.333 114.016 42.2723 114.146 42.151C114.277 42.025 114.342 41.85 114.342 41.626C114.342 41.15 114.076 40.912 113.544 40.912H112.767V42.333H113.544ZM119.826 40.114V45H118.846V40.114H119.826ZM126.919 40.114V40.905H125.617V45H124.637V40.905H123.335V40.114H126.919ZM133.43 44.069H131.484L131.162 45H130.133L131.89 40.107H133.031L134.788 45H133.752L133.43 44.069ZM133.164 43.285L132.457 41.241L131.75 43.285H133.164ZM139.225 44.223H140.835V45H138.245V40.114H139.225V44.223ZM154.053 40.114V45H153.073V41.822L151.764 45H151.022L149.706 41.822V45H148.726V40.114H149.839L151.393 43.747L152.947 40.114H154.053ZM160.818 44.069H158.872L158.55 45H157.521L159.278 40.107H160.419L162.176 45H161.14L160.818 44.069ZM160.552 43.285L159.845 41.241L159.138 43.285H160.552ZM169.812 45H168.832L166.613 41.647V45H165.633V40.107H166.613L168.832 43.467V40.107H169.812V45ZM176.576 44.069H174.63L174.308 45H173.279L175.036 40.107H176.177L177.934 45H176.898L176.576 44.069ZM176.31 43.285L175.603 41.241L174.896 43.285H176.31ZM184.793 41.584C184.681 41.3787 184.527 41.2223 184.331 41.115C184.135 41.0077 183.906 40.954 183.645 40.954C183.355 40.954 183.099 41.0193 182.875 41.15C182.651 41.2807 182.476 41.4673 182.35 41.71C182.224 41.9527 182.161 42.2327 182.161 42.55C182.161 42.8767 182.224 43.1613 182.35 43.404C182.48 43.6467 182.66 43.8333 182.889 43.964C183.117 44.0947 183.383 44.16 183.687 44.16C184.06 44.16 184.366 44.062 184.604 43.866C184.842 43.6653 184.998 43.3877 185.073 43.033H183.393V42.284H186.039V43.138C185.973 43.4787 185.833 43.7937 185.619 44.083C185.404 44.3723 185.126 44.6057 184.786 44.783C184.45 44.9557 184.072 45.042 183.652 45.042C183.18 45.042 182.753 44.937 182.371 44.727C181.993 44.5123 181.694 44.216 181.475 43.838C181.26 43.46 181.153 43.0307 181.153 42.55C181.153 42.0693 181.26 41.64 181.475 41.262C181.694 40.8793 181.993 40.583 182.371 40.373C182.753 40.1583 183.178 40.051 183.645 40.051C184.195 40.051 184.674 40.1863 185.08 40.457C185.486 40.723 185.766 41.0987 185.92 41.584H184.793ZM190.544 40.905V42.13H192.189V42.907H190.544V44.202H192.399V45H189.564V40.107H192.399V40.905H190.544ZM201.416 40.114V45H200.436V41.822L199.127 45H198.385L197.069 41.822V45H196.089V40.114H197.202L198.756 43.747L200.31 40.114H201.416ZM206.165 40.905V42.13H207.81V42.907H206.165V44.202H208.02V45H205.185V40.107H208.02V40.905H206.165ZM215.89 45H214.91L212.691 41.647V45H211.711V40.107H212.691L214.91 43.467V40.107H215.89V45ZM222.983 40.114V40.905H221.681V45H220.701V40.905H219.399V40.114H222.983Z" fill="white"/>
<path d="M62.055 16.516C64.039 16.516 65.6303 17.1773 66.829 18.5C68.0277 19.802 68.627 21.6 68.627 23.894V34H63.357V24.607C63.357 23.4497 63.0573 22.5507 62.458 21.91C61.8587 21.2693 61.0527 20.949 60.04 20.949C59.0273 20.949 58.2213 21.2693 57.622 21.91C57.0227 22.5507 56.723 23.4497 56.723 24.607V34H51.422V11.06H56.723V19.027C57.2603 18.2623 57.994 17.6527 58.924 17.198C59.854 16.7433 60.8977 16.516 62.055 16.516ZM72.1867 25.351C72.1867 23.553 72.5483 21.9823 73.2717 20.639C74.0157 19.2957 75.0387 18.2623 76.3407 17.539C77.6633 16.8157 79.172 16.454 80.8667 16.454C83.0367 16.454 84.845 17.0223 86.2917 18.159C87.759 19.2957 88.72 20.8973 89.1747 22.964H83.5327C83.0573 21.6413 82.1377 20.98 80.7737 20.98C79.8023 20.98 79.0273 21.3623 78.4487 22.127C77.87 22.871 77.5807 23.9457 77.5807 25.351C77.5807 26.7563 77.87 27.8413 78.4487 28.606C79.0273 29.35 79.8023 29.722 80.7737 29.722C82.1377 29.722 83.0573 29.0607 83.5327 27.738H89.1747C88.72 29.7633 87.759 31.3547 86.2917 32.512C84.8243 33.6693 83.016 34.248 80.8667 34.248C79.172 34.248 77.6633 33.8863 76.3407 33.163C75.0387 32.4397 74.0157 31.4063 73.2717 30.063C72.5483 28.7197 72.1867 27.149 72.1867 25.351ZM115.012 16.516C117.162 16.516 118.867 17.167 120.127 18.469C121.409 19.771 122.049 21.5793 122.049 23.894V34H116.779V24.607C116.779 23.491 116.48 22.6333 115.88 22.034C115.302 21.414 114.496 21.104 113.462 21.104C112.429 21.104 111.613 21.414 111.013 22.034C110.435 22.6333 110.145 23.491 110.145 24.607V34H104.875V24.607C104.875 23.491 104.576 22.6333 103.976 22.034C103.398 21.414 102.592 21.104 101.558 21.104C100.525 21.104 99.7085 21.414 99.1092 22.034C98.5305 22.6333 98.2412 23.491 98.2412 24.607V34H92.9402V16.702H98.2412V18.872C98.7785 18.1487 99.4812 17.5803 100.349 17.167C101.217 16.733 102.199 16.516 103.294 16.516C104.596 16.516 105.754 16.795 106.766 17.353C107.8 17.911 108.606 18.7067 109.184 19.74C109.784 18.7893 110.6 18.0143 111.633 17.415C112.667 16.8157 113.793 16.516 115.012 16.516ZM129.167 34.248C128.237 34.248 127.472 33.9793 126.873 33.442C126.294 32.884 126.005 32.202 126.005 31.396C126.005 30.5693 126.294 29.877 126.873 29.319C127.472 28.761 128.237 28.482 129.167 28.482C130.076 28.482 130.82 28.761 131.399 29.319C131.998 29.877 132.298 30.5693 132.298 31.396C132.298 32.202 131.998 32.884 131.399 33.442C130.82 33.9793 130.076 34.248 129.167 34.248ZM143.403 34.248C141.894 34.248 140.551 33.9897 139.373 33.473C138.195 32.9563 137.265 32.2537 136.583 31.365C135.901 30.4557 135.518 29.443 135.436 28.327H140.675C140.737 28.9263 141.016 29.412 141.512 29.784C142.008 30.156 142.617 30.342 143.341 30.342C144.002 30.342 144.508 30.218 144.86 29.97C145.232 29.7013 145.418 29.3603 145.418 28.947C145.418 28.451 145.159 28.0893 144.643 27.862C144.126 27.614 143.289 27.3453 142.132 27.056C140.892 26.7667 139.858 26.467 139.032 26.157C138.205 25.8263 137.492 25.32 136.893 24.638C136.293 23.9353 135.994 22.995 135.994 21.817C135.994 20.825 136.262 19.926 136.8 19.12C137.358 18.2933 138.164 17.6423 139.218 17.167C140.292 16.6917 141.563 16.454 143.031 16.454C145.201 16.454 146.906 16.9913 148.146 18.066C149.406 19.1407 150.13 20.5667 150.316 22.344H145.418C145.335 21.7447 145.066 21.2693 144.612 20.918C144.178 20.5667 143.599 20.391 142.876 20.391C142.256 20.391 141.78 20.515 141.45 20.763C141.119 20.9903 140.954 21.3107 140.954 21.724C140.954 22.22 141.212 22.592 141.729 22.84C142.266 23.088 143.093 23.336 144.209 23.584C145.49 23.9147 146.534 24.2453 147.34 24.576C148.146 24.886 148.848 25.4027 149.448 26.126C150.068 26.8287 150.388 27.7793 150.409 28.978C150.409 29.9907 150.119 30.9 149.541 31.706C148.983 32.4913 148.166 33.1113 147.092 33.566C146.038 34.0207 144.808 34.248 143.403 34.248ZM165.215 16.516C167.199 16.516 168.79 17.1773 169.989 18.5C171.187 19.802 171.787 21.6 171.787 23.894V34H166.517V24.607C166.517 23.4497 166.217 22.5507 165.618 21.91C165.018 21.2693 164.212 20.949 163.2 20.949C162.187 20.949 161.381 21.2693 160.782 21.91C160.182 22.5507 159.883 23.4497 159.883 24.607V34H154.582V11.06H159.883V19.027C160.42 18.2623 161.154 17.6527 162.084 17.198C163.014 16.7433 164.057 16.516 165.215 16.516ZM184.274 34.248C182.58 34.248 181.05 33.8863 179.686 33.163C178.343 32.4397 177.279 31.4063 176.493 30.063C175.729 28.7197 175.346 27.149 175.346 25.351C175.346 23.5737 175.739 22.0133 176.524 20.67C177.31 19.306 178.384 18.2623 179.748 17.539C181.112 16.8157 182.642 16.454 184.336 16.454C186.031 16.454 187.56 16.8157 188.924 17.539C190.288 18.2623 191.363 19.306 192.148 20.67C192.934 22.0133 193.326 23.5737 193.326 25.351C193.326 27.1283 192.923 28.699 192.117 30.063C191.332 31.4063 190.247 32.4397 188.862 33.163C187.498 33.8863 185.969 34.248 184.274 34.248ZM184.274 29.66C185.287 29.66 186.145 29.288 186.847 28.544C187.571 27.8 187.932 26.7357 187.932 25.351C187.932 23.9663 187.581 22.902 186.878 22.158C186.196 21.414 185.349 21.042 184.336 21.042C183.303 21.042 182.445 21.414 181.763 22.158C181.081 22.8813 180.74 23.9457 180.74 25.351C180.74 26.7357 181.071 27.8 181.732 28.544C182.414 29.288 183.262 29.66 184.274 29.66ZM221.9 16.702L217.219 34H211.36L208.632 22.778L205.811 34H199.983L195.271 16.702H200.572L203.021 29.071L205.935 16.702H211.546L214.491 29.009L216.909 16.702H221.9Z" fill="white"/>
</svg>
