<svg width="24" height="24" viewBox="0 0 24 24" fill="none" xmlns="http://www.w3.org/2000/svg">
<g clip-path="url(#clip0_1424_8063)">
<path d="M8.00012 20.1489V23.9999H16.0001V20.3149C15.9805 19.4625 16.1427 18.6157 16.4758 17.8308C16.8089 17.046 17.3054 16.341 17.9321 15.7629C19.3 14.564 20.2725 12.9786 20.7214 11.2159C21.1703 9.45319 21.0745 7.59582 20.4467 5.88861C19.8189 4.1814 18.6886 2.70449 17.2046 1.65254C15.7207 0.60059 13.9528 0.0229815 12.134 -0.00415542C10.3153 -0.0312924 8.53094 0.493316 7.01627 1.50053C5.5016 2.50773 4.32767 3.95026 3.64922 5.63798C2.97077 7.3257 2.81964 9.17939 3.21574 10.9547C3.61185 12.73 4.53661 14.3437 5.86812 15.5829C6.52032 16.1549 7.0466 16.8561 7.4136 17.6421C7.78061 18.428 7.98033 19.2817 8.00012 20.1489ZM14.0001 21.9999H10.0001V20.1489C10.0001 20.0989 9.99312 20.0489 9.99212 19.9999H14.0161C14.0161 20.1049 14.0001 20.2089 14.0001 20.3149V21.9999ZM5.06012 8.07494C5.20878 6.95312 5.6272 5.88406 6.27953 4.95937C6.93186 4.03468 7.79864 3.28192 8.80562 2.7656C9.81259 2.24928 10.9297 1.98479 12.0613 1.99479C13.1929 2.00479 14.3052 2.28899 15.3029 2.82302C16.3006 3.35706 17.1539 4.12502 17.7898 5.06109C18.4257 5.99717 18.8251 7.07346 18.954 8.19773C19.0828 9.322 18.9371 10.4607 18.5294 11.5164C18.1217 12.572 17.4642 13.5131 16.6131 14.2589C15.5001 15.2555 14.703 16.5559 14.3201 17.9999H13.0001V10.8159C13.583 10.6099 14.088 10.2287 14.446 9.72464C14.804 9.22057 14.9976 8.6182 15.0001 7.99994H13.0001C13.0001 8.26516 12.8948 8.51951 12.7072 8.70705C12.5197 8.89458 12.2653 8.99994 12.0001 8.99994C11.7349 8.99994 11.4805 8.89458 11.293 8.70705C11.1055 8.51951 11.0001 8.26516 11.0001 7.99994H9.00012C9.00268 8.6182 9.1962 9.22057 9.55421 9.72464C9.91221 10.2287 10.4172 10.6099 11.0001 10.8159V17.9999H9.67812C9.22711 16.5092 8.38124 15.1681 7.23012 14.1189C6.40966 13.3598 5.78411 12.4142 5.40639 11.3622C5.02867 10.3101 4.9099 9.18259 5.06012 8.07494Z" fill="#F1BC72"/>
</g>
<defs>
<clipPath id="clip0_1424_8063">
<rect width="24" height="24" fill="white"/>
</clipPath>
</defs>
</svg>
