<svg width="17" height="18" viewBox="0 0 17 18" fill="none" xmlns="http://www.w3.org/2000/svg">
<path d="M16.9962 15.171C17.005 15.5339 16.9421 15.8949 16.8113 16.2335C16.6805 16.5721 16.4843 16.8816 16.2338 17.1443C15.9834 17.407 15.6836 17.6178 15.3516 17.7646C15.0197 17.9115 14.6621 17.9914 14.2992 18H5.34019C5.1472 17.9881 4.96674 17.9004 4.83821 17.756C4.70968 17.6115 4.64353 17.4221 4.65419 17.229C4.64353 17.0359 4.70968 16.8465 4.83821 16.702C4.96674 16.5576 5.1472 16.4699 5.34019 16.458H14.2992C14.6455 16.4625 14.9795 16.3297 15.2281 16.0884C15.4766 15.8472 15.6194 15.5173 15.6252 15.171L15.6252 2.829C15.6191 2.48287 15.4762 2.15323 15.2277 1.91222C14.9792 1.67121 14.6453 1.53845 14.2992 1.543H5.34019C5.15144 1.52042 4.97752 1.42944 4.85134 1.28726C4.72516 1.14509 4.65548 0.961592 4.65548 0.7715C4.65548 0.581408 4.72516 0.397911 4.85134 0.255737C4.97752 0.113564 5.15144 0.0225773 5.34019 0H14.2992C14.6623 0.0081768 15.0203 0.0878716 15.3526 0.234524C15.6849 0.381176 15.985 0.591909 16.2358 0.854666C16.4865 1.11742 16.6831 1.42705 16.814 1.76583C16.945 2.1046 17.008 2.46589 16.9992 2.829L16.9962 15.171ZM10.3622 9.823H2.66219L5.46219 12.623C5.53363 12.695 5.59018 12.7804 5.62862 12.8743C5.66705 12.9682 5.68662 13.0687 5.6862 13.1702C5.68579 13.2716 5.66539 13.372 5.62618 13.4656C5.58697 13.5591 5.52972 13.6441 5.45769 13.7155C5.31222 13.8598 5.11539 13.9404 4.91051 13.9395C4.70562 13.9387 4.50947 13.8565 4.36519 13.711L0.251191 9.6C0.17947 9.52831 0.122576 9.44319 0.0837591 9.34951C0.0449424 9.25582 0.0249634 9.15541 0.0249634 9.054C0.0249634 8.95259 0.0449424 8.85218 0.0837591 8.75849C0.122576 8.66481 0.17947 8.57969 0.251191 8.508L4.36519 4.392C4.43623 4.31765 4.5214 4.25823 4.61572 4.21725C4.71003 4.17627 4.81158 4.15454 4.9144 4.15335C5.01723 4.15215 5.11926 4.17151 5.2145 4.21029C5.30974 4.24906 5.39628 4.30648 5.46902 4.37916C5.54177 4.45184 5.59926 4.53832 5.63813 4.63352C5.67699 4.72873 5.69644 4.83074 5.69534 4.93357C5.69424 5.0364 5.67261 5.13796 5.63171 5.23232C5.59081 5.32667 5.53148 5.4119 5.45719 5.483L2.65719 8.283H10.3572C10.6132 8.283 10.8202 8.629 10.8202 9.054C10.8202 9.479 10.6182 9.823 10.3622 9.823Z" fill="white" fill-opacity="0.5"/>
</svg>
