<svg width="188" height="44" viewBox="0 0 188 44" fill="none" xmlns="http://www.w3.org/2000/svg">
<path d="M28.9586 1.63103L39.6397 20.1326C40.2217 21.1411 40.2217 22.3846 39.6397 23.3947L28.9586 41.8963C28.3765 42.9048 27.2995 43.5273 26.1339 43.5273H32.3934C33.5591 43.5273 34.6345 42.9064 35.2181 41.8963L45.8992 23.3947C46.4813 22.3862 46.4813 21.1427 45.8992 20.1326L35.2181 1.63103C34.6361 0.620974 33.5591 0 32.3934 0H26.1339C27.2995 0 28.3765 0.620974 28.9586 1.63103Z" fill="#39435A"/>
<path d="M28.9586 1.63103L29.4348 2.45588C30.2441 2.46833 31.0845 2.5337 31.942 2.65976C33.6493 2.91033 35.2212 3.36789 36.5659 3.96396L35.2197 1.63103C34.6376 0.622531 33.5606 0 32.3949 0H26.1354C27.3011 0 28.3765 0.620974 28.9601 1.63103H28.9586Z" fill="#39435A"/>
<path d="M16.908 1.63103L27.5891 20.1326C28.1711 21.1411 28.1711 22.3846 27.5891 23.3947L16.908 41.8963C16.3259 42.9048 15.2489 43.5273 14.0833 43.5273H20.3428C21.5085 43.5273 22.5839 42.9064 23.1675 41.8963L33.8486 23.3947C34.4307 22.3862 34.4307 21.1427 33.8486 20.1326L23.1675 1.63103C22.5855 0.620974 21.5085 0 20.3444 0H14.0848C15.2489 0 16.3259 0.620974 16.908 1.63103Z" fill="#39435A"/>
<path d="M17.3784 41.8948L6.69732 23.3931C6.11525 22.3846 6.11525 21.1411 6.69732 20.1311L17.3784 1.63103C17.962 0.620974 19.0374 0 20.2031 0H13.9436C12.7779 0 11.7009 0.620974 11.1188 1.63103L0.43777 20.1326C-0.144296 21.1411 -0.144296 22.3846 0.43777 23.3947L11.1188 41.8963C11.7009 42.9048 12.7779 43.5273 13.9436 43.5273H20.2031C19.0374 43.5273 17.962 42.9064 17.3784 41.8963V41.8948Z" fill="#CE275A"/>
<path d="M23.5503 41.8948L12.8692 23.3931C12.2872 22.3846 12.2872 21.1411 12.8692 20.1311L23.5503 1.63103C24.1324 0.620974 25.2093 0 26.3735 0H20.1139C18.9498 0 17.8728 0.620974 17.2892 1.63103L6.60812 20.1326C6.02605 21.1411 6.02605 22.3846 6.60812 23.3947L17.2892 41.8963C17.8713 42.9048 18.9482 43.5273 20.1139 43.5273H26.3735C25.2078 43.5273 24.1324 42.9064 23.5487 41.8963L23.5503 41.8948Z" fill="#2DB3A4"/>
<path d="M29.841 41.8948L19.1599 23.3931C18.5779 22.3846 18.5779 21.1411 19.1599 20.1311L29.841 1.63103C30.4231 0.620974 31.5 0 32.6642 0H26.4046C25.2405 0 24.1635 0.620974 23.5799 1.63103L12.8988 20.1326C12.3168 21.1411 12.3168 22.3846 12.8988 23.3947L23.5799 41.8963C24.162 42.9048 25.2389 43.5273 26.4046 43.5273H32.6642C31.4985 43.5273 30.4231 42.9064 29.8394 41.8963L29.841 41.8948Z" fill="#F2BD72"/>
<path d="M52.0576 31.8658V12.9152H60.1793C64.9711 12.9152 68.0573 15.3787 68.0573 19.575V19.6291C68.0573 24.096 64.6191 26.4513 59.9085 26.4513H57.3096V31.8658H52.0576ZM57.3096 22.3363H59.8003C61.6682 22.3363 62.8053 21.3617 62.8053 19.8728V19.8186C62.8053 18.1943 61.6682 17.328 59.7732 17.328H57.3096V22.3363ZM70.2732 31.8658V12.9152H75.5252V27.2635H84.7028V31.8658H70.2732ZM86.9555 31.8658V12.9152H92.5053L97.0264 20.2518L101.547 12.9152H107.097V31.8658H101.872V20.9827L97.0264 28.4005H96.9181L92.0992 21.0369V31.8658H86.9555ZM109.944 31.8658V26.5867H115.305V31.8658H109.944ZM123.675 32.1907C121.211 32.1907 118.775 31.4868 116.744 30.0249L118.666 26.9116C120.345 28.0215 122.186 28.59 123.702 28.59C124.595 28.59 125.001 28.3193 125.001 27.8049V27.7508C125.001 27.1823 124.189 26.9386 122.646 26.5055C119.749 25.7474 117.448 24.7728 117.448 21.822V21.7678C117.448 18.6545 119.939 16.9219 123.323 16.9219C125.462 16.9219 127.682 17.5445 129.36 18.6274L127.6 21.8761C126.084 21.0369 124.433 20.5225 123.269 20.5225C122.484 20.5225 122.078 20.8203 122.078 21.2264V21.2805C122.078 21.849 122.917 22.1198 124.46 22.58C127.357 23.3922 129.658 24.3938 129.658 27.2364V27.2906C129.658 30.5122 127.248 32.1907 123.675 32.1907ZM131.761 31.8658V12.103H136.904V19.223C137.852 18.0048 139.205 16.8948 141.29 16.8948C144.403 16.8948 146.271 18.9523 146.271 22.2822V31.8658H141.128V23.9336C141.128 22.3363 140.288 21.47 139.07 21.47C137.825 21.47 136.904 22.3363 136.904 23.9336V31.8658H131.761ZM156.391 32.2177C151.707 32.2177 148.323 28.7795 148.323 24.6104V24.5563C148.323 20.3871 151.734 16.8948 156.445 16.8948C161.128 16.8948 164.512 20.333 164.512 24.5021V24.5563C164.512 28.7254 161.101 32.2177 156.391 32.2177ZM156.445 27.8591C158.313 27.8591 159.504 26.3701 159.504 24.6104V24.5563C159.504 22.7695 158.204 21.2534 156.391 21.2534C154.523 21.2534 153.331 22.7424 153.331 24.5021V24.5563C153.331 26.343 154.631 27.8591 156.445 27.8591ZM169.409 31.9741L164.942 17.2197H169.977L171.899 24.5833L174.146 17.1655H178.397L180.671 24.6375L182.647 17.2197H187.601L183.08 31.9741H178.64L176.258 24.3668L173.821 31.9741H169.409Z" fill="#39435A"/>
</svg>
