<svg width="20" height="21" viewBox="0 0 20 21" fill="none" xmlns="http://www.w3.org/2000/svg">
<g clip-path="url(#clip0_1333_7895)">
<path d="M10.8333 12.5134H13.3333V14.1801H10.8333V16.6801H9.16667V14.1801H6.66667V12.5134H9.16667V10.0134H10.8333V12.5134ZM20 5.84675V20.0134H0V4.18008C0 3.51704 0.263392 2.88116 0.732233 2.41232C1.20107 1.94348 1.83696 1.68008 2.5 1.68008H6.86333L10.1967 3.34675H17.5C18.163 3.34675 18.7989 3.61014 19.2678 4.07898C19.7366 4.54783 20 5.18371 20 5.84675ZM1.66667 4.18008V6.68008H18.3333V5.84675C18.3333 5.62574 18.2455 5.41378 18.0893 5.2575C17.933 5.10122 17.721 5.01342 17.5 5.01342H9.80333L6.47 3.34675H2.5C2.27899 3.34675 2.06702 3.43455 1.91074 3.59083C1.75446 3.74711 1.66667 3.95907 1.66667 4.18008ZM18.3333 18.3468V8.34675H1.66667V18.3468H18.3333Z" fill="white" fill-opacity="0.5"/>
</g>
<defs>
<clipPath id="clip0_1333_7895">
<rect width="20" height="20" fill="white" transform="translate(0 0.846497)"/>
</clipPath>
</defs>
</svg>
