<svg width="25" height="25" viewBox="0 0 25 25" fill="none" xmlns="http://www.w3.org/2000/svg">
<g clip-path="url(#clip0_1424_8023)">
<path d="M4.57837 24.5389L5.91137 21.8719L8.57837 20.5389L5.91137 19.2059L4.57837 16.5389L3.24537 19.2059L0.578369 20.5389L3.24537 21.8719L4.57837 24.5389Z" fill="white"/>
<path d="M21.9111 21.8719L24.5781 20.5389L21.9111 19.2059L20.5781 16.5389L19.2451 19.2059L16.5781 20.5389L19.2451 21.8719L20.5781 24.5389L21.9111 21.8719Z" fill="white"/>
<path d="M13.9116 3.20606L12.5786 0.539062L11.2456 3.20606L8.57861 4.53906L11.2456 5.87206L12.5786 8.53906L13.9116 5.87206L16.5786 4.53906L13.9116 3.20606Z" fill="white"/>
<path d="M5.57812 14.5391C6.13041 14.5391 6.57812 14.0914 6.57812 13.5391C6.57812 12.9868 6.13041 12.5391 5.57812 12.5391C5.02584 12.5391 4.57812 12.9868 4.57812 13.5391C4.57812 14.0914 5.02584 14.5391 5.57812 14.5391Z" fill="white"/>
<path d="M1.57837 10.5392C2.13065 10.5392 2.57837 10.0915 2.57837 9.53921C2.57837 8.98693 2.13065 8.53922 1.57837 8.53922C1.02608 8.53922 0.578369 8.98693 0.578369 9.53921C0.578369 10.0915 1.02608 10.5392 1.57837 10.5392Z" fill="white"/>
<path d="M5.57812 6.53891C6.13041 6.53891 6.57812 6.09119 6.57812 5.53891C6.57812 4.98662 6.13041 4.53891 5.57812 4.53891C5.02584 4.53891 4.57812 4.98662 4.57812 5.53891C4.57812 6.09119 5.02584 6.53891 5.57812 6.53891Z" fill="white"/>
<path d="M1.57837 2.53906C2.13065 2.53906 2.57837 2.09135 2.57837 1.53906C2.57837 0.986778 2.13065 0.539062 1.57837 0.539062C1.02608 0.539062 0.578369 0.986778 0.578369 1.53906C0.578369 2.09135 1.02608 2.53906 1.57837 2.53906Z" fill="white"/>
<path d="M23.5781 14.5391C24.1304 14.5391 24.5781 14.0914 24.5781 13.5391C24.5781 12.9868 24.1304 12.5391 23.5781 12.5391C23.0258 12.5391 22.5781 12.9868 22.5781 13.5391C22.5781 14.0914 23.0258 14.5391 23.5781 14.5391Z" fill="white"/>
<path d="M19.5784 10.5392C20.1307 10.5392 20.5784 10.0915 20.5784 9.53921C20.5784 8.98693 20.1307 8.53922 19.5784 8.53922C19.0261 8.53922 18.5784 8.98693 18.5784 9.53921C18.5784 10.0915 19.0261 10.5392 19.5784 10.5392Z" fill="white"/>
<path d="M23.5781 6.53891C24.1304 6.53891 24.5781 6.09119 24.5781 5.53891C24.5781 4.98662 24.1304 4.53891 23.5781 4.53891C23.0258 4.53891 22.5781 4.98662 22.5781 5.53891C22.5781 6.09119 23.0258 6.53891 23.5781 6.53891Z" fill="white"/>
<path d="M19.5784 2.53906C20.1307 2.53906 20.5784 2.09135 20.5784 1.53906C20.5784 0.986778 20.1307 0.539062 19.5784 0.539062C19.0261 0.539062 18.5784 0.986778 18.5784 1.53906C18.5784 2.09135 19.0261 2.53906 19.5784 2.53906Z" fill="white"/>
<path d="M14.5781 24.5389C15.1304 24.5389 15.5781 24.0912 15.5781 23.5389C15.5781 22.9866 15.1304 22.5389 14.5781 22.5389C14.0258 22.5389 13.5781 22.9866 13.5781 23.5389C13.5781 24.0912 14.0258 24.5389 14.5781 24.5389Z" fill="white"/>
<path d="M10.5784 20.5391C11.1307 20.5391 11.5784 20.0914 11.5784 19.5391C11.5784 18.9868 11.1307 18.5391 10.5784 18.5391C10.0261 18.5391 9.57837 18.9868 9.57837 19.5391C9.57837 20.0914 10.0261 20.5391 10.5784 20.5391Z" fill="white"/>
<path d="M14.5781 16.5392C15.1304 16.5392 15.5781 16.0915 15.5781 15.5392C15.5781 14.9869 15.1304 14.5392 14.5781 14.5392C14.0258 14.5392 13.5781 14.9869 13.5781 15.5392C13.5781 16.0915 14.0258 16.5392 14.5781 16.5392Z" fill="white"/>
<path d="M10.5784 12.5389C11.1307 12.5389 11.5784 12.0912 11.5784 11.5389C11.5784 10.9866 11.1307 10.5389 10.5784 10.5389C10.0261 10.5389 9.57837 10.9866 9.57837 11.5389C9.57837 12.0912 10.0261 12.5389 10.5784 12.5389Z" fill="white"/>
</g>
<defs>
<clipPath id="clip0_1424_8023">
<rect width="24" height="24" fill="white" transform="translate(0.578369 0.539062)"/>
</clipPath>
</defs>
</svg>
