<?xml version="1.0" standalone="no"?>
<!DOCTYPE svg PUBLIC "-//W3C//DTD SVG 20010904//EN"
 "http://www.w3.org/TR/2001/REC-SVG-20010904/DTD/svg10.dtd">
<svg version="1.0" xmlns="http://www.w3.org/2000/svg"
 width="232.000000pt" height="232.000000pt" viewBox="0 0 232.000000 232.000000"
 preserveAspectRatio="xMidYMid meet">
<metadata>
Created by potrace 1.14, written by Peter Selinger 2001-2017
</metadata>
<g transform="translate(0.000000,232.000000) scale(0.100000,-0.100000)"
fill="#000000" stroke="none">
<path d="M634 2236 c-17 -8 -41 -24 -53 -37 -19 -21 -133 -211 -214 -357 -16
-30 -56 -99 -88 -154 -32 -55 -59 -101 -59 -103 0 -2 -18 -33 -41 -70 -22 -37
-50 -84 -61 -104 -11 -20 -41 -72 -67 -116 -40 -69 -46 -87 -46 -135 1 -50 8
-66 72 -175 38 -66 83 -142 98 -170 27 -49 118 -206 220 -380 29 -49 68 -117
86 -150 65 -119 103 -169 145 -191 40 -20 54 -20 540 -19 444 0 502 2 530 17
17 9 35 23 41 30 9 11 200 335 275 468 11 19 83 144 159 277 99 172 141 253
143 281 5 47 -14 92 -102 240 -34 57 -62 105 -62 107 0 2 -22 40 -50 84 -27
45 -49 82 -48 84 1 1 -5 13 -14 27 -9 14 -75 129 -148 255 -144 250 -159 271
-207 291 -47 20 -1003 20 -1049 0z m889 -198 c57 -99 346 -597 376 -651 10
-18 34 -59 54 -92 42 -72 56 -119 47 -162 -4 -17 -34 -78 -66 -135 -33 -57
-62 -110 -67 -118 -4 -8 -20 -36 -35 -61 -15 -25 -101 -175 -192 -332 -190
-330 -160 -313 -254 -147 -32 56 -55 107 -52 115 5 13 279 491 337 586 29 50
47 104 44 130 -6 39 -23 73 -110 224 -51 88 -102 176 -112 195 -11 19 -50 86
-86 148 -36 62 -68 121 -72 131 -4 12 17 57 60 130 36 62 65 116 65 122 0 20
11 6 63 -83z m-235 -636 c109 -190 113 -199 110 -247 -3 -39 -17 -71 -56 -139
-29 -48 -52 -91 -52 -96 0 -4 -8 -18 -18 -31 -11 -13 -33 -51 -51 -84 -18 -33
-38 -65 -44 -72 -9 -9 -37 32 -120 175 -60 104 -112 205 -116 227 -10 56 0 82
111 271 52 89 98 169 101 178 4 9 10 16 14 16 4 0 59 -89 121 -198z"/>
</g>
</svg>
